<svg id="download" width="128px" height="128px" xmlns="http://www.w3.org/2000/svg" version="1.1">
  <path d="M96,18c-1.5,0-2.952,0.236-4.404,0.453C86.016,8.578,75.702,2,64,2C52.047,2,41.727,8.674,36.236,18.391 C34.828,18.203,33.43,18,32,18C14.351,18,0,32.36,0,50c0,17.643,14.351,32,32,32h22.721v18.4H40l23.993,24L88,100.4H72V82h24 c17.656,0,32-14.357,32-32C128,32.361,113.656,18,96,18z M42.986,37.519c0-5.76,7.146-19.521,21.014-19.521 c8,0,12.67,7.15,14.24,8.721c-6.24,6.24-9.121,14.213-7.734,24.719h2.215C74.561,44.134,80.532,34,96,34c8.812,0,16,7.174,16,16 c0,8.827-7.188,16-16,16H32c-8.821,0-16-7.173-16-16c0-8.766,6.72-16.319,16.106-16.319C37.654,33.679,40.005,35.553,42.986,37.519z"/>
</svg>