<svg id="download" width="128px" height="128px" xmlns="http://www.w3.org/2000/svg" version="1.1">
  <path d="M96,16c-1.5,0-2.952,0.236-4.404,0.453C86.016,6.578,75.702,0,64,0C52.047,0,41.727,6.674,36.236,16.391 C34.828,16.203,33.43,16,32,16C14.351,16,0,30.36,0,48c0,17.642,14.351,32,32,32h22.721v18.4H40l23.993,24L88,98.4H72V80h24 c17.656,0,32-14.358,32-32C128,30.361,113.656,16,96,16z M42.986,35.519c0-5.76,7.146-19.521,21.014-19.521 c8,0,12.67,7.15,14.24,8.721c-6.24,6.24-9.121,14.213-7.734,24.719h2.215C74.561,42.134,80.532,32,96,32c8.812,0,16,7.174,16,16 c0,8.827-7.188,16-16,16H32c-8.821,0-16-7.173-16-16c0-8.766,6.72-16.319,16.106-16.319C37.654,31.679,40.005,33.553,42.986,35.519z"/>
</svg>