<?xml version="1.0" encoding="utf-8"?>
<!DOCTYPE svg PUBLIC "-//W3C//DTD SVG 1.1//EN" "http://www.w3.org/Graphics/SVG/1.1/DTD/svg11.dtd">
<svg version="1.1" id="Layer_1" xmlns="http://www.w3.org/2000/svg" xmlns:xlink="http://www.w3.org/1999/xlink" x="0px" y="0px"
	 width="172px" height="172px" viewBox="0 0 172 172" enable-background="new 0 0 172 172" xml:space="preserve">
<g id="Layer_3" display="none">
	<polygon display="inline" points="119.416,86 171.416,86 145.416,110.25 	"/>
</g>
<path d="M86,9C43.474,9,9,43.474,9,86c0,25.532,12.436,48.149,31.57,62.158c4.329-4.841,12.843-14.593,14.315-16.196
	C40.17,121.98,30.5,105.12,30.5,86c0-30.652,24.848-55.5,55.5-55.5c30.651,0,55.5,24.848,55.5,55.5c0,30.651-24.849,55.5-55.5,55.5
	c-4.348,0-8.573-0.516-12.633-1.462c-3.695,3.973-12.103,13.152-16.001,17.438C66.22,161.027,75.877,163,86,163
	c42.526,0,77-34.474,77-77C163,43.474,128.526,9,86,9z"/>
<g id="Layer_3_1_">
	<polygon points="86,156.454 58.425,156.454 86,125.875 	"/>
</g>
</svg>
