<svg class="amsf-logo" width="761" height="462" viewBox="0 0 761 462" xmlns="http://www.w3.org/2000/svg"><title>Almace Scaffolding</title><g fill="#ff00b4"><path class="amsf-logo-text-vertical" d="M62.776 262.328c1.024 3.84 6.016 5.376 11.008 3.84 4.864-1.92 7.424-6.528 6.528-10.496L69.048 216.12c-2.816-8.192-17.408-8.192-22.016 0L7.096 296.888c-1.792 3.968.128 8.576 4.48 10.496 4.736 1.536 9.728 0 11.904-3.84l31.872-66.688h1.024l6.4 25.472zm-21.12 18.432c-.512 4.864 2.432 8.832 6.528 8.832H69.56l4.608 13.952c1.408 3.84 6.144 5.376 11.136 3.84 4.864-1.92 7.808-6.528 6.784-10.496l-5.504-18.816c-.512-3.456-3.84-6.016-8.192-6.016H49.976c-4.096 0-7.808 3.84-8.32 8.704zm60.8 19.584c-.512 4.224 3.2 7.68 8.192 7.68s9.216-3.456 9.728-7.68l8.704-82.688c.384-4.224-3.2-7.68-8.192-7.68s-9.344 3.456-9.728 7.68l-8.704 82.688zm121.344 0c-.512 4.224 3.2 7.68 8.192 7.68s9.216-3.456 9.728-7.68l4.096-39.168c1.92-17.664-8.32-30.464-24.704-30.464-4.224 0-8.192 1.28-11.776 3.456-2.688 1.664-4.352 4.992-3.84 8.448.768 4.224 4.096 6.784 7.68 5.888 1.28-.256 2.048-.384 2.944-.384 7.296 0 12.544 5.76 11.776 13.056l-4.096 39.168zm-51.328-68.992c-3.84.896-6.784 5.12-6.144 9.856.384 4.352 3.584 7.296 7.04 7.04 7.168.256 11.264 5.76 10.496 12.928l-4.096 39.168c-.512 4.224 3.2 7.68 8.192 7.68s9.216-3.456 9.728-7.68l4.096-39.168c1.92-17.664-8.32-30.464-24.704-30.464-1.664 0-3.2.256-4.608.64zm-36.736 68.992c-.512 4.224 3.2 7.68 8.192 7.68s9.216-3.456 9.728-7.68l6.4-60.8c.384-4.224-3.2-7.68-8.192-7.68s-9.344 3.456-9.728 7.68l-6.4 60.8zM307 305.976c3.328-1.792 4.736-6.4 3.2-10.24-1.408-3.456-4.608-6.144-8.064-4.736a25.248 25.248 0 0 1-6.144.768c-12.032 0-20.736-9.856-19.456-21.888 1.28-11.904 12.032-21.76 24.064-21.76 12.16 0 20.736 9.856 19.456 21.76l-3.2 30.464c-.512 4.352 3.072 7.68 8.064 7.68s9.216-3.328 9.728-7.68l6.4-60.8c.384-4.224-3.2-7.68-8.192-7.68s-9.216 3.456-9.6 7.68l-.384 4.096h-.256c-4.48-6.912-11.904-12.928-23.552-12.928-20.608 0-39.04 16.768-41.344 39.168-2.432 22.528 12.544 39.296 33.152 39.296 6.272 0 11.904-.896 16.128-3.2zm96.384-19.456c-3.968 3.2-9.216 5.12-14.464 5.12-12.032 0-20.736-9.856-19.456-21.76 1.28-11.904 12.032-21.76 24.064-21.76 5.248 0 9.984 1.92 13.44 5.12 2.56 2.944 7.936 2.432 11.52-1.024 4.096-3.712 5.12-8.576 1.664-11.904-6.272-6.272-14.976-9.6-24.832-9.6-22.528 0-42.368 16.768-44.672 39.168-2.304 22.4 13.952 39.296 36.48 39.296 9.856 0 19.2-3.584 26.88-9.728 3.968-3.2 3.968-8.448.768-11.904-2.944-3.456-8.064-3.968-11.392-1.024zm50.048-16.256c-.512 4.352 2.176 7.936 5.888 7.936h38.784c4.992 0 9.6-4.096 9.984-8.32 2.304-21.888-13.824-39.168-35.712-39.168-22.4 0-42.24 16.768-44.544 39.168-2.432 22.528 13.952 39.296 36.992 39.296 11.52 0 23.68-4.352 32.384-12.032 2.688-2.816 2.432-7.68-.64-10.496a7.5 7.5 0 0 0-10.624-.256c-4.864 4.096-12.928 6.528-19.456 6.528-12.544 0-21.12-11.008-19.84-23.04 1.28-11.904 12.032-22.144 23.936-22.144 9.344 0 16.64 5.76 18.816 14.72h-28.416c-3.712 0-7.168 3.456-7.552 7.808zM14.28 414.6c-2.816-2.304-8.192-.896-11.392 2.688-3.2 4.224-3.2 9.216-.128 11.776l.384.384c8.192 6.144 18.816 9.728 31.104 9.728 20.736 0 37.504-11.008 39.424-29.952 4.224-39.808-48.896-20.992-46.592-43.264.768-7.04 6.528-9.984 15.872-9.984 8.32 0 13.952 2.432 20.352 6.656 3.328 2.176 8.192.128 11.136-3.968 2.816-4.224 2.304-8.96-.896-11.264-7.552-5.376-18.688-8.576-28.8-8.576-19.072 0-34.816 9.728-36.608 27.136-4.224 39.808 49.024 20.096 46.592 43.264-.896 8.32-8.448 14.208-18.816 14.208-8.704 0-16.256-4.352-21.632-8.832zm122.112 1.92c-3.968 3.2-9.216 5.12-14.464 5.12-12.032 0-20.736-9.856-19.456-21.76 1.28-11.904 12.032-21.76 24.064-21.76 5.248 0 9.984 1.92 13.44 5.12 2.56 2.944 7.936 2.432 11.52-1.024 4.096-3.712 5.12-8.576 1.664-11.904-6.272-6.272-14.976-9.6-24.832-9.6-22.528 0-42.368 16.768-44.672 39.168-2.304 22.4 13.952 39.296 36.48 39.296 9.856 0 19.2-3.584 26.88-9.728 3.968-3.2 3.968-8.448.768-11.904-2.944-3.456-8.064-3.968-11.392-1.024zm73.728 19.456c3.328-1.792 4.736-6.4 3.2-10.24-1.408-3.456-4.608-6.144-8.064-4.736a25.248 25.248 0 0 1-6.144.768c-12.032 0-20.736-9.856-19.456-21.888 1.28-11.904 12.032-21.76 24.064-21.76 12.16 0 20.736 9.856 19.456 21.76l-3.2 30.464c-.512 4.352 3.072 7.68 8.064 7.68s9.216-3.328 9.728-7.68l6.4-60.8c.384-4.224-3.2-7.68-8.192-7.68s-9.216 3.456-9.6 7.68l-.384 4.096h-.256c-4.48-6.912-11.904-12.928-23.552-12.928-20.608 0-39.04 16.768-41.344 39.168-2.432 22.528 12.544 39.296 33.152 39.296 6.272 0 11.904-.896 16.128-3.2zm60.032-50.816c-4.864 0-9.344 3.456-9.728 7.552l-3.968 37.76c-.512 4.096 3.328 7.552 8.192 7.552 4.864 0 9.216-3.456 9.728-7.552l3.968-37.76c.384-4.096-3.328-7.552-8.192-7.552zm45.224 0c-4.864 0-9.344 3.456-9.728 7.552l-3.968 37.76c-.512 4.096 3.328 7.552 8.192 7.552 4.864 0 9.216-3.456 9.728-7.552l3.968-37.76c.384-4.096-3.328-7.552-8.192-7.552zm90.496 14.72c-1.28 12.032-12.032 21.888-24.192 21.888-11.904 0-20.608-9.856-19.328-21.888 1.28-11.904 12.032-21.76 23.936-21.76 12.16 0 20.864 9.856 19.584 21.76zm18.688 0c2.304-22.4-13.952-39.168-36.48-39.168-22.4 0-42.24 16.768-44.544 39.168-2.432 22.528 13.952 39.296 36.352 39.296 22.528 0 42.24-16.768 44.672-39.296zm9.6 30.464c-.512 4.224 3.2 7.68 8.192 7.68s9.216-3.456 9.728-7.68l8.704-82.688c.384-4.224-3.2-7.68-8.192-7.68s-9.344 3.456-9.728 7.68l-8.704 82.688zm83.328 5.632c3.328-1.792 4.736-6.4 3.2-10.24-1.408-3.456-4.608-6.144-8.064-4.736a25.248 25.248 0 0 1-6.144.768c-12.032 0-20.864-9.856-19.584-21.888 1.28-11.904 12.16-21.76 24.192-21.76 12.16 0 20.736 9.856 19.456 21.76l-3.2 30.464c-.512 4.352 3.072 7.68 8.064 7.68s9.216-3.328 9.728-7.68l8.704-82.688c.384-4.224-3.2-7.68-8.192-7.68s-9.216 3.456-9.6 7.68l-2.688 25.984h-.256c-4.48-6.912-11.904-12.928-23.552-12.928-20.608 0-39.168 16.768-41.472 39.168-2.432 22.528 12.672 39.296 33.28 39.296 6.272 0 11.904-.896 16.128-3.2zm43.008-5.632c-.512 4.224 3.2 7.68 8.192 7.68s9.216-3.456 9.728-7.68l6.4-60.8c.384-4.224-3.2-7.68-8.192-7.68s-9.344 3.456-9.728 7.68l-6.4 60.8zm7.424-81.92c-.512 5.632 3.456 10.112 9.088 10.112s10.624-4.48 11.136-10.112c.64-5.632-3.328-10.112-8.96-10.112-5.632 0-10.624 4.48-11.264 10.112zm50.176 21.12c.384-4.224-3.2-7.68-8.192-7.68s-9.344 3.456-9.728 7.68l-6.4 60.8c-.512 4.224 3.2 7.68 8.192 7.68s9.216-3.456 9.728-7.68l6.4-60.8zm26.24 60.8c-.512 4.224 3.2 7.68 8.192 7.68s9.216-3.456 9.728-7.68l3.968-38.144c2.048-18.816-8.064-31.488-25.344-31.488-4.096 0-7.936.64-11.136 1.92-3.584 1.152-5.888 4.864-5.504 9.088.384 4.096 3.328 7.04 6.912 6.656l2.432-.256c10.752-1.152 15.616 6.4 14.464 16.384l-3.712 35.84zM300.5 370.824l.5-7.936h7.72l.384-3.456c1.28-12.032 12.416-20.608 24.448-20.608 5.504 0 10.24 2.176 13.824 5.632 2.688 2.432 2.304 7.552-.768 11.008-3.456 3.712-8.064 3.84-11.264 1.536-.64-.512-2.048-1.536-3.584-1.536-2.304 0-4.48 2.048-4.736 4.352l-.384 3.072h6.4c3.712 0 6.4 3.584 6.016 7.936-.512 4.352-3.968 7.936-7.68 7.936H300l.5-7.936-.5 7.936h-40.344c-3.712 0-6.4-3.584-5.888-7.936.384-4.352 3.84-7.936 7.552-7.936h2.176l.384-3.456c1.28-12.032 12.416-20.608 24.448-20.608 5.504 0 10.24 2.176 13.824 5.632 2.688 2.432 2.304 7.552-.768 11.008-3.456 3.712-8.064 3.84-11.264 1.536-.64-.512-2.048-1.536-3.584-1.536-2.304 0-4.48 2.048-4.736 4.352l-.384 3.072H301l-.5 7.936zm413.468 48.768c-10.752 0-17.92-10.368-16.768-21.376 1.28-11.392 12.672-20.096 24.064-20.096 11.52 0 19.712 9.344 18.56 20.736l-2.816 25.984c-1.024 10.88-15.104 19.328-25.6 19.328-6.656 0-12.16-1.792-17.792-5.12-3.328-1.792-8.192.256-10.88 4.352-2.816 4.096-2.176 9.088 1.024 11.008 7.808 4.224 16.128 6.656 25.856 6.656 22.4 0 43.392-18.176 45.696-40.32l5.376-51.712c.512-4.224-2.944-7.168-7.552-7.168s-8.448 2.944-8.96 7.168l-.256 3.328h-.256c-4.352-6.016-11.392-11.648-22.784-11.648-20.608 0-40.064 15.36-42.368 36.864-2.176 20.992 13.056 38.144 33.664 38.912 7.936-.256 11.648-2.56 14.848-4.992 2.944-2.304 4.608-5.76 3.072-9.6-1.408-3.456-5.76-4.992-9.216-3.584-2.048.768-3.584 1.28-6.912 1.28z"/><path class="amsf-logo-symbol-vertical" d="M127.75 172.78c31.102-14.172 52.722-45.53 52.722-81.94 0-49.706-40.295-90-90-90-49.706 0-90 40.294-90 90 0 25.874 10.918 49.198 28.4 65.615l3.206-32.727c.807-8.238 8.176-14.917 16.462-14.917 8.284 0 14.346 6.67 13.538 14.92l-4.97 50.724c10.317 4.12 21.575 6.387 33.364 6.387 2.19 0 4.36-.077 6.51-.23l9.986-101.88c.807-8.24 8.176-14.918 16.462-14.918 8.284 0 14.346 6.67 13.538 14.918l-9.218 94.053z"/></g></svg>