<svg width="1104" height="300" viewBox="0 0 1104 300" xmlns="http://www.w3.org/2000/svg"><title>Almace Scaffolding</title><path d="M54.271 265.487C21.115 237.972 0 196.452 0 150 0 67.157 67.157 0 150 0s150 67.157 150 150c0 64.288-40.443 119.13-97.274 140.471l28.22-178.804h-41.253L160.02 299.67c-3.312.218-6.653.329-10.02.329-20.594 0-40.218-4.15-58.083-11.66l17.363-110.007H68.027L54.27 265.487zm350.665-144.423h-36.72l-9.928 17.816H330l55.624-102.544h29.104l22.44 102.544h-28.424l-3.808-17.816zm-3.944-20.4l-5.712-32.64h-.272l-16.184 32.64h22.168zM484.978 26l-17.816 112.88H442.41L460.226 26h24.752zm31.762 43.112l-1.36 8.704h.272c7.072-7.752 14.824-11.016 23.8-11.016 10.064 0 18.088 4.08 21.624 13.328 6.256-8.704 16.32-13.328 25.84-13.328 17.68 0 21.896 11.56 19.448 27.608l-7.072 44.472H574.54l5.304-33.32c1.088-7.208 3.264-19.04-7.208-19.04-11.424 0-13.6 10.744-14.824 19.04l-5.304 33.32h-24.752l5.304-33.32c1.224-7.752 3.128-19.584-7.888-19.584s-12.92 11.832-14.144 19.584l-5.304 33.32h-24.752l11.016-69.768h24.752zm140.698 19.176c-10.064 0-17 7.208-18.36 15.776-1.496 8.84 3.264 15.64 13.328 15.64s17-6.8 18.496-15.64c1.36-8.568-3.4-15.776-13.464-15.776zm42.84-19.176l-11.016 69.768H664.51l1.224-7.752h-.272c-5.44 6.936-14.552 10.064-22.712 10.064-20.672 0-32.504-17.272-29.24-37.264 3.128-19.992 20.128-37.128 40.8-37.128 8.024 0 15.912 2.992 20.128 9.112l1.088-6.8h24.752zm63.994 1.768l-3.264 20.944c-3.264-2.72-7.208-4.896-11.968-4.896-9.52 0-18.224 7.344-19.72 17-1.632 10.064 4.488 17.136 14.688 17.136 4.352 0 9.384-1.768 13.056-4.76l-3.264 20.944c-5.848 2.72-12.104 3.944-18.088 3.944-20.672 0-35.496-15.368-32.096-36.448 3.536-22.44 23.12-37.944 45.016-37.944 5.712 0 11.152 1.36 15.64 4.08zm27.546 22.984h28.696c-.136-6.664-5.576-11.016-12.24-11.016-7.208 0-13.736 3.808-16.456 11.016zm49.912 11.696l-.408 2.584h-52.088c-1.632 10.064 2.856 15.504 13.056 15.504 5.304 0 9.384-1.768 12.784-6.392h23.8c-3.128 8.16-8.976 14.144-16.048 18.088-6.936 3.944-15.232 5.848-23.256 5.848-23.12 0-38.216-13.056-34.408-37.128 3.672-23.256 21.76-37.264 44.472-37.264 24.208 0 35.904 14.96 32.096 38.76zm-420.202 57.488l-13.872 20.672c-4.352-4.08-10.064-6.8-16.592-6.8-4.896 0-11.968 2.856-12.784 8.568-.952 5.984 5.848 8.296 10.2 9.792l6.528 2.04c13.6 4.216 23.528 11.424 20.808 28.016-1.632 10.2-5.712 20.672-14.96 27.608-9.112 6.8-20.264 9.656-30.6 9.656-12.92 0-24.888-4.352-34.272-11.696l14.824-21.488c5.848 5.848 12.92 10.608 22.032 10.608 6.256 0 13.464-3.128 14.552-10.336 1.224-7.48-8.84-10.064-14.28-11.696-16.048-4.76-26.384-9.112-23.12-28.968 3.264-20.808 20.264-34.408 40.8-34.408 10.336 0 22.44 3.264 30.736 8.432zm59.506 28.832l-3.264 20.944c-3.264-2.72-7.208-4.896-11.968-4.896-9.52 0-18.224 7.344-19.72 17-1.632 10.064 4.488 17.136 14.688 17.136 4.352 0 9.384-1.768 13.056-4.76l-3.264 20.944c-5.848 2.72-12.104 3.944-18.088 3.944-20.672 0-35.496-15.368-32.096-36.448 3.536-22.44 23.12-37.944 45.016-37.944 5.712 0 11.152 1.36 15.64 4.08zm46.586 17.408c-10.064 0-17 7.208-18.36 15.776-1.496 8.84 3.264 15.64 13.328 15.64s17-6.8 18.496-15.64c1.36-8.568-3.4-15.776-13.464-15.776zm83.986-19.176h25.506l1.496-8.84c1.496-9.656 2.856-16.728 10.88-24.48 7.208-7.208 16.728-11.152 26.112-11.152 3.808 0 7.072.68 10.2 2.448l-3.4 21.352c-2.584-1.224-5.032-2.312-8.296-2.312-6.392 0-9.112 3.808-10.472 11.696l-1.768 11.288h17.272l-3.264 20.4H658.6l-7.752 49.368h-24.752l7.752-49.368h-25.506l-7.752 49.368h-24.752l7.752-49.368h-8.704l3.264-20.4h8.704l1.496-8.84c1.496-9.656 2.856-16.728 10.88-24.48 7.208-7.208 16.728-11.152 26.112-11.152 3.808 0 7.072.68 10.2 2.448l-3.4 21.352c-2.584-1.224-5.032-2.312-8.296-2.312-6.392 0-9.112 3.808-10.472 11.696l-1.768 11.288zm-41.146 0l-11.016 69.768h-24.752l1.224-7.752h-.272c-5.44 6.936-14.552 10.064-22.712 10.064-20.672 0-32.504-17.272-29.24-37.264 3.128-19.992 20.128-37.128 40.8-37.128 8.024 0 15.912 2.992 20.128 9.112l1.088-6.8h24.752zm151.726-2.312c22.44 0 39.848 13.464 36.176 37.264-3.808 23.664-25.568 37.128-48.008 37.128-22.304 0-39.848-13.328-36.04-37.128 3.672-23.8 25.432-37.264 47.872-37.264zm-3.4 21.488c-10.064 0-17 7.208-18.36 15.776-1.496 8.84 3.264 15.64 13.328 15.64s17-6.8 18.496-15.64c1.36-8.568-3.4-15.776-13.464-15.776zM803.996 147L786.18 259.88h-24.752L779.244 147h24.752zm48.49 112.88l1.224-7.752h-.272c-5.44 6.936-14.552 10.064-22.712 10.064-20.672 0-32.504-17.272-29.24-37.264 3.128-19.992 20.128-37.128 40.8-37.128 8.024 0 15.912 2.992 20.128 9.112L870.302 147h24.752l-17.816 112.88h-24.752zm-7.072-50.592c-10.064 0-17 7.208-18.36 15.776-1.496 8.84 3.264 15.64 13.328 15.64s17-6.8 18.496-15.64c1.36-8.568-3.4-15.776-13.464-15.776zm80.722-19.176L915.12 259.88h-24.752l11.016-69.768h24.752zm-5.848-40.664c7.616 0 12.784 6.256 11.56 13.872-1.088 7.616-8.432 13.872-16.048 13.872-7.616 0-12.784-6.256-11.696-13.872 1.224-7.616 8.568-13.872 16.184-13.872zm44.41 40.664l-1.36 8.976h.272c7.072-8.432 14.416-11.288 24.072-11.288 18.768 0 24.344 11.832 21.624 28.968l-6.8 43.112h-24.752l5.44-34c.952-6.664 3.944-18.36-8.296-18.36-10.064 0-14.144 7.48-15.504 16.184l-5.712 36.176H928.93l11.016-69.768h24.752zm139.202 0l-9.928 62.968c-4.76 29.648-21.352 41.616-47.056 41.616-16.048 0-36.176-8.296-35.496-26.656h27.744c.408 2.448 1.904 4.216 3.808 5.304 2.04 1.088 4.488 1.632 6.8 1.632 13.328 0 17.408-8.704 19.176-19.992l.544-3.264c-7.48 6.392-14.552 9.52-23.8 9.52-20.4 0-31.96-15.504-28.696-35.632 3.264-20.4 20.4-37.808 41.752-37.808 8.16 0 15.232 2.72 19.04 9.656h.272l1.088-7.344h24.752zm-42.704 18.632c-10.064 0-17.136 7.208-18.496 15.776-1.36 8.84 3.4 15.64 13.464 15.64s17-6.8 18.36-15.64c1.36-8.568-3.264-15.776-13.328-15.776z" fill="#FF00B4" fill-rule="evenodd"/></svg>
