<svg width="843" height="408" viewBox="0 0 843 408" xmlns="http://www.w3.org/2000/svg"><title>Custom Heading Image</title><path d="M85.852 114.627C106.587 105.18 121 84.273 121 60c0-33.137-26.863-60-60-60S1 26.863 1 60c0 17.25 7.28 32.798 18.933 43.744l2.138-21.818c.54-5.493 5.45-9.946 10.977-9.946 5.522 0 9.564 4.447 9.025 9.946l-3.313 33.816A59.838 59.838 0 0 0 61 120c1.46 0 2.907-.052 4.34-.155l6.657-67.92c.54-5.492 5.45-9.945 10.975-9.945 5.523 0 9.564 4.447 9.025 9.946l-6.145 62.7zM48.69 155.004c-28.068 0-47.88 20.7-47.88 48.26 0 27.686 19.812 48.387 47.88 48.387 13.588 0 24.637-4.062 33.908-14.222L70.533 223.33c-4.953 5.97-12.192 10.668-21.844 10.668-17.147 0-28.323-12.954-28.323-30.734s11.176-30.607 28.32-30.607c9.526 0 16.638 4.572 21.59 10.414l12.193-14.095c-9.016-9.27-19.05-13.97-33.78-13.97zm96.163 30.607h-18.67v40.515c-2.54 3.937-6.222 7.62-12.318 7.62-6.35 0-9.906-4.826-9.906-11.81V185.61H85.29v37.34c0 17.27 8 28.32 23.24 28.32 9.272 0 15.24-3.556 18.67-8.255l.89 6.985h16.763v-64.39zm35.712-1.27c-17.018 0-27.05 8.257-27.05 21.084 0 10.033 6.603 15.113 20.7 18.542 8.636 2.032 10.922 3.81 10.922 7.24 0 3.682-3.43 5.46-9.144 5.46a27.155 27.155 0 0 1-17.653-6.477l-7.112 13.334c5.46 4.7 14.86 7.747 24.638 7.747 17.4 0 28.067-8.51 28.067-21.335 0-9.652-6.604-15.748-20.193-19.05-9.144-2.16-11.557-3.43-11.557-6.73 0-3.43 2.92-5.08 8.382-5.08 6.477 0 11.684 2.54 15.367 5.46l6.985-13.208c-4.953-4.318-13.462-6.985-22.352-6.985zm53.238-20.064h-18.67v21.336h-11.556v15.75h11.557V226c0 16.255 10.033 25.272 25.78 25.272 6.605 0 11.304-1.905 14.733-3.937l-4.7-14.732c-1.777 1.017-4.444 1.906-8.254 1.906-5.334 0-8.89-3.176-8.89-8.764V201.36h18.415v-15.75h-18.415v-21.335zm54.127 20.066c-19.558 0-33.782 14.352-33.782 33.656s14.224 33.274 33.782 33.274c19.558 0 34.036-13.97 34.036-33.274 0-19.304-14.478-33.655-34.036-33.655zm0 16.257c8.763 0 15.113 7.492 15.113 17.4 0 9.777-6.35 17.016-15.113 17.016-8.636 0-14.986-7.24-14.986-17.018 0-9.906 6.35-17.4 14.986-17.4zm76.48-16.257c-9.018 0-14.987 3.81-18.29 8.383l-.888-7.112h-16.764V250h18.67v-40.513c2.666-3.937 6.35-7.62 11.937-7.62 6.35 0 9.78 4.953 9.78 12.065V250h18.668v-40.513c2.667-4.064 6.35-7.62 11.938-7.62 6.35 0 9.78 4.953 9.78 12.065V250h18.797v-37.084c0-17.4-8.128-28.575-23.114-28.575-10.033 0-16.51 4.574-21.21 11.05-3.81-6.984-10.286-11.05-19.303-11.05zM82.85 283.656H63.548v36.703H25.702v-36.704H6.272V377H25.7v-38.99h37.846V377H82.85v-93.345zm39.776 27.686c-19.177 0-32.385 14.352-32.385 33.656s12.955 33.274 33.148 33.274c12.065 0 20.574-3.81 27.305-11.557L137.868 356.3c-2.794 3.81-7.747 6.603-14.097 6.603-9.27 0-14.35-4.7-14.73-12.954h43.56v-5.97c0-17.654-9.78-32.64-29.97-32.64zm-.635 14.098c7.62 0 11.94 5.46 12.193 12.7H109.04c.38-7.366 5.333-12.7 12.953-12.7zm61.24-14.097c-17.145 0-28.702 14.225-28.702 33.53 0 19.303 11.557 33.4 28.702 33.4 9.27 0 15.494-3.81 18.796-8.382l1.016 7.113h16.764v-64.39h-16.764l-1.016 7.24c-3.302-4.7-9.525-8.51-18.796-8.51zm4.57 16.257c6.48 0 10.416 3.556 13.21 8.128v18.288c-2.794 4.572-6.73 8-13.21 8-8.507 0-14.476-6.603-14.476-17.144 0-10.67 5.97-17.273 14.478-17.273zm103.79-47.12h-18.796v37.973c-3.048-3.556-8.636-7.112-17.78-7.112-17.145 0-28.702 14.226-28.702 33.53 0 19.304 11.557 33.4 28.702 33.4 9.27 0 15.494-3.81 18.796-8.38l1.016 7.11h16.764v-96.52zm-32.004 47.117c6.477 0 10.414 3.556 13.208 8.128v18.288c-2.794 4.572-6.73 8-13.208 8-8.51 0-14.478-6.603-14.478-17.144 0-10.67 5.97-17.274 14.478-17.274zm62.255-14.986h-18.67V377h18.67v-64.39zm-9.27-31.24c-6.35 0-10.923 4.57-10.923 10.92s4.572 10.924 10.922 10.924c6.35 0 10.92-4.572 10.92-10.922 0-6.35-4.57-10.92-10.92-10.92zm56.92 29.97c-8.89 0-15.113 3.685-18.288 8.384l-.888-7.112H333.55V377h18.67v-40.513c2.412-3.937 6.35-7.62 12.19-7.62 6.605 0 10.542 4.953 10.542 12.065V377h18.67v-37.084c0-17.4-8.51-28.575-24.13-28.575zm57.937 0c-17.018 0-28.702 13.845-28.702 32.768 0 18.923 11.684 32.766 28.702 32.766 9.27 0 14.86-3.556 17.907-7.112v4.954c-.127 9.525-6.223 16.51-16.51 16.51-8.763 0-14.478-4.445-19.177-9.78l-12.192 12.193c7.366 8.254 16.89 13.842 31.623 13.842 21.082 0 34.925-12.573 34.925-33.147V312.61H447.24l-.89 7.24c-3.3-4.7-9.65-8.51-18.923-8.51zM432 327.6c6.476 0 10.54 3.556 13.334 8.128v16.764c-2.794 4.57-6.858 8.127-13.335 8.127-8.51 0-14.35-6.35-14.35-16.51 0-10.16 5.84-16.51 14.35-16.51zm87.3-43.942h-19.433V377h19.43v-93.345zm48.283 27.686c-9.017 0-14.986 3.81-18.288 8.383l-.89-7.112h-16.763V377h18.67v-40.513c2.667-3.937 6.35-7.62 11.938-7.62 6.35 0 9.78 4.953 9.78 12.065V377h18.668v-40.513c2.667-4.064 6.35-7.62 11.938-7.62 6.35 0 9.78 4.953 9.78 12.065V377h18.795v-37.084c0-17.4-8.13-28.575-23.114-28.575-10.033 0-16.51 4.574-21.21 11.05-3.81-6.984-10.286-11.05-19.303-11.05zm97.434 0c-17.145 0-28.702 14.225-28.702 33.53 0 19.303 11.557 33.4 28.702 33.4 9.27 0 15.494-3.81 18.796-8.382l1.016 7.112h16.763v-64.39H684.83l-1.017 7.24c-3.302-4.7-9.525-8.51-18.796-8.51zm4.572 16.257c6.476 0 10.413 3.555 13.207 8.127v18.288c-2.794 4.572-6.73 8-13.208 8-8.51 0-14.48-6.603-14.48-17.144 0-10.67 5.97-17.272 14.48-17.272zm67.207-16.257c-17.018 0-28.702 13.844-28.702 32.767 0 18.923 11.684 32.766 28.702 32.766 9.27 0 14.86-3.556 17.907-7.112v4.954c-.127 9.525-6.223 16.51-16.51 16.51-8.763 0-14.478-4.445-19.177-9.78l-12.192 12.193c7.366 8.256 16.89 13.844 31.623 13.844 21.082 0 34.925-12.573 34.925-33.147V312.61H756.61l-.89 7.24c-3.3-4.7-9.65-8.51-18.923-8.51zm4.572 16.257c6.476 0 10.54 3.556 13.334 8.128v16.764c-2.794 4.57-6.858 8.127-13.335 8.127-8.51 0-14.35-6.35-14.35-16.51 0-10.16 5.84-16.51 14.35-16.51zm71.017-16.256c-19.177 0-32.385 14.352-32.385 33.656s12.955 33.274 33.148 33.274c12.065 0 20.574-3.81 27.305-11.557l-12.83-10.417c-2.793 3.81-7.746 6.603-14.096 6.603-9.273 0-14.353-4.7-14.734-12.954h43.56v-5.97c0-17.654-9.778-32.64-29.97-32.64zm-.635 14.098c7.62 0 11.94 5.46 12.193 12.7H798.8c.38-7.366 5.333-12.7 12.953-12.7z" fill="#FF4525" fill-rule="evenodd"/></svg>
