<svg width="180" height="180" viewBox="0 0 180 180" xmlns="http://www.w3.org/2000/svg"><title>Almace Scaffolding</title><g transform="translate(-30 -30)" fill="none" fill-rule="evenodd"><circle fill="#FFF" cx="120" cy="120" r="90"/><path d="M195 120c0-41.42-33.58-75-75-75s-75 33.58-75 75c0 21.562 9.1 40.998 23.666 54.68l2.673-27.273c.67-6.866 6.81-12.43 13.716-12.43 6.903 0 11.955 5.557 11.282 12.43l-4.144 42.27A74.834 74.834 0 0 0 120 195a76.08 76.08 0 0 0 5.426-.193l8.32-84.9c.674-6.866 6.814-12.43 13.72-12.43 6.903 0 11.954 5.557 11.28 12.43l-7.68 78.377C176.983 176.474 195 150.34 195 120z" fill="#FF00B4"/></g></svg>
