<svg width="180" height="180" viewBox="0 0 180 180" xmlns="http://www.w3.org/2000/svg"><title>Almace Scaffolding</title><path d="M180 90c0-49.706-40.294-90-90-90S0 40.294 0 90c0 25.874 10.918 49.198 28.4 65.615l3.206-32.727c.808-8.238 8.176-14.917 16.462-14.917 8.285 0 14.347 6.67 13.538 14.92l-4.97 50.724C66.952 177.734 78.21 180 90 180c2.19 0 4.36-.078 6.51-.232l9.986-101.88c.807-8.238 8.176-14.917 16.462-14.917 8.284 0 14.346 6.67 13.538 14.92l-9.217 94.052C158.38 157.77 180 126.41 180 90z" fill="#FF00B4" fill-rule="evenodd"/></svg>
