<svg width="208" height="208" viewBox="0 0 208 208" xmlns="http://www.w3.org/2000/svg"><title>logo-black-mask-icon@1x</title><path d="M194 104c0-49.706-40.294-90-90-90s-90 40.294-90 90c0 25.874 10.918 49.198 28.4 65.615l3.206-32.727c.808-8.238 8.176-14.917 16.462-14.917 8.285 0 14.347 6.67 13.538 14.92l-4.97 50.724C80.952 191.734 92.21 194 104 194c2.19 0 4.36-.078 6.51-.232l9.986-101.88c.807-8.238 8.176-14.917 16.462-14.917 8.284 0 14.346 6.67 13.538 14.92l-9.217 94.052C172.38 171.77 194 140.41 194 104z" fill-rule="evenodd"/></svg>