<?xml version="1.0" encoding="utf-8"?>
<!DOCTYPE svg PUBLIC "-//W3C//DTD SVG 1.1//EN" "http://www.w3.org/Graphics/SVG/1.1/DTD/svg11.dtd">
<svg version="1.1" id="Layer_1" xmlns="http://www.w3.org/2000/svg" xmlns:xlink="http://www.w3.org/1999/xlink" x="0px" y="0px"
	 width="1144px" height="1144px" viewBox="0 0 1144 1144" enable-background="new 0 0 1144 1144" xml:space="preserve">
<circle opacity="0.02" enable-background="new    " cx="571.949" cy="571.691" r="572"/>
<circle opacity="0.02" enable-background="new    " cx="571.949" cy="571.691" r="383.01"/>
<path d="M755.588,571.693c0,101.419-82.217,183.635-183.635,183.635c-101.419,0-183.635-82.216-183.635-183.635
	c0-101.418,82.216-183.634,183.635-183.634C673.371,388.059,755.588,470.275,755.588,571.693z M571.949,555.056
	c-9.188,0-16.635,7.448-16.635,16.636c0,9.187,7.447,16.635,16.635,16.635s16.635-7.448,16.635-16.635
	C588.584,562.504,581.137,555.056,571.949,555.056z"/>
</svg>
