<svg width="177" height="25" viewBox="0 0 177 25" xmlns="http://www.w3.org/2000/svg"><title>AVOS Cloud</title><path d="M11.402.382l-11.402 23.807h5.396l1.542-3.628h9.057l1.542 3.628h5.396l-11.403-23.807h-.128zm-2.923 16.391l2.987-7.002 2.987 7.002h-5.974zm26.562-15.977l-5.974 13.75-5.942-13.75h-5.396l11.273 23.744h.128l11.306-23.744h-5.395zm16.881-.414c-6.969 0-12.108 5.124-12.108 12.158 0 6.97 5.139 12.063 12.108 12.063 6.937 0 12.14-5.092 12.14-12.063 0-7.034-5.203-12.158-12.14-12.158zm0 19.797c-4.207 0-7.162-3.183-7.162-7.639 0-4.519 2.955-7.734 7.162-7.734s7.162 3.215 7.162 7.734c0 4.456-2.955 7.639-7.162 7.639zm23.206-10.153c-3.533-.668-4.432-1.337-4.432-2.673 0-1.719 1.285-2.546 3.372-2.546 2.505 0 4.304.891 5.749 2.037l2.537-4.01c-1.959-1.496-4.882-2.451-8.254-2.451-5.075 0-8.318 2.992-8.318 7.193 0 3.437 1.831 5.856 7.933 7.161 3.501.668 4.561 1.432 4.561 2.801 0 1.719-1.413 2.642-3.886 2.642-2.409 0-5.075-1.082-6.648-2.737l-2.666 4.042c2.345 2.005 5.556 3.119 9.153 3.119 5.556 0 8.929-3.024 8.929-7.511-.001-3.598-1.928-5.794-8.03-7.067zm29.13 10.153c-4.336 0-7.162-3.247-7.162-7.702 0-4.456 2.826-7.671 7.162-7.671 2.409 0 4.207 1.146 5.46 2.61l3.083-3.533c-2.28-2.323-4.818-3.501-8.543-3.501-7.098 0-12.108 5.188-12.108 12.095 0 6.938 5.01 12.126 12.108 12.126 3.437 0 6.231-1.018 8.575-3.565l-3.051-3.533c-1.252 1.496-3.083 2.674-5.524 2.674zm10.523 4.01h4.721v-24.189h-4.721v24.189zm15.966-16.455c-4.946 0-8.543 3.596-8.543 8.434 0 4.838 3.597 8.339 8.543 8.339s8.607-3.501 8.607-8.339c0-4.838-3.661-8.434-8.607-8.434zm0 12.7c-2.184 0-3.79-1.814-3.79-4.265 0-2.483 1.606-4.36 3.79-4.36 2.216 0 3.822 1.878 3.822 4.36-.001 2.45-1.606 4.265-3.822 4.265zm21.339-2.228c-.642.987-1.574 1.91-3.115 1.91-1.606 0-2.505-1.21-2.505-2.96v-9.104h-4.721v9.357c0 4.329 2.023 7.098 5.877 7.098 2.345 0 3.854-.891 4.721-2.069l.225 1.75h4.24v-16.136h-4.721v10.154h-.001zm19.261-18.206v9.516c-.771-.891-2.184-1.782-4.496-1.782-4.336 0-7.259 3.565-7.259 8.403 0 4.838 2.923 8.371 7.259 8.371 2.345 0 3.918-.955 4.753-2.101l.257 1.782h4.24v-24.189h-4.754zm0 18.428c-.707 1.146-1.702 2.005-3.34 2.005-2.152 0-3.661-1.655-3.661-4.297 0-2.674 1.51-4.329 3.661-4.329 1.638 0 2.634.891 3.34 2.037v4.584z" fill="#3090E4"/></svg>