<svg xmlns="http://www.w3.org/2000/svg" width="3073" height="285" viewBox="0 0 3073 285"><title>Corner Bracket Lover</title><path d="M389.575 150.804c0-56.101 42.586-95.684 102.607-95.684 16.291 0 33.726 3.417 45.73 8.258.286 17.086.571 27.623 1.429 40.438h-15.148c-3.716-18.226-14.863-30.186-37.728-30.186-31.439 0-48.302 29.332-48.302 73.188 0 40.438 16.005 73.756 48.017 73.756 22.007 0 38.013-10.821 40.871-29.616h15.148c-.857 14.809-1.715 29.901-1.715 40.153-14.577 5.126-39.442 8.828-59.735 8.828-57.734-.001-91.174-35.028-91.174-89.135zm165.653 16.801c0-43.57 29.725-73.756 74.025-73.756 45.159 0 72.597 26.769 72.597 71.763 0 43.855-30.296 74.041-74.597 74.041-45.731 0-72.025-26.199-72.025-72.048zm100.32.57c0-33.034-7.717-56.385-27.438-56.385-18.006 0-26.295 21.643-26.295 53.538 0 34.458 8.86 56.386 27.152 56.386 19.15-.001 26.581-21.644 26.581-53.539zm53.24 55.531l10.003-1.424c6.574-.854 10.003-3.702 10.003-21.073v-63.79c0-12.815-2.572-16.517-18.292-19.934v-11.675c19.436-3.702 43.729-7.974 62.021-13.384v25.914c7.431-13.384 21.436-24.206 38.299-24.206 4.287 0 11.146.854 14.005 1.708l-6.288 36.167c-4.287-2.848-12.29-4.841-18.863-4.841-7.717 0-19.149 1.709-27.152 8.259v65.783c0 17.087 3.144 20.789 10.289 21.643l13.147 1.14v12.245c-7.145-.285-34.012-.854-47.159-.854-13.719 0-32.868.569-40.014.854l.001-12.532zm123.465 0l10.003-1.424c6.574-.854 10.003-3.702 10.003-21.073v-63.79c0-12.815-2.572-16.517-18.292-19.934v-11.675c19.436-3.702 43.729-7.974 62.021-13.384v20.219c10.289-9.967 25.723-18.795 43.443-18.795 32.011 0 47.445 18.795 47.445 47.842v59.518c0 18.226 3.43 21.073 10.29 21.928l7.145.854v12.245c-7.145-.285-30.582-.854-41.443-.854-11.432 0-29.438.569-36.584.854v-12.53l6.574-1.139c5.716-1.14 10.003-3.987 10.003-21.358v-54.962c0-17.656-4.858-25.914-21.436-25.914-10.29 0-17.149 3.132-25.438 7.119v73.757c0 17.087 3.715 20.219 10.289 21.643l7.146 1.14v12.245c-7.146-.285-28.01-.854-41.157-.854-13.719 0-32.869.569-40.014.854v-12.532h.002zm175.539-54.107c0-47.272 32.011-75.75 72.311-75.75 42.3 0 58.02 26.769 58.02 56.385 0 3.702 0 8.259-.572 11.961h-84.029c-.286.854-.286 4.556-.286 5.126 0 26.769 16.863 44.709 42.586 44.709 15.434 0 25.151-2.848 34.297-7.404l1.429 10.537c-5.145 10.821-26.009 24.206-52.875 24.206-44.014 0-70.881-27.054-70.881-69.77zm84.315-23.352c4.288 0 6.288-2.848 6.288-6.549 0-14.239-5.145-27.623-19.721-27.623-14.862 0-22.579 15.377-24.294 34.172h37.727zm54.013 77.459l10.003-1.424c6.574-.854 10.003-3.702 10.003-21.073v-63.79c0-12.815-2.572-16.517-18.292-19.934v-11.675c19.436-3.702 43.729-7.974 62.021-13.384v25.914c7.431-13.384 21.436-24.206 38.299-24.206 4.287 0 11.146.854 14.005 1.708l-6.288 36.167c-4.287-2.848-12.29-4.841-18.863-4.841-7.717 0-19.149 1.709-27.152 8.259v65.783c0 17.087 3.144 20.789 10.289 21.643l13.147 1.14v12.245c-7.145-.285-34.012-.854-47.159-.854-13.719 0-32.868.569-40.014.854v-12.532h.001zm231.216 11.961c-9.718 0-32.869.284-40.014.569v-13.1l9.432-1.139c7.431-1.14 11.718-5.696 11.718-23.352v-102.233c0-17.656-4.287-22.212-11.718-23.067l-9.432-1.424v-13.384c7.145.285 28.867.569 39.728.569 16.292-.285 33.44-1.424 48.874-1.424 39.442 0 64.022 14.808 64.022 43.286 0 20.219-22.293 36.167-39.442 38.729v.854c22.865 2.278 46.301 19.08 46.301 41.862 0 33.888-27.438 54.677-71.167 54.677-14.005.001-32.868-1.423-48.302-1.423zm65.165-131.281c0-17.941-9.432-28.478-26.295-28.478-3.715 0-8.574 0-12.861.569v57.81c4.287.285 7.431.285 13.147.285 16.577 0 26.009-13.954 26.009-30.186zm6.288 79.452c0-19.08-10.003-31.041-29.725-31.041-5.716 0-11.146.285-15.72.854v52.684c0 8.543 3.716 12.53 18.006 12.53 20.008 0 27.439-15.378 27.439-35.027zm57.358 39.868l10.003-1.424c6.574-.854 10.003-3.702 10.003-21.073v-63.79c0-12.815-2.572-16.517-18.292-19.934v-11.675c19.436-3.702 43.729-7.974 62.021-13.384v25.914c7.431-13.384 21.436-24.206 38.299-24.206 4.287 0 11.146.854 14.005 1.708l-6.288 36.167c-4.287-2.848-12.29-4.841-18.863-4.841-7.717 0-19.149 1.709-27.152 8.259v65.783c0 17.087 3.144 20.789 10.289 21.643l13.147 1.14v12.245c-7.146-.285-34.012-.854-47.159-.854-13.719 0-32.868.569-40.014.854v-12.532h.001zm114.578-20.219c0-28.763 26.295-44.994 66.309-44.994 2.857 0 7.717 0 10.289.284v-12.53c0-19.364-8.289-27.908-28.581-27.908-11.719 0-24.009 2.563-32.583 7.12l-2.286-12.245c9.146-9.683 30.01-19.365 51.731-19.365 36.584 0 56.02 17.371 56.02 46.133 0 21.928-1.144 40.438-1.144 61.227 0 15.093 5.717 18.226 19.436 18.226v10.821c-7.146 5.695-18.578 9.397-31.726 9.397-19.435 0-26.866-8.828-28.866-20.788h-.572c-6.573 11.96-20.007 20.504-39.156 20.504-22.58 0-38.871-15.378-38.871-35.882zm76.311 1.709c0-7.974 0-21.644.286-29.617-1.715-.284-4.859-.284-6.574-.284-17.148 0-28.866 7.974-28.866 21.928 0 9.967 6.859 16.517 16.291 16.517 8.288-.001 15.147-3.418 18.863-8.544zm66.275-33.888c0-46.988 33.727-77.458 79.171-77.458 6.859 0 13.719.854 20.007 1.993-5.145-5.126-9.718-13.1-9.718-23.636 0-22.497 23.723-28.762 45.444-30.756 21.722-1.708 50.303-3.417 60.021-7.974v167.732c0 17.087 3.43 20.219 10.289 21.643l8.003 1.14v12.245c-7.146-.285-27.152-.854-40.3-.854-13.719 0-31.153.569-38.299.854v-12.53l6.573-.854c6.574-.854 10.004-4.271 10.004-21.643v-126.441c0-11.676-7.146-16.802-20.864-16.802-18.006 0-26.581 5.695-26.581 16.517 0 9.397 5.717 19.08 14.005 26.484-1.143 13.1-1.143 22.497-.857 37.021h-14.576c-1.144-17.372-9.718-25.915-25.151-25.915-17.148 0-32.011 16.517-32.011 52.114 0 31.325 17.72 47.842 43.157 47.842 13.719 0 22.865-2.562 31.726-7.404l1.429 9.397c-4.858 12.246-24.865 25.63-52.018 25.63-43.445 0-69.454-26.768-69.454-68.345zm233.223 47.557c-9.432-11.961-17.149-26.199-34.869-55.246l29.152-35.028c3.716-4.271 6.859-8.828 6.859-13.1 0-3.132-3.43-5.695-12.289-5.695v-12.53c7.145.285 23.722.57 34.297.57 9.146 0 24.009-.285 31.153-.57v12.246c-15.147.569-28.295 7.974-38.013 19.649l-15.148 17.656c16.006 24.775 30.582 45.279 40.872 56.955 7.145 7.974 16.005 19.079 24.865 19.934l.571 11.961c-4.287 2.848-16.005 3.986-23.722 3.986-18.005 0-32.581-6.549-43.728-20.788zm66.413-49.266c0-47.272 32.012-75.75 72.311-75.75 42.301 0 58.021 26.769 58.021 56.385 0 3.702 0 8.259-.571 11.961h-84.029c-.286.854-.286 4.556-.286 5.126 0 26.769 16.863 44.709 42.586 44.709 15.435 0 25.152-2.848 34.298-7.404l1.429 10.537c-5.145 10.821-26.009 24.206-52.875 24.206-44.017 0-70.884-27.054-70.884-69.77zm84.316-23.352c4.287 0 6.287-2.848 6.287-6.549 0-14.239-5.145-27.623-19.721-27.623-14.862 0-22.579 15.377-24.294 34.172h37.728zm69.275 55.816v-86.002h-17.435v-14.809c22.293-5.411 40.014-25.345 45.444-41.292h16.006v37.305h39.441v18.795h-39.441v78.028c0 15.947 5.43 21.358 20.578 21.358 6.573 0 14.005-1.14 18.292-2.278l.857 10.536c-7.432 9.113-26.009 15.947-44.587 15.947-28.58.002-39.155-13.667-39.155-37.588zm246.652 33.888c-3.716 0-39.442-.284-44.016-.284-9.718 0-33.726.284-40.585.569v-13.1l9.432-1.139c7.431-1.14 11.719-5.696 11.719-23.352v-102.233c0-17.656-4.288-22.212-11.719-23.067l-9.432-1.424v-13.384c7.146.285 32.297.854 44.015.854 11.146 0 36.87-.569 44.016-.854v13.384l-10.289 1.424c-7.718.854-11.719 5.411-11.719 23.067v109.638c0 7.689 2.858 11.676 15.148 11.676h23.15c10.575 0 13.719-3.702 16.006-10.821l4.858-14.523h14.576c-2.286 14.809-4.287 35.027-4.572 44.425-10.574-.571-41.442-.856-50.588-.856zm64.16-68.346c0-43.57 29.725-73.756 74.025-73.756 45.158 0 72.597 26.769 72.597 71.763 0 43.855-30.296 74.041-74.598 74.041-45.729 0-72.024-26.199-72.024-72.048zm100.32.57c0-33.034-7.717-56.385-27.438-56.385-18.006 0-26.294 21.643-26.294 53.538 0 34.458 8.859 56.386 27.151 56.386 19.149-.001 26.581-21.644 26.581-53.539zm61.643-39.299c-3.43-9.113-8.003-18.511-17.148-19.08v-12.53c7.431.285 22.579.854 34.869.854 12.576 0 33.726-.57 41.442-.854v12.53l-6.859.569c-5.43.285-8.288 3.417-8.288 8.259 0 3.417 2 9.397 4.001 14.808l21.437 58.948 21.722-58.664c1.715-4.556 4.001-11.676 4.001-15.093 0-5.126-3.716-7.974-8.86-8.543l-6.573-.285v-12.53c7.146.285 17.148.854 28.01.854 10.289 0 17.148-.57 24.294-.854v12.53c-11.719.569-15.72 7.404-21.722 22.212l-41.729 104.797h-26.581l-42.016-107.928zm128.326 40.723c0-47.272 32.012-75.75 72.311-75.75 42.301 0 58.021 26.769 58.021 56.385 0 3.702 0 8.259-.571 11.961h-84.029c-.286.854-.286 4.556-.286 5.126 0 26.769 16.863 44.709 42.586 44.709 15.435 0 25.152-2.848 34.298-7.404l1.429 10.537c-5.145 10.821-26.009 24.206-52.875 24.206-44.017 0-70.884-27.054-70.884-69.77zm84.315-23.352c4.287 0 6.287-2.848 6.287-6.549 0-14.239-5.145-27.623-19.721-27.623-14.862 0-22.579 15.377-24.294 34.172h37.728zm54.013 77.459l10.004-1.424c6.573-.854 10.003-3.702 10.003-21.073v-63.79c0-12.815-2.572-16.517-18.292-19.934v-11.675c19.436-3.702 43.729-7.974 62.021-13.384v25.914c7.431-13.384 21.436-24.206 38.299-24.206 4.287 0 11.146.854 14.005 1.708l-6.288 36.167c-4.287-2.848-12.29-4.841-18.863-4.841-7.717 0-19.149 1.709-27.152 8.259v65.783c0 17.087 3.144 20.789 10.289 21.643l13.147 1.14v12.245c-7.146-.285-34.012-.854-47.159-.854-13.719 0-32.868.569-40.014.854v-12.532z" fill="#CABCE5"/><path d="M.896 271.375v-271.216h153.392v55.884h-92.343v215.333l-61.049-.001zm314.986-257.231v271.215h-153.392v-55.883h92.343v-215.332h61.049z" fill="#A48CD3"/></svg>