<svg xmlns="http://www.w3.org/2000/svg" width="337.409" height="83.998" viewBox="0 0 337.409 83.998"><title>IterCast</title><path fill="#fff" d="M78.905 29.698l-24.603-24.602c-6.794-6.794-17.809-6.794-24.603 0l-24.603 24.602c-6.794 6.794-6.794 17.808 0 24.602l24.603 24.603c6.794 6.794 17.809 6.794 24.603 0l24.603-24.603c6.793-6.794 6.793-17.808 0-24.602zm-41.915-.584c-1.327.044-2.225.143-2.695.295-.47.153-.846.391-1.129.712s-.167 1.323-.167 1.878v5c0 1.65-.679 3.287-1.521 4.17-.843.884-2.211 1.457-4.104 1.719v.264c1.908.292 3.28.868 4.115 1.729.834.861 1.51 2.541 1.51 4.118v5c0 .569-.101 1.598.212 1.919s.731.559 1.252.712c.521.153 1.364.251 2.527.295v6.088c-2.937 0-5.226-.233-6.865-.7-1.641-.468-2.822-1.208-3.545-2.223s-.581-2.032-.581-4.091v-6c0-1.168-1.003-2.03-2.002-2.688-.999-.657-2.333-.985-4.003-.985v-6.591c1.714 0 3.06-.325 4.037-.975.977-.649 1.968-1.579 1.968-2.761v-6c0-2.029-.138-3.097.592-4.104.73-1.007 1.919-1.741 3.567-2.201 1.647-.46 3.925-.69 6.832-.69v6.11zm27.023 17.212c-1.658 0-2.988.328-3.988.985-1.001.657-2.025 1.52-2.025 2.688v6c0 2.044.158 3.058-.573 4.08-.731 1.021-1.919 1.766-3.562 2.233-1.643.467-3.929.7-6.856.7v-6.088c1.613-.059 2.727-.273 3.339-.645s.653-1.522.653-2.28v-5c0-1.577.684-3.257 1.52-4.118.837-.861 2.211-1.438 4.123-1.729v-.264c-1.897-.262-3.268-.835-4.111-1.719-.844-.883-1.531-2.52-1.531-4.17v-5c0-.569.119-1.575-.172-1.889s-.664-.548-1.12-.701c-.456-.153-1.355-.252-2.7-.295v-6.11c2.928 0 5.213.23 6.856.69 1.644.46 2.831 1.193 3.562 2.201.732 1.007.573 2.075.573 4.104v6c0 1.183 1.01 2.112 1.98 2.761.971.65 2.315.975 4.033.975l-.001 6.591z"/><path fill="#AA2800" d="M106.796 18.13c-3.24 0-5.904 2.736-5.904 5.904 0 3.24 2.664 5.905 5.904 5.905 3.169 0 5.904-2.665 5.904-5.905 0-3.167-2.735-5.904-5.904-5.904zm0 13.178c-3.312 0-5.904 2.16-5.904 6.913v22.538c0 4.753 2.592 6.841 5.904 6.841 3.24 0 5.833-2.088 5.833-6.841v-22.539c0-4.752-2.593-6.912-5.833-6.912zm25.514 0h-1.439v-2.809c0-4.752-2.592-6.84-5.761-6.84-3.384 0-5.976 2.088-5.976 6.84v32.259c0 4.753 2.592 6.841 5.976 6.841 3.169 0 5.761-2.088 5.761-6.841v-18.65h1.439c4.321 0 6.266-2.376 6.266-5.473-.001-2.951-1.945-5.327-6.266-5.327zm25.847-.576c-10.297 0-18.577 8.208-18.577 18.434 0 10.369 8.28 18.722 18.577 18.722 4.537 0 8.93-.576 12.529-3.961 1.225-1.151 1.944-2.664 1.944-4.392 0-2.665-1.585-4.32-4.464-4.32-.361 0-.721 0-1.009.071-2.88.36-3.24 2.232-8.497 2.232-3.888 0-6.624-2.736-6.624-4.176h18.434c3.168 0 5.832-2.449 5.832-5.617v-.576c-.935-9.289-8.568-16.417-18.145-16.417zm6.194 14.689h-12.529v-.072c0-.72 2.304-3.6 6.192-3.6s6.337 2.088 6.337 3.6v.072zm34.198-14.689c-2.952 0-5.041 1.008-7.489 3.024-.863-1.729-2.448-3.024-4.608-3.024-3.312 0-5.977 2.016-5.977 6.553v23.474c.145 5.041 2.52 6.841 6.049 6.841 3.024 0 5.688-2.376 5.688-6.913v-12.386c0-3.672 1.296-5.616 3.601-5.833 1.728-.144 2.736.433 4.393.433 2.88 0 5.04-2.808 5.04-5.76-.001-3.313-2.665-6.409-6.697-6.409zm38.642 19.081c-.433-.072-.937-.072-1.296-.072-2.665 0-3.961 1.512-4.753 2.592-1.8 2.448-3.601 3.816-6.192 3.816-3.744 0-6.768-3.097-6.768-6.912 0-3.745 3.024-6.77 6.768-6.77 2.952 0 4.465 1.297 5.761 2.521 1.151 1.08 2.232 2.017 4.176 2.305.288.072.648.072.936.072 3.024 0 5.256-1.944 5.256-5.041 0-1.584-.504-2.736-.935-3.456-3.024-4.464-9.001-8.137-15.266-8.137-10.368 0-18.649 8.281-18.649 18.506 0 10.368 8.281 18.649 18.649 18.649 7.201 0 13.321-4.177 16.489-10.297.288-.649.433-1.441.433-2.233 0-2.807-1.441-4.967-4.609-5.543zm39.232-18.866h-.575c-1.728 0-3.169.576-4.249 1.8-2.592-1.296-5.473-2.016-8.568-2.016-10.153 0-18.506 8.352-18.506 18.577 0 10.226 8.352 18.578 18.506 18.578 3.024 0 6.049-.648 8.568-1.944 1.08 1.152 2.593 1.729 4.249 1.729h.432c3.744 0 5.4-3.457 5.4-6.841v-22.97c0-3.24-1.296-6.552-5.257-6.913zm-13.393 25.347c-3.816 0-6.841-3.024-6.841-6.985 0-3.96 3.024-6.984 6.841-6.984 3.96 0 6.912 3.024 6.912 6.984 0 3.961-2.952 6.985-6.912 6.985zm42.149-10.73l-4.177-2.16c-1.512-.792-2.304-1.512-2.304-2.088 0-.504.504-1.152 1.439-1.152 2.16 0 3.889 3.384 7.705 3.384 2.809 0 4.393-1.728 4.393-5.112 0-3.024-3.745-7.705-12.098-7.705s-13.177 5.544-13.177 11.665c0 4.752 2.521 7.849 8.641 10.801l2.376 1.152c2.377 1.152 3.24 2.16 3.24 2.736 0 .647-.576 1.151-1.439 1.151-3.097 0-4.969-3.672-8.642-3.672-3.096 0-4.752 2.233-4.752 4.752 0 4.249 4.608 8.569 13.033 8.569 8.568 0 13.249-6.049 13.249-11.737.001-3.886-1.799-7.631-7.487-10.584zm25.966-14.256h-1.44v-2.809c0-4.752-2.592-6.84-5.76-6.84-3.385 0-5.977 2.088-5.977 6.84v32.259c0 4.753 2.592 6.841 5.977 6.841 3.168 0 5.76-2.088 5.76-6.841v-18.65h1.44c4.32 0 6.265-2.376 6.265-5.473-.001-2.951-1.945-5.327-6.265-5.327z"/></svg>