<svg xmlns="http://www.w3.org/2000/svg" width="2458" height="223" viewBox="0 0 2458 223"><title>Quotmarks Replacer</title><g><path d="M713.983 174.005c-10.708 0-19.963-1.854-27.762-5.553-7.802-3.699-14.212-8.824-19.235-15.368-5.025-6.544-8.759-14.277-11.204-23.2-2.448-8.924-3.668-18.671-3.668-29.25 0-10.575 1.221-20.39 3.668-29.447 2.445-9.054 6.179-16.887 11.204-23.499 5.023-6.609 11.434-11.765 19.235-15.467 7.799-3.699 17.054-5.552 27.762-5.552 10.708 0 19.96 1.853 27.762 5.552 7.799 3.703 14.209 8.858 19.235 15.467 5.022 6.612 8.756 14.445 11.204 23.499 2.445 9.057 3.668 18.872 3.668 29.447 0 10.578-1.224 20.326-3.668 29.25-2.448 8.923-6.182 16.656-11.204 23.2-5.026 6.544-11.437 11.669-19.235 15.368-7.801 3.699-17.053 5.553-27.762 5.553zm0-24.193c20.49 0 30.737-16.391 30.737-49.178 0-16.39-2.479-28.685-7.436-36.883-4.958-8.195-12.661-12.294-23.103-12.294-20.756 0-31.133 16.394-31.133 49.178 0 32.787 10.312 49.177 30.935 49.177zm65.44 32.917c-.266 3.833-.728 7.765-1.388 11.799-.663 4.031-1.72 7.833-3.173 11.402l-49.179-7.932c.397-2.776.725-5.125.992-7.04.263-1.918.595-3.702.992-5.354.396-1.654.858-3.306 1.388-4.957.527-1.654 1.122-3.47 1.785-5.453l48.583 7.535zM796.08 69.105c4.759-.793 9.451-1.189 14.08-1.189 4.626 0 9.32.396 14.08 1.189v54.333c0 5.423.427 9.884 1.289 13.386.858 3.504 2.181 6.28 3.966 8.328 1.785 2.051 3.997 3.504 6.643 4.362 2.643.861 5.751 1.289 9.32 1.289 4.889 0 8.988-.462 12.294-1.388v-80.31c4.759-.793 9.385-1.189 13.881-1.189 4.626 0 9.32.396 14.079 1.189v98.554c-4.232 1.456-9.816 2.875-16.756 4.264-6.94 1.388-14.179 2.082-21.714 2.082-6.742 0-13.221-.53-19.434-1.587-6.215-1.057-11.669-3.303-16.36-6.742-4.694-3.436-8.428-8.458-11.204-15.07-2.776-6.609-4.165-15.399-4.165-26.374v-55.127zM952.736 174.005c-8.329 0-15.566-1.357-21.714-4.065s-11.238-6.476-15.27-11.303c-4.034-4.824-7.074-10.476-9.122-16.955-2.051-6.476-3.074-13.483-3.074-21.02 0-7.535 1.022-14.605 3.074-21.217 2.048-6.609 5.087-12.326 9.122-17.153 4.031-4.824 9.122-8.626 15.27-11.402 6.147-2.776 13.385-4.164 21.714-4.164s15.598 1.388 21.813 4.164c6.212 2.776 11.368 6.578 15.467 11.402 4.096 4.827 7.139 10.544 9.122 17.153 1.983 6.612 2.975 13.682 2.975 21.217 0 7.536-.992 14.544-2.975 21.02-1.983 6.479-5.026 12.131-9.122 16.955-4.099 4.827-9.255 8.595-15.467 11.303-6.215 2.707-13.484 4.065-21.813 4.065zm0-21.416c7.402 0 12.722-2.742 15.963-8.229 3.238-5.484 4.858-13.386 4.858-23.697s-1.621-18.209-4.858-23.696c-3.241-5.484-8.561-8.229-15.963-8.229-7.272 0-12.527 2.745-15.765 8.229-3.241 5.487-4.858 13.385-4.858 23.696 0 10.312 1.617 18.213 4.858 23.697 3.238 5.487 8.493 8.229 15.765 8.229zM1025.114 90.521h-12.89l-.991-3.966 37.082-47.393h4.561v29.943h23.995c.396 1.983.66 3.768.793 5.354.13 1.586.198 3.241.198 4.958 0 1.853-.068 3.638-.198 5.354-.133 1.72-.397 3.638-.793 5.751h-23.995v40.254c0 4.1.329 7.405.992 9.915.66 2.513 1.617 4.496 2.875 5.949 1.255 1.456 2.807 2.447 4.66 2.975 1.85.529 4.031.793 6.544.793 1.983 0 3.932-.164 5.85-.496 1.915-.328 3.601-.626 5.057-.892.923 2.513 1.586 5.124 1.983 7.832.397 2.711.595 5.125.595 7.238 0 1.456-.034 2.677-.099 3.668-.068.992-.167 1.952-.297 2.876-6.083 1.453-12.363 2.181-18.839 2.181-12.031 0-21.218-2.807-27.564-8.428-6.346-5.617-9.519-14.772-9.519-27.464v-46.402zM1096.304 69.105c1.85-.396 3.699-.694 5.552-.892 1.85-.198 3.898-.297 6.147-.297 2.246 0 4.229.099 5.949.297 1.717.198 3.501.496 5.354.892.396.663.759 1.621 1.09 2.875.329 1.258.626 2.578.893 3.966.263 1.388.496 2.745.694 4.065.198 1.323.363 2.448.496 3.371 1.056-1.983 2.444-3.966 4.164-5.949 1.717-1.983 3.768-3.768 6.147-5.354 2.379-1.586 5.057-2.875 8.031-3.867 2.975-.992 6.312-1.487 10.014-1.487 15.994 0 26.241 6.082 30.737 18.243 2.643-4.889 6.376-9.152 11.204-12.79 4.824-3.634 10.938-5.453 18.343-5.453 11.632 0 20.192 3.207 25.681 9.617 5.484 6.414 8.229 16.428 8.229 30.042v65.24c-4.76.793-9.453 1.189-14.078 1.189-4.63 0-9.321-.396-14.08-1.189v-57.903c0-7.138-.893-12.623-2.677-16.458-1.785-3.833-5.388-5.75-10.808-5.75-2.25 0-4.461.332-6.643.992-2.181.663-4.164 1.884-5.949 3.668-1.785 1.785-3.241 4.297-4.363 7.535-1.125 3.241-1.686 7.436-1.686 12.592v55.325c-4.759.793-9.454 1.189-14.08 1.189-4.629 0-9.32-.396-14.079-1.189v-57.903c0-7.138-.893-12.623-2.677-16.458-1.785-3.833-5.388-5.75-10.808-5.75-2.25 0-4.496.332-6.742.992-2.25.663-4.263 1.952-6.048 3.867-1.785 1.918-3.207 4.595-4.263 8.031-1.06 3.439-1.586 7.932-1.586 13.484v53.738c-4.759.793-9.454 1.189-14.08 1.189-4.629 0-9.32-.396-14.079-1.189v-102.521zM1319.789 104.204c0-3.172-.53-5.75-1.587-7.733-1.06-1.983-2.513-3.535-4.362-4.66-1.853-1.122-4.133-1.884-6.841-2.28-2.712-.396-5.72-.595-9.023-.595-7.139 0-14.742 1.388-22.805 4.164-1.853-3.436-3.241-6.674-4.164-9.716-.927-3.04-1.388-6.674-1.388-10.907 5.815-1.983 11.631-3.436 17.45-4.362 5.815-.923 11.235-1.388 16.261-1.388 13.748 0 24.49 3.306 32.224 9.915 7.734 6.612 11.601 17.187 11.601 31.728v59.489c-4.629 1.456-10.246 2.845-16.855 4.164-6.612 1.32-14.079 1.983-22.408 1.983-6.742 0-12.924-.595-18.541-1.785-5.62-1.189-10.444-3.173-14.476-5.949-4.034-2.775-7.14-6.345-9.32-10.708-2.182-4.362-3.272-9.716-3.272-16.062s1.354-11.666 4.065-15.963c2.708-4.295 6.213-7.733 10.51-10.312 4.295-2.578 9.088-4.428 14.377-5.553 5.286-1.122 10.575-1.686 15.864-1.686 3.833 0 8.062.199 12.691.595v-2.379zm0 20.425c-1.587-.264-3.306-.496-5.156-.694-1.853-.198-3.504-.298-4.957-.298-6.479 0-11.601 1.159-15.368 3.471-3.769 2.314-5.652 6.048-5.652 11.203 0 3.439.726 6.083 2.182 7.933 1.453 1.853 3.204 3.207 5.255 4.064 2.048.861 4.229 1.389 6.544 1.587 2.312.198 4.329.297 6.049.297 1.982 0 3.966-.164 5.948-.495 1.983-.329 3.7-.626 5.156-.893v-26.175zM1370.155 69.105c1.983-.396 3.867-.694 5.652-.892 1.784-.198 3.733-.297 5.85-.297 1.982 0 3.932.133 5.85.396 1.915.267 3.799.595 5.651.991.396.663.76 1.621 1.091 2.875.328 1.258.626 2.578.893 3.966.264 1.388.496 2.776.694 4.165l.495 3.47c2.906-4.096 6.477-7.765 10.709-11.006 4.229-3.238 9.519-4.858 15.863-4.858 1.32 0 2.842.068 4.562.198 1.717.133 2.975.332 3.768.595.264 1.323.462 2.844.595 4.561.13 1.72.198 3.504.198 5.354 0 2.25-.099 4.694-.297 7.337-.198 2.646-.564 5.156-1.091 7.535-1.456-.263-3.074-.396-4.858-.396h-3.272c-2.249 0-4.759.232-7.535.694-2.776.465-5.422 1.686-7.932 3.669-2.514 1.983-4.596 4.957-6.247 8.923-1.654 3.966-2.479 9.518-2.479 16.657v48.781c-2.38.396-4.76.66-7.139.793-2.38.131-4.694.198-6.94.198-2.25 0-4.53-.067-6.842-.198-2.314-.133-4.729-.396-7.238-.793v-102.718zM1450.069 26.669c4.492-.793 9.122-1.19 13.881-1.19s9.45.397 14.079 1.19v144.956c-4.629.793-9.32 1.189-14.079 1.189s-9.389-.396-13.881-1.189v-144.956zm31.927 91.218l25.382-48.782c5.156-.793 10.377-1.189 15.666-1.189 5.022 0 9.915.396 14.675 1.189l-26.176 47.393 30.538 55.127c-5.422.793-10.644 1.189-15.666 1.189-4.629 0-9.519-.396-14.674-1.189l-29.745-53.738zM1575.79 127.008c-7.405-2.113-13.187-5.255-17.351-9.419-4.165-4.164-6.247-10.411-6.247-18.739 0-10.045 3.601-17.912 10.808-23.597 7.204-5.683 17.02-8.527 29.447-8.527 5.156 0 10.244.465 15.27 1.388 5.022.926 10.113 2.314 15.27 4.164-.267 3.439-.927 7.009-1.983 10.708-1.06 3.703-2.314 6.94-3.768 9.717-3.173-1.32-6.677-2.479-10.51-3.47-3.836-.992-7.867-1.487-12.097-1.487-4.496 0-8 .694-10.51 2.082-2.513 1.388-3.768 3.604-3.768 6.643 0 2.909.893 4.958 2.677 6.147 1.785 1.189 4.329 2.314 7.635 3.371l11.303 3.371c3.7 1.06 7.04 2.349 10.015 3.867 2.975 1.521 5.519 3.405 7.635 5.651 2.113 2.249 3.768 5.025 4.957 8.328 1.19 3.307 1.785 7.337 1.785 12.097 0 4.893-1.025 9.453-3.074 13.683-2.051 4.232-5.025 7.9-8.923 11.005-3.901 3.108-8.626 5.553-14.179 7.337-5.553 1.785-11.833 2.678-18.839 2.678-3.173 0-6.082-.1-8.726-.298-2.646-.198-5.189-.529-7.634-.991-2.448-.465-4.858-1.025-7.238-1.686s-4.958-1.519-7.734-2.578c.264-3.569.893-7.17 1.885-10.807.991-3.635 2.28-7.17 3.866-10.609 4.363 1.72 8.493 3.009 12.395 3.867 3.897.861 7.963 1.288 12.195 1.288 1.85 0 3.866-.164 6.048-.495 2.182-.329 4.195-.924 6.048-1.785 1.851-.858 3.402-1.982 4.66-3.371 1.255-1.388 1.884-3.203 1.884-5.453 0-3.173-.96-5.453-2.875-6.841-1.918-1.389-4.595-2.609-8.031-3.669l-12.296-3.57zM1688.223 29.049c5.815-.66 11.269-1.221 16.359-1.686 5.088-.461 10.739-.694 16.955-.694 7.269 0 14.441.663 21.516 1.983 7.07 1.323 13.45 3.668 19.136 7.04 5.683 3.371 10.278 7.932 13.782 13.683 3.501 5.75 5.255 13.057 5.255 21.912 0 5.289-.663 9.949-1.982 13.98-1.323 4.034-3.009 7.569-5.057 10.609-2.052 3.042-4.264 5.651-6.644 7.833s-4.629 3.935-6.742 5.255l-3.371 2.181 34.703 60.283c-2.646.264-5.423.526-8.329.793-2.909.264-5.884.396-8.924.396-5.025 0-9.983-.396-14.872-1.189l-37.281-66.231 4.76-2.379c1.85-.923 4.096-2.113 6.742-3.569 2.643-1.453 5.187-3.272 7.635-5.454 2.444-2.181 4.526-4.824 6.246-7.932 1.717-3.104 2.578-6.773 2.578-11.005 0-8.329-2.38-14.442-7.139-18.343-4.76-3.898-10.907-5.85-18.442-5.85-2.909 0-5.553.198-7.932.595v120.367c-2.38.264-4.76.496-7.14.694-2.379.198-4.693.297-6.94.297-2.249 0-4.629-.068-7.139-.198-2.513-.133-5.091-.396-7.733-.793v-142.578zM1824.454 128.991c.527 7.932 3.303 13.683 8.329 17.252 5.022 3.569 11.631 5.354 19.83 5.354 4.492 0 9.088-.428 13.782-1.289 4.69-.857 9.152-2.082 13.385-3.668 1.453 2.646 2.708 5.818 3.768 9.519 1.057 3.702 1.651 7.668 1.785 11.897-10.312 3.966-21.946 5.949-34.901 5.949-9.519 0-17.683-1.323-24.49-3.966-6.811-2.644-12.362-6.312-16.657-11.006-4.298-4.691-7.471-10.277-9.519-16.756-2.051-6.476-3.073-13.55-3.073-21.218 0-7.536 1.057-14.606 3.173-21.218 2.112-6.609 5.255-12.359 9.419-17.252 4.164-4.889 9.32-8.756 15.468-11.601 6.147-2.841 13.317-4.263 21.516-4.263 7.139 0 13.484 1.258 19.037 3.768 5.552 2.513 10.277 5.949 14.179 10.312 3.897 4.363 6.841 9.552 8.824 15.566 1.982 6.017 2.975 12.462 2.975 19.334 0 2.513-.1 4.991-.298 7.437-.198 2.447-.431 4.396-.694 5.85h-65.838zm40.256-19.632c-.267-6.345-2.018-11.467-5.256-15.368-3.24-3.898-7.768-5.85-13.583-5.85-6.612 0-11.635 1.853-15.071 5.552-3.439 3.703-5.487 8.924-6.147 15.666h40.057zM1910.913 68.907c1.85-.396 3.669-.66 5.453-.793 1.785-.13 3.799-.198 6.049-.198 3.699 0 7.467.396 11.303 1.189.396.663.759 1.621 1.091 2.875.328 1.258.66 2.612.991 4.065.329 1.457.595 2.875.793 4.264l.496 3.47c1.189-2.113 2.644-4.195 4.362-6.247 1.717-2.048 3.799-3.867 6.247-5.453 2.444-1.586 5.187-2.875 8.229-3.867 3.039-.992 6.41-1.487 10.113-1.487 5.683 0 11.006 1.06 15.963 3.173 4.958 2.116 9.286 5.323 12.989 9.617 3.699 4.298 6.575 9.686 8.626 16.162 2.048 6.479 3.074 14.147 3.074 23.002 0 8.595-1.259 16.294-3.769 23.102-2.513 6.811-6.147 12.592-10.906 17.351-4.759 4.76-10.578 8.428-17.45 11.006-6.876 2.578-14.675 3.867-23.4 3.867-2.249 0-4.461-.1-6.643-.298s-4-.431-5.453-.694v45.608c-2.513.397-4.927.66-7.238.794-2.314.13-4.595.198-6.842.198-2.249 0-4.529-.068-6.841-.198-2.314-.134-4.729-.396-7.238-.794v-149.714zm28.159 80.905c3.569 1.06 7.665 1.586 12.295 1.586 8.195 0 14.476-2.643 18.838-7.932 4.363-5.286 6.544-13.286 6.544-23.994 0-4.096-.331-7.898-.991-11.402-.663-3.501-1.785-6.51-3.371-9.023-1.587-2.509-3.604-4.493-6.048-5.949-2.448-1.453-5.454-2.181-9.023-2.181-3.306 0-6.116.629-8.428 1.884-2.314 1.258-4.198 2.975-5.651 5.156-1.456 2.181-2.513 4.728-3.173 7.634-.663 2.91-.991 6.017-.991 9.32v34.901zM2025.926 26.669c4.759-.793 9.45-1.19 14.079-1.19 4.493 0 9.122.397 13.882 1.19v104.106c0 4.1.229 7.405.693 9.915.462 2.513 1.19 4.462 2.182 5.85.991 1.389 2.28 2.349 3.867 2.876 1.586.529 3.569.793 5.949.793 1.056 0 2.212-.065 3.47-.198 1.255-.13 2.479-.328 3.669-.595 1.453 5.422 2.181 10.708 2.181 15.863v2.876c0 .861-.133 1.818-.396 2.875-2.116.66-4.66 1.121-7.635 1.388-2.975.264-5.72.396-8.229.396-10.182 0-18.343-2.807-24.49-8.428-6.147-5.617-9.221-14.772-9.221-27.464v-110.253zM2144.111 104.204c0-3.172-.53-5.75-1.587-7.733-1.06-1.983-2.513-3.535-4.362-4.66-1.853-1.122-4.133-1.884-6.841-2.28-2.712-.396-5.72-.595-9.023-.595-7.139 0-14.742 1.388-22.805 4.164-1.853-3.436-3.241-6.674-4.164-9.716-.927-3.04-1.388-6.674-1.388-10.907 5.815-1.983 11.631-3.436 17.45-4.362 5.815-.923 11.235-1.388 16.261-1.388 13.748 0 24.49 3.306 32.224 9.915 7.734 6.612 11.601 17.187 11.601 31.728v59.489c-4.629 1.456-10.246 2.845-16.855 4.164-6.612 1.32-14.079 1.983-22.408 1.983-6.742 0-12.924-.595-18.541-1.785-5.62-1.189-10.444-3.173-14.476-5.949-4.034-2.775-7.14-6.345-9.32-10.708-2.182-4.362-3.272-9.716-3.272-16.062s1.354-11.666 4.065-15.963c2.708-4.295 6.213-7.733 10.51-10.312 4.295-2.578 9.088-4.428 14.377-5.553 5.286-1.122 10.575-1.686 15.864-1.686 3.833 0 8.062.199 12.691.595v-2.379zm0 20.425c-1.587-.264-3.306-.496-5.156-.694-1.853-.198-3.504-.298-4.957-.298-6.479 0-11.601 1.159-15.368 3.471-3.769 2.314-5.652 6.048-5.652 11.203 0 3.439.726 6.083 2.182 7.933 1.453 1.853 3.204 3.207 5.255 4.064 2.048.861 4.229 1.389 6.544 1.587 2.312.198 4.329.297 6.049.297 1.982 0 3.966-.164 5.948-.495 1.983-.329 3.7-.626 5.156-.893v-26.175zM2263.288 147.433c1.587 2.646 2.907 5.72 3.967 9.221 1.057 3.505 1.586 7.635 1.586 12.394-5.289 2.116-10.246 3.471-14.872 4.065-4.63.595-9.454.893-14.477.893-8.595 0-16.062-1.357-22.408-4.065s-11.601-6.444-15.765-11.204c-4.164-4.759-7.307-10.41-9.42-16.954-2.116-6.544-3.173-13.648-3.173-21.317 0-7.535 1.023-14.541 3.074-21.019 2.048-6.476 5.156-12.161 9.32-17.054 4.164-4.889 9.351-8.725 15.566-11.501 6.213-2.776 13.416-4.164 21.615-4.164 2.906 0 5.583.068 8.031.198 2.444.133 4.79.396 7.039.793 2.247.396 4.493.926 6.742 1.586 2.247.663 4.76 1.521 7.536 2.578 0 3.042-.396 6.445-1.19 10.212-.793 3.768-2.051 7.371-3.768 10.807-3.966-1.32-7.437-2.212-10.41-2.677-2.975-.461-6.38-.694-10.213-.694-8.198 0-14.377 2.677-18.541 8.031-4.165 5.354-6.247 12.988-6.247 22.903 0 10.708 2.247 18.51 6.742 23.399 4.493 4.893 10.575 7.337 18.244 7.337 1.983 0 3.799-.031 5.453-.099 1.651-.065 3.272-.229 4.858-.496 1.587-.264 3.204-.66 4.858-1.189 1.655-.528 3.604-1.191 5.853-1.984zM2309.094 128.991c.527 7.932 3.303 13.683 8.329 17.252 5.022 3.569 11.631 5.354 19.83 5.354 4.492 0 9.088-.428 13.782-1.289 4.69-.857 9.152-2.082 13.385-3.668 1.453 2.646 2.708 5.818 3.768 9.519 1.057 3.702 1.651 7.668 1.785 11.897-10.312 3.966-21.946 5.949-34.901 5.949-9.519 0-17.683-1.323-24.49-3.966-6.811-2.644-12.362-6.312-16.657-11.006-4.298-4.691-7.471-10.277-9.519-16.756-2.051-6.476-3.073-13.55-3.073-21.218 0-7.536 1.057-14.606 3.173-21.218 2.112-6.609 5.255-12.359 9.419-17.252 4.164-4.889 9.32-8.756 15.468-11.601 6.147-2.841 13.317-4.263 21.516-4.263 7.139 0 13.484 1.258 19.037 3.768 5.552 2.513 10.277 5.949 14.179 10.312 3.897 4.363 6.841 9.552 8.824 15.566 1.982 6.017 2.975 12.462 2.975 19.334 0 2.513-.1 4.991-.298 7.437-.198 2.447-.431 4.396-.694 5.85h-65.838zm40.256-19.632c-.267-6.345-2.018-11.467-5.256-15.368-3.24-3.898-7.768-5.85-13.583-5.85-6.612 0-11.635 1.853-15.071 5.552-3.439 3.703-5.487 8.924-6.147 15.666h40.057zM2396.147 69.105c1.983-.396 3.867-.694 5.652-.892 1.784-.198 3.733-.297 5.85-.297 1.982 0 3.932.133 5.85.396 1.915.267 3.799.595 5.651.991.396.663.76 1.621 1.091 2.875.328 1.258.626 2.578.893 3.966.264 1.388.496 2.776.694 4.165l.495 3.47c2.906-4.096 6.477-7.765 10.709-11.006 4.229-3.238 9.519-4.858 15.863-4.858 1.32 0 2.842.068 4.562.198 1.717.133 2.975.332 3.768.595.264 1.323.462 2.844.595 4.561.13 1.72.198 3.504.198 5.354 0 2.25-.099 4.694-.297 7.337-.198 2.646-.564 5.156-1.091 7.535-1.456-.263-3.074-.396-4.858-.396h-3.272c-2.249 0-4.759.232-7.535.694-2.776.465-5.422 1.686-7.932 3.669-2.514 1.983-4.596 4.957-6.247 8.923-1.654 3.966-2.479 9.518-2.479 16.657v48.781c-2.38.396-4.76.66-7.139.793-2.38.131-4.694.198-6.94.198-2.25 0-4.53-.067-6.842-.198-2.314-.133-4.729-.396-7.238-.793v-102.718z"/></g><path fill="#222" d="M248.934 39.69l-26.656-39.27c-59.235 23.71-76.266 47.42-76.266 111.142v108.177h108.845v-108.177h-62.197c1.481-45.938 11.847-59.275 56.274-71.872zm-145.868 0l-26.655-39.269c-59.976 23.71-76.266 47.42-76.266 111.141v108.177h108.845v-108.177h-62.198c1.481-45.938 11.848-59.275 56.274-71.872zm370.993-36.305v108.178h62.197c-.74 45.938-11.106 59.275-55.533 71.871l25.916 39.27c59.976-23.71 76.266-47.42 76.266-111.141v-108.178h-108.846zm-145.868 108.177h62.197c-.74 45.938-11.106 59.275-55.533 71.871l25.916 39.27c59.976-23.71 76.266-47.42 76.266-111.141v-108.177h-108.846v108.177z" enable-background="new"/></svg>