<svg xmlns="http://www.w3.org/2000/svg" width="2010" height="296" viewBox="0 0 2010 296"><title>Readability Buttons</title><path fill="#860000" d="M100.823 150.271l.011.063 5.614 50.741c23.865-19.382 62.612-33.938 99.345-33.938 36.923 0 75.83 14.638 99.712 34.217l5.648-51.02.005-.063c.041-15.441 7.434-29.021 18.704-37.836-6.478-63.135-59.439-112.438-124.069-112.438-64.528 0-117.428 49.135-124.046 112.125 11.493 8.801 19.038 22.533 19.076 38.149zm104.97 24.452c-40.22 0-75.901 13.032-98.724 35.18l6.309 49.688h185.227l6.274-49.353c-22.806-22.392-58.658-35.515-99.086-35.515zm-109.558-17.183l-.006-.061c-.07-26.612-21.581-48.162-48.118-48.162-26.58 0-48.123 21.616-48.123 48.288 0 26.091 20.632 47.291 46.413 48.203l30.007 70.118c0 19.533-1.042 19.847 18.424 19.847 19.465 0 14.218-2.953 14.218-22.487l-12.815-115.746zm267.639-48.223c-26.538 0-48.047 21.55-48.117 48.162l-.006.061-12.813 115.746c0 19.534-5.249 22.716 14.217 22.716 19.464 0 18.424-.542 18.424-20.075l30.007-70.118c25.781-.913 46.414-22.113 46.414-48.204 0-26.671-21.547-48.288-48.126-48.288z" enable-background="new"/><g><path d="M604.209 211.314c0 1.765-.506 2.648-1.515 2.648-2.336 0-6.155-.222-11.458-.662-3.852-.316-6.408-.473-7.67-.473-1.832 0-4.704.189-8.617.567-3.915.379-6.787.567-8.617.567l-28.692-46.668c-4.041-6.46-7.307-10.608-9.8-12.446-2.495-1.836-7.497-2.755-15.009-2.755v40.679c0 4.352.552 7.426 1.657 9.224 1.104 1.798 3.061 3.217 5.871 4.257 2.808 1.041 6.833 1.878 12.073 2.507 1.073.128 1.61.979 1.61 2.555 0 1.765-.506 2.648-1.515 2.648-4.23 0-9.28-.188-15.151-.567-5.619-.378-10.354-.567-14.204-.567-3.851 0-8.555.189-14.109.567-5.809.379-10.828.567-15.056.567-1.011 0-1.515-.884-1.515-2.648 0-1.576.504-2.427 1.515-2.555 5.239-.631 9.247-1.468 12.026-2.508 2.777-1.041 4.718-2.445 5.823-4.213 1.104-1.768 1.657-4.86 1.657-9.278v-89.092c0-4.354-.521-7.431-1.562-9.229-1.042-1.799-2.952-3.236-5.729-4.309-2.779-1.073-6.851-1.924-12.215-2.556-1.011 0-1.515-.866-1.515-2.602 0-1.734.504-2.602 1.515-2.602 4.229 0 9.247.189 15.056.568 5.554.378 10.258.567 14.109.567 3.85 0 8.584-.189 14.204-.567 5.871-.379 10.921-.568 15.151-.568 14.077 0 24.966 2.943 32.669 8.828 7.701 5.886 11.552 14.152 11.552 24.8 0 6.726-2.545 12.97-7.633 18.73-5.09 5.76-11.97 10.198-20.642 13.312l29.167 47.439c2.53 4.145 5.787 7.204 9.773 9.183 3.986 1.978 9.141 3.344 15.467 4.097.885.129 1.329.979 1.329 2.555zm-48.293-94.889c0-18.477-8.049-27.715-24.146-27.715-5.303 0-9.327.427-12.073 1.282-2.746.854-4.578 2.199-5.492 4.034-.916 1.836-1.373 5.062-1.373 9.682v42.237c3.66.505 8.269.757 13.825.757 10.163 0 17.58-2.403 22.252-7.212 4.671-4.809 7.007-12.497 7.007-23.065zM675.89 160.229c0 1.767-1.136 2.648-3.409 2.648h-51.892c-.378 3.406-.568 6.938-.568 10.596 0 10.155 2.415 17.96 7.244 23.414 4.83 5.456 11.695 8.183 20.596 8.183 4.481 0 8.996-1.197 13.541-3.595 4.545-2.396 8.206-5.454 10.984-9.176l.473-.189c.568 0 1.12.348 1.657 1.04.536.695.805 1.514.805 2.46 0 1.324-2.021 4.084-6.061 8.278-4.041 4.194-8.428 7.395-13.162 9.602-4.735 2.207-9.691 3.312-14.867 3.312-11.363 0-20.927-4.163-28.692-12.488-7.765-8.324-11.647-18.542-11.647-30.65 0-12.36 3.803-22.83 11.411-31.408 7.606-8.576 17.249-12.866 28.928-12.866 9.784 0 18.006 3.202 24.667 9.602 6.661 6.401 9.992 13.48 9.992 21.237zm-17.234-8.325c0-4.73-1.626-8.656-4.876-11.778-3.252-3.122-7.434-4.683-12.547-4.683-4.862 0-9.076 2.034-12.642 6.102-3.567 4.068-5.981 9.413-7.244 16.035l26.324-.757c3.977-.062 6.802-.44 8.475-1.135 1.672-.693 2.51-1.954 2.51-3.784zM750.42 216.045c-3.516 0-6.575-.868-9.179-2.602-2.605-1.734-4.378-4.083-5.319-7.048-6.756 6.937-15.593 10.406-26.514 10.406-5.682 0-10.321-1.75-13.919-5.251-3.599-3.5-5.397-7.866-5.397-13.103 0-12.928 15.34-23.397 46.02-31.407l.568-14.759v-.473c0-4.541-1.122-8.15-3.362-10.832-2.241-2.68-5.224-4.021-8.948-4.021-3.726 0-6.881.899-9.469 2.696-2.589 1.797-3.915 4.053-3.977 6.764-.063 4.037-1.122 7.19-3.172 9.46-2.052 2.271-4.782 3.405-8.19 3.405-2.021 0-3.662-.599-4.924-1.798-1.263-1.197-1.894-2.805-1.894-4.824 0-4.856 4.418-9.948 13.257-15.278 8.837-5.329 17.044-7.994 24.62-7.994 6.818 0 12.341 2.019 16.571 6.054 4.229 4.037 6.344 9.46 6.344 16.271v1.136l-1.42 42.76v.662c0 6.622 2.146 9.934 6.439 9.934 2.083 0 4.513-1.261 7.291-3.784l.663-.189c.504 0 .978.331 1.42.993.441.663.663 1.372.663 2.129 0 1.83-1.91 4.068-5.729 6.717-3.821 2.651-7.968 3.976-12.443 3.976zm-14.498-42.666c-18.371 4.175-27.556 11.068-27.556 20.681 0 8.981 3.459 13.471 10.379 13.471 3.333 0 6.619-.837 9.859-2.513 3.24-1.677 5.426-3.747 6.559-6.214l.759-25.425zM861.294 207.675c0 1.352-.506 2.092-1.515 2.221-3.599.442-7.774 1.324-12.525 2.648-4.75 1.325-8.458 2.649-11.123 3.974-1.397.693-2.413 1.041-3.046 1.041-1.017 0-1.524-.506-1.524-1.514l.757-10.218c-6.692 7.315-15.214 10.975-25.567 10.975-10.922 0-20.217-4.194-27.887-12.582s-11.505-18.448-11.505-30.179c0-13.307 4.245-24.076 12.736-32.307 8.49-8.23 19.143-12.345 31.958-12.345 7.322 0 14.077 2.27 20.264 6.811v-31.436c0-5.097-.632-8.433-1.894-10.005-1.263-1.573-4.166-2.612-8.711-3.116-1.011-.128-1.515-.933-1.515-2.411 0-1.672.506-2.509 1.52-2.509 5.952-1.386 11.113-3.058 15.482-5.014 4.369-1.954 7.313-3.689 8.834-5.203.633-.63 1.298-.946 1.995-.946 1.772 0 2.66.504 2.66 1.512-1.01 13.74-1.515 24.706-1.515 32.898v83.284c0 4.35.63 7.264 1.894 8.745 1.262 1.481 4.167 2.536 8.712 3.166 1.01 0 1.515.837 1.515 2.51zm-28.975-10.097v-48.512c0-3.279-1.91-6.37-5.729-9.271-3.82-2.9-7.97-4.352-12.452-4.352-18.434 0-27.65 12.945-27.65 38.836 0 10.231 2.209 18.726 6.628 25.481 4.418 6.757 10.227 10.135 17.423 10.135 4.103 0 7.827-.932 11.174-2.795 3.346-1.863 6.88-5.038 10.606-9.522zM933.743 216.045c-3.516 0-6.575-.868-9.179-2.602-2.605-1.734-4.378-4.083-5.319-7.048-6.756 6.937-15.593 10.406-26.514 10.406-5.682 0-10.321-1.75-13.919-5.251-3.599-3.5-5.397-7.866-5.397-13.103 0-12.928 15.34-23.397 46.02-31.407l.568-14.759v-.473c0-4.541-1.122-8.15-3.362-10.832-2.241-2.68-5.224-4.021-8.948-4.021-3.726 0-6.881.899-9.469 2.696-2.589 1.797-3.915 4.053-3.977 6.764-.063 4.037-1.122 7.19-3.172 9.46-2.052 2.271-4.782 3.405-8.19 3.405-2.021 0-3.662-.599-4.924-1.798-1.263-1.197-1.894-2.805-1.894-4.824 0-4.856 4.418-9.948 13.257-15.278 8.837-5.329 17.044-7.994 24.62-7.994 6.818 0 12.341 2.019 16.571 6.054 4.229 4.037 6.344 9.46 6.344 16.271v1.136l-1.42 42.76v.662c0 6.622 2.146 9.934 6.439 9.934 2.083 0 4.513-1.261 7.291-3.784l.663-.189c.504 0 .978.331 1.42.993.441.663.663 1.372.663 2.129 0 1.83-1.91 4.068-5.729 6.717-3.822 2.651-7.969 3.976-12.443 3.976zm-14.498-42.666c-18.371 4.175-27.556 11.068-27.556 20.681 0 8.981 3.459 13.471 10.379 13.471 3.333 0 6.619-.837 9.859-2.513 3.24-1.677 5.426-3.747 6.559-6.214l.759-25.425zM1039.408 172.717c0 11.605-4.107 21.854-12.324 30.746s-17.729 13.339-28.535 13.339c-6.004 0-11.819-1.263-17.443-3.784-3.855-1.766-7.269-2.649-10.238-2.649-4.741 0-7.87 2.02-9.385 6.055-.316.757-1.106 1.136-2.37 1.136-1.644 0-2.465-.505-2.465-1.513.504-5.293.757-11.658.757-19.096v-92.168c0-5.104-.648-8.443-1.941-10.019-1.295-1.576-4.119-2.584-8.475-3.026-1.01 0-1.515-.771-1.515-2.315 0-1.799.503-2.699 1.511-2.699 11.2-2.9 19.162-6.244 23.883-10.028.944-.757 1.729-1.135 2.36-1.135 1.761 0 2.643.506 2.643 1.514-1.011 13.75-1.515 24.786-1.515 33.111v28.286c5.951-5.927 13.231-8.893 21.843-8.893 12.851 0 23.267 3.879 31.243 11.636 7.978 7.757 11.966 18.258 11.966 31.502zm-19.127.804c0-11.618-2.311-20.712-6.928-27.279s-11.101-9.852-19.452-9.852c-4.492 0-8.872 1.688-13.142 5.061-4.27 3.375-6.405 6.733-6.405 10.075v43.776c0 3.35 2.545 6.745 7.637 10.188 5.093 3.442 9.821 5.163 14.186 5.163 7.59 0 13.505-3.378 17.745-10.135 4.238-6.756 6.359-15.755 6.359-26.997zM1093.475 211.314c0 1.765-.506 2.648-1.514 2.648-2.59 0-5.904-.188-9.943-.567-4.531-.378-8.334-.567-11.41-.567-3.141 0-6.912.189-11.316.567-3.977.379-7.26.567-9.848.567-1.01 0-1.516-.884-1.516-2.648 0-1.576.506-2.427 1.516-2.555 5.365-.691 8.822-1.983 10.369-3.872 1.547-1.89 2.32-5.919 2.32-12.092v-34.951c0-5.037-.648-8.343-1.941-9.918-1.295-1.575-4.119-2.614-8.475-3.118-1.012 0-1.516-.835-1.516-2.508 0-1.543.502-2.316 1.51-2.316 6.609-1.703 12.02-3.515 16.236-5.439 4.217-1.923 6.859-3.515 7.93-4.777.629-.757 1.322-1.135 2.078-1.135 1.76 0 2.643.505 2.643 1.513-1.012 14.128-1.516 25.103-1.516 32.922v29.705c0 6.182.771 10.217 2.32 12.109 1.545 1.892 5.066 3.186 10.559 3.878 1.008.128 1.514.978 1.514 2.554zm-13.256-114.374c0 2.649-.963 4.952-2.889 6.906-1.926 1.956-4.246 2.933-6.959 2.933-2.715 0-5.035-.977-6.961-2.933-1.926-1.954-2.887-4.257-2.887-6.906 0-2.774.945-5.108 2.84-7s4.229-2.838 7.008-2.838c2.713 0 5.033.946 6.959 2.838s2.889 4.226 2.889 7zM1144.42 211.125c0 1.766-.506 2.649-1.516 2.649-2.59 0-5.904-.158-9.943-.474-4.545-.316-8.365-.473-11.457-.473-3.029 0-6.787.156-11.268.473-4.041.315-7.355.474-9.943.474-1.01 0-1.516-.884-1.516-2.649 0-1.575.506-2.427 1.516-2.554 5.365-.63 8.854-1.905 10.463-3.827s2.416-5.972 2.416-12.147v-87.814c0-5.104-.633-8.443-1.895-10.019-1.264-1.576-4.166-2.615-8.711-3.121-1.012-.128-1.516-.933-1.516-2.414 0-1.543.504-2.316 1.516-2.316 6.627-1.703 12.057-3.515 16.287-5.44 4.229-1.923 6.879-3.547 7.953-4.872.631-.693 1.326-1.041 2.084-1.041 1.766 0 2.65.506 2.65 1.514-1.01 14.128-1.516 25.102-1.516 32.922v82.587c0 6.182.789 10.233 2.369 12.156 1.576 1.925 5.08 3.202 10.51 3.832 1.011.127 1.517.979 1.517 2.554zM1195.551 211.314c0 1.765-.506 2.648-1.514 2.648-2.59 0-5.904-.188-9.943-.567-4.531-.378-8.334-.567-11.41-.567-3.141 0-6.912.189-11.316.567-3.977.379-7.26.567-9.848.567-1.01 0-1.516-.884-1.516-2.648 0-1.576.506-2.427 1.516-2.555 5.365-.691 8.822-1.983 10.369-3.872 1.547-1.89 2.32-5.919 2.32-12.092v-34.951c0-5.037-.648-8.343-1.941-9.918-1.295-1.575-4.119-2.614-8.475-3.118-1.012 0-1.516-.835-1.516-2.508 0-1.543.502-2.316 1.51-2.316 6.609-1.703 12.02-3.515 16.236-5.439 4.217-1.923 6.859-3.515 7.93-4.777.629-.757 1.322-1.135 2.078-1.135 1.76 0 2.643.505 2.643 1.513-1.012 14.128-1.516 25.103-1.516 32.922v29.705c0 6.182.771 10.217 2.32 12.109 1.545 1.892 5.066 3.186 10.559 3.878 1.008.128 1.514.978 1.514 2.554zm-13.256-114.374c0 2.649-.963 4.952-2.889 6.906-1.926 1.956-4.246 2.933-6.959 2.933-2.715 0-5.035-.977-6.961-2.933-1.926-1.954-2.887-4.257-2.887-6.906 0-2.774.945-5.108 2.84-7s4.229-2.838 7.008-2.838c2.713 0 5.033.946 6.959 2.838s2.889 4.226 2.889 7zM1255.965 138.66c0 3.405-.82 5.108-2.461 5.108l-28.219-.757v45.409c0 11.857 4.229 17.785 12.688 17.785 5.24 0 10.006-1.229 14.299-3.689.506 0 .963.331 1.373.993s.615 1.372.615 2.129c0 1.577-2.348 3.705-7.041 6.386-4.693 2.68-9.969 4.021-15.828 4.021-7.182 0-12.914-2.192-17.197-6.575-4.285-4.383-6.426-10.17-6.426-17.359v-.852l.377-45.977c0-1.765-.756-2.649-2.271-2.649h-7.197c-1.389 0-2.082-.804-2.082-2.416 0-1.239.564-2.167 1.697-2.788 8.748-5.191 16.361-12.505 22.844-21.942.691-1.013 1.572-1.52 2.645-1.52 1.76 0 2.643.505 2.643 1.514l-.758 18.069h27.84c1.639.001 2.459 1.704 2.459 5.11zM1356.715 135.018c0 1.611-.506 2.478-1.516 2.602-4.293.445-7.592 1.699-9.895 3.759-2.305 2.062-4.846 6.139-7.623 12.229l-44.695 96.494c-4.986 10.343-10.795 15.515-17.422 15.515-3.221 0-5.793-.868-7.719-2.602-1.926-1.735-2.887-3.959-2.887-6.67 0-2.838.863-5.155 2.594-6.953 1.729-1.797 4.039-2.696 6.932-2.696 1.361 0 2.92.474 4.678 1.42 1.133.567 1.955.851 2.469.851 2.098 0 4.564-3.532 7.398-10.595l11.83-25.543-22.076-59.221c-2.336-5.774-4.688-9.755-7.055-11.944-2.367-2.188-5.572-3.536-9.611-4.044-1.008-.124-1.516-.99-1.516-2.602 0-1.734.48-2.602 1.436-2.602 2.451 0 5.441.189 8.969.568 3.943.378 7.412.567 10.402.567 2.93 0 6.574-.189 10.939-.567 4.008-.378 7.303-.568 9.893-.568 1.01 0 1.516.868 1.516 2.602 0 1.611-.506 2.478-1.516 2.602-6.596.825-9.893 2.729-9.893 5.71 0 2.093.867 5.519 2.602 10.278l15.258 39.039 18.084-39.039c1.562-3.595 2.344-6.559 2.344-8.893 0-3.973-3.055-6.338-9.162-7.095-1.01-.125-1.514-.977-1.514-2.554 0-1.765.504-2.649 1.514-2.649 2.652 0 5.607.189 8.869.568 3.189.378 6.088.567 8.693.567 1.303 0 3.418-.157 6.35-.473 4.035-.441 7.293-.663 9.768-.663 1.04 0 1.562.868 1.562 2.602zM1514.943 175.365c0 11.669-3.914 21.019-11.742 28.05-7.828 7.033-18.213 10.548-31.152 10.548-4.23 0-10.229-.188-17.992-.567-7.387-.378-13.006-.567-16.855-.567-3.852 0-9.027.189-15.529.567-6.756.379-12.248.567-16.477.567-1.01 0-1.516-.884-1.516-2.648 0-1.576.506-2.427 1.516-2.555 7.637-.884 12.83-2.303 15.576-4.26s4.119-5.869 4.119-11.739v-89.09c0-4.418-.553-7.527-1.656-9.326-1.105-1.799-3.047-3.219-5.824-4.26-2.777-1.041-6.85-1.877-12.215-2.51-1.01 0-1.516-.866-1.516-2.602 0-1.734.506-2.602 1.516-2.602 4.229 0 9.406.189 15.529.568 5.867.378 10.725.567 14.57.567s8.891-.189 15.133-.567c6.621-.379 12.043-.568 16.27-.568 11.789 0 21.311 2.807 28.562 8.419 7.25 5.614 10.877 13.024 10.877 22.232 0 6.433-2.684 12.44-8.049 18.021s-11.994 9.256-19.885 11.021c11.174 2.208 20.09 6.276 26.75 12.204 6.66 5.93 9.99 12.961 9.99 21.097zm-29.732-62.392c0-8.34-2.053-14.468-6.156-18.386-4.104-3.917-10.479-5.877-19.127-5.877h-3.789c-7.953 0-11.93 3.413-11.93 10.236v41.228h13.635c9.596 0 16.555-2.132 20.881-6.398 4.322-4.264 6.486-11.198 6.486-20.803zm8.9 62.437c0-9.096-2.59-16.233-7.766-21.413-5.176-5.179-12.342-7.769-21.494-7.769h-20.643v46.616c0 5.748 1.641 9.68 4.924 11.797 3.281 2.116 8.9 3.174 16.855 3.174 8.27 0 15.023-2.984 20.264-8.953 5.239-5.969 7.86-13.788 7.86-23.452zM1614.463 207.77c0 1.352-.506 2.092-1.516 2.221-11.49 1.246-19.35 3.425-23.578 6.541-.885.684-1.768 1.027-2.652 1.027-1.264 0-1.893-.506-1.893-1.514l.758-11.92c-9.344 8.452-17.803 12.677-25.379 12.677-8.648 0-15.387-2.448-20.217-7.341-4.828-4.893-7.244-11.54-7.244-19.939v-35.424c0-5.619-.727-9.345-2.178-11.176-1.453-1.832-4.324-2.748-8.617-2.748-.82 0-1.736.032-2.746.094-.945 0-1.42-.806-1.42-2.417 0-1.984.504-2.976 1.512-2.976 7.299 0 16.867-1.419 28.699-4.257 1.135 0 1.701.79 1.701 2.365v52.031c0 7.128 1.359 12.315 4.082 15.562 2.723 3.249 6.994 4.872 12.816 4.872 3.734 0 7.025-.694 9.873-2.084 2.85-1.39 5.889-3.853 9.117-7.39v-41.875c0-5.558-.744-9.27-2.227-11.132-1.484-1.862-4.436-2.795-8.854-2.795-.758 0-1.643.032-2.65.094-.947 0-1.422-.806-1.422-2.417 0-1.984.506-2.976 1.516-2.976 7.322 0 16.918-1.419 28.787-4.257 1.137 0 1.703.79 1.703 2.365v60.356c0 4.352.617 7.27 1.848 8.751 1.23 1.482 4.119 2.539 8.664 3.169 1.011.003 1.517.84 1.517 2.513zM1678.096 138.66c0 3.405-.822 5.108-2.463 5.108l-28.219-.757v45.409c0 11.857 4.229 17.785 12.689 17.785 5.238 0 10.004-1.229 14.299-3.689.504 0 .961.331 1.373.993.41.662.615 1.372.615 2.129 0 1.577-2.348 3.705-7.041 6.386-4.693 2.68-9.969 4.021-15.828 4.021-7.182 0-12.916-2.192-17.199-6.575-4.285-4.383-6.426-10.17-6.426-17.359v-.852l.379-45.977c0-1.765-.758-2.649-2.273-2.649h-7.195c-1.391 0-2.084-.804-2.084-2.416 0-1.239.566-2.167 1.699-2.788 8.746-5.191 16.361-12.505 22.842-21.942.693-1.013 1.574-1.52 2.645-1.52 1.762 0 2.643.505 2.643 1.514l-.758 18.069h27.84c1.639.001 2.462 1.704 2.462 5.11zM1744.188 138.66c0 3.405-.82 5.108-2.461 5.108l-28.219-.757v45.409c0 11.857 4.229 17.785 12.688 17.785 5.24 0 10.006-1.229 14.299-3.689.506 0 .963.331 1.373.993s.615 1.372.615 2.129c0 1.577-2.348 3.705-7.041 6.386-4.693 2.68-9.969 4.021-15.828 4.021-7.182 0-12.914-2.192-17.197-6.575-4.285-4.383-6.426-10.17-6.426-17.359v-.852l.377-45.977c0-1.765-.756-2.649-2.271-2.649h-7.197c-1.389 0-2.082-.804-2.082-2.416 0-1.239.564-2.167 1.697-2.788 8.748-5.191 16.361-12.505 22.844-21.942.691-1.013 1.572-1.52 2.645-1.52 1.76 0 2.643.505 2.643 1.514l-.758 18.069h27.84c1.638.001 2.459 1.704 2.459 5.11zM1839.824 173.663c0 12.551-4.092 22.879-12.275 30.982-8.186 8.104-18.787 12.156-31.803 12.156-13.02 0-23.637-4.068-31.852-12.204-8.217-8.136-12.322-18.447-12.322-30.935 0-12.677 4.137-23.226 12.418-31.645 8.277-8.42 18.861-12.629 31.756-12.629 12.955 0 23.539 4.195 31.756 12.582 8.213 8.389 12.322 18.954 12.322 31.693zm-19.127-.189c0-11.542-2.227-20.766-6.676-27.671-4.451-6.906-10.559-10.359-18.324-10.359-7.701 0-13.793 3.469-18.275 10.406-4.482 6.938-6.723 16.146-6.723 27.624 0 11.416 2.209 20.481 6.629 27.198 4.418 6.717 10.541 10.075 18.369 10.075s13.951-3.326 18.371-9.98c4.418-6.654 6.629-15.752 6.629-27.293zM1945.311 211.314c0 1.765-.506 2.648-1.516 2.648-2.525 0-5.619-.188-9.279-.567-4.035-.378-7.594-.567-10.676-.567-3.148 0-6.766.189-10.855.567-3.713.379-6.828.567-9.342.567-1.008 0-1.512-.884-1.512-2.648 0-1.576.506-2.427 1.516-2.555 4.355-.504 7.211-1.733 8.57-3.689 1.355-1.954 2.035-6.054 2.035-12.298v-31.598c0-7.062-1.389-12.234-4.166-15.514-2.779-3.279-7.072-4.919-12.879-4.919-3.662 0-6.898.695-9.705 2.081-2.811 1.388-5.824 3.848-9.043 7.379v42.571c0 6.244.678 10.344 2.035 12.298 1.357 1.956 4.213 3.186 8.57 3.689 1.008.128 1.514.979 1.514 2.555 0 1.765-.506 2.648-1.514 2.648-2.59 0-5.746-.188-9.471-.567-4.104-.378-7.701-.567-10.795-.567-3.029 0-6.566.189-10.605.567-3.725.379-6.881.567-9.469.567-1.01 0-1.516-.884-1.516-2.648 0-1.576.506-2.427 1.516-2.555 5.43-.691 8.932-1.998 10.512-3.92 1.576-1.92 2.367-5.935 2.367-12.044v-34.951c0-5.037-.648-8.343-1.941-9.918-1.295-1.575-4.184-2.614-8.664-3.118-1.012 0-1.516-.835-1.516-2.508 0-1.543.504-2.316 1.516-2.316 6.25-1.576 11.457-3.358 15.623-5.345 4.168-1.986 6.785-3.609 7.859-4.872.631-.757 1.326-1.135 2.084-1.135 1.766 0 2.65.505 2.65 1.513l-.756 11.92c9.072-8.451 17.516-12.676 25.33-12.676 8.57 0 15.268 2.459 20.088 7.379 4.82 4.919 7.23 11.542 7.23 19.867v36.138c0 6.182.771 10.217 2.32 12.109 1.545 1.892 5.002 3.186 10.367 3.878 1.012.128 1.518.978 1.518 2.554zM2008.941 189.556c0 7.695-3.025 14.159-9.074 19.394-6.053 5.234-13.363 7.853-21.934 7.853-3.025 0-7.689-.662-13.99-1.987-4.729-.945-7.943-1.419-9.645-1.419-.504-4.413-1.67-11.13-3.498-20.15 0-.945.914-1.419 2.746-1.419 1.516 0 2.43.506 2.746 1.514 1.451 4.668 4.324 8.736 8.617 12.204 4.293 3.469 8.711 5.203 13.258 5.203 4.734 0 8.41-1.292 11.031-3.879 2.619-2.585 3.93-6.211 3.93-10.879 0-2.964-1.09-5.582-3.268-7.853s-6.896-5.076-14.156-8.419c-9.533-4.353-15.83-8.451-18.891-12.299-3.062-3.846-4.594-8.45-4.594-13.812 0-6.623 2.873-12.313 8.617-17.076 5.744-4.761 12.531-7.142 20.359-7.142 3.281 0 7.891.567 13.826 1.703 3.281.631 5.428.946 6.438.946.189 7.443.6 13.781 1.232 19.015 0 .946-.916 1.419-2.746 1.419-1.58 0-2.463-.504-2.652-1.514-.691-4.603-2.424-8.339-5.191-11.21-2.77-2.869-6.074-4.305-9.912-4.305-9.816 0-14.725 4.29-14.725 12.866 0 2.901 1.162 5.581 3.488 8.041 2.324 2.46 7.383 5.646 15.176 9.555 9.301 4.668 15.428 8.703 18.381 12.109 2.955 3.405 4.431 7.253 4.431 11.541z"/></g></svg>