<svg xmlns="http://www.w3.org/2000/svg" width="2018" height="294" viewBox="0 0 2018 294"><title>Relative URL</title><path d="M492.051 93.794c0 16.772-3.769 31.496-11.307 44.167-7.538 12.676-19.499 21.805-35.874 27.396l28.197 78.83c.37 1.117.558 1.864.558 2.235 0 1.118-.418 2.097-1.256 2.937-.837.839-2.094 1.258-3.77 1.258h-40.479c-1.492 0-2.469-.561-2.931-1.678-.468-1.118-.978-2.42-1.536-3.914l-25.125-70.724h-.279c-.558 0-1.256.048-2.094.14-.837.097-1.814.141-2.932.141-2.979 0-6.377-.092-10.189-.279-3.817-.184-7.027-.279-9.631-.279l-12.284 71.004c-.375 1.494-1.213 2.795-2.514 3.912-1.304 1.119-2.699 1.679-4.188 1.679h-36.293c-2.979 0-4.467-1.489-4.467-4.474v-1.117l32.942-187.573c.93-4.844 2.513-8.106 4.746-9.784 2.234-1.678 5.583-2.887 10.05-3.634 3.351-.559 7.303-1.07 11.865-1.537 4.559-.463 9.353-.839 14.377-1.118 5.025-.28 10.233-.511 15.635-.699 5.396-.183 10.607-.279 15.634-.279 10.421 0 20.1 1.026 29.034 3.075 8.934 2.053 16.654 5.22 23.172 9.504 6.512 4.29 11.629 9.784 15.354 16.493 3.722 6.707 5.585 14.814 5.585 24.318zm-47.739 6.15c0-7.268-2.7-12.252-8.097-14.956-5.399-2.699-13.588-4.053-24.566-4.053-.935 0-2.47.048-4.606.14-2.142.096-4.327.188-6.561.279-2.233.096-4.375.188-6.422.28-2.05.096-3.445.14-4.188.14l-9.492 53.672c.742 0 2.046.048 3.909.14 1.858.096 3.812.188 5.862.279 2.046.096 4 .14 5.862.14h3.909c6.883 0 13.073-.511 18.565-1.537 5.486-1.022 10.142-2.839 13.958-5.451 3.812-2.608 6.744-6.29 8.794-11.042 2.048-4.753 3.073-10.763 3.073-18.031zm207.704 46.683c0 2.424-.14 4.893-.419 7.408-.278 2.517-.605 5.08-.977 7.688l-2.792 16.215c-.934 4.473-3.258 6.709-6.979 6.709h-89.614c-.375 2.053-.654 4.053-.837 6.01-.188 1.957-.279 3.773-.279 5.451 0 7.269 1.906 12.348 5.723 15.234 3.812 2.893 10.19 4.333 19.124 4.333 4.467 0 9.256-.092 14.377-.28 5.117-.183 10.143-.418 15.075-.697 4.929-.279 9.584-.561 13.959-.84 4.371-.278 7.957-.51 10.748-.698 2.233-.183 3.769 0 4.606.56.837.559 1.068 1.865.697 3.913l-3.907 21.245c-.375 2.236-.978 3.914-1.814 5.032-.838 1.118-2.561 1.957-5.165 2.516-9.309 2.236-18.382 3.914-27.219 5.032-8.842 1.118-19.312 1.677-31.407 1.677-7.634 0-14.936-1.118-21.915-3.354-6.979-2.236-13.217-5.634-18.705-10.203-5.492-4.563-9.867-10.388-13.122-17.472-3.258-7.08-4.885-15.467-4.885-25.158 0-2.42.14-4.937.418-7.549.279-2.606.602-5.312.978-8.105l3.351-19.568c4.279-24.412 13.492-42.77 27.638-55.068 14.143-12.3 32.755-18.45 55.834-18.45 9.492 0 17.819 1.494 24.986 4.473 7.163 2.983 13.165 7.128 18.007 12.439 4.837 5.311 8.467 11.509 10.888 18.589 2.414 7.081 3.627 14.72 3.627 22.918zm-42.155-2.236c0-6.521-1.676-11.461-5.025-14.815s-8.934-5.032-16.75-5.032c-9.492 0-16.707 2.935-21.636 8.806-4.935 5.87-8.423 13.654-10.469 23.341h52.484c.371-2.235.698-4.377.978-6.43.278-2.048.418-4.005.418-5.87zm136.514-102.592l-35.734 202.948c-.375 1.493-1.165 2.843-2.373 4.053-1.212 1.216-2.561 1.817-4.048 1.817h-34.059c-1.492 0-2.652-.463-3.49-1.397-.837-.931-1.256-2.141-1.256-3.635v-.838l35.734-202.948c.37-1.489 1.208-2.795 2.512-3.914 1.3-1.118 2.696-1.677 4.188-1.677h34.06c2.975 0 4.467 1.494 4.467 4.473v1.118h-.001zm88.498 46.405c9.492 0 19.215.559 29.174 1.677 9.954 1.118 19.494 2.891 28.615 5.311 3.163.935 5.256 1.865 6.281 2.795 1.021.935 1.348 2.795.978 5.591l-24.567 141.447c-.375 1.494-.977 2.795-1.814 3.914-.837 1.117-2.373 1.678-4.606 1.678h-28.476c-1.492 0-2.748-.459-3.77-1.385-1.024-.922-1.353-2.307-.978-4.158l1.117-8.037c-7.633 5.923-14.893 10.086-21.775 12.488-6.888 2.401-14.055 3.606-21.497 3.606-8.375 0-15.542-1.493-21.496-4.473-5.958-2.979-10.796-6.94-14.517-11.88-3.725-4.938-6.469-10.623-8.236-17.053-1.771-6.43-2.651-13.183-2.651-20.268 0-2.607.14-5.215.418-7.827.278-2.606.602-5.215.977-7.827.56-4.097 1.208-7.826 1.955-11.182.558-2.979 1.021-5.87 1.396-8.666.37-2.795.741-4.936 1.116-6.43 4.279-24.412 13.584-42.071 27.917-52.973 14.33-10.898 32.476-16.348 54.439-16.348zm15.634 39.135c-2.607-.372-5.862-.743-9.771-1.118-3.909-.372-7.817-.559-11.727-.559-10.05 0-17.355 2.892-21.915 8.666-4.562 5.779-7.864 14.354-9.911 25.718l-5.024 29.353c-.56 3.17-.838 6.246-.838 9.225 0 4.661 1.068 8.666 3.211 12.021 2.137 3.354 6.373 5.031 12.702 5.031 4.837 0 9.814-.979 14.936-2.936 5.117-1.957 10.002-4.236 14.656-6.85l13.681-78.551zm173.644-31.308l-4.188 22.643c-.375 1.494-1.165 2.795-2.373 3.914-1.213 1.118-2.561 1.677-4.048 1.677h-22.892l-14.518 81.346c-.558 3.354-.837 5.967-.837 7.828 0 2.053.558 3.449 1.675 4.191 1.117.747 3.163 1.118 6.143 1.118h13.679c1.488 0 2.696.28 3.629.839.929.561 1.396 1.586 1.396 3.075v.839l-3.909 21.805c-.559 3.17-2.608 5.031-6.143 5.59-4.283.744-8.096 1.303-11.445 1.679-3.351.37-7.062.559-11.127.559-12.765 0-22.521-2.516-29.274-7.548-6.753-5.031-10.129-13.697-10.129-25.997 0-2.049.135-4.284.414-6.709.279-2.42.602-4.937.973-7.548l14.15-81.067-21.68-3.634c-3.167-.559-4.746-2.236-4.746-5.032v-.839l3.07-18.45c.371-1.489 1.257-2.839 2.652-4.053 1.396-1.21 2.835-1.817 4.328-1.817h22.203l3.882-22.923c.371-1.489 1.156-2.699 2.36-3.634 1.204-.93 2.635-1.581 4.301-1.957l35.093-5.87h.838c2.792 0 4.188 1.306 4.188 3.914v.838l-5.305 29.632h22.893c3.162 0 4.746 1.585 4.746 4.752l.001.839zm67.558-5.591c1.488 0 2.744.419 3.77 1.258 1.021.838 1.349 2.284.978 4.333l-26.242 148.996c-.375 1.494-.977 2.795-1.813 3.912-.837 1.119-2.469 1.679-4.887 1.679h-34.06c-3.537 0-5.024-1.86-4.467-5.591l26.242-148.996c.37-1.49 1.159-2.795 2.373-3.914 1.209-1.118 2.557-1.677 4.049-1.677h34.057zm-32.105-17.891c-3.536 0-5.024-1.878-4.467-5.634l4.467-26.189c.371-1.502 1.021-2.817 1.955-3.944.929-1.127 2.513-1.69 4.746-1.69h36.291c3.724 0 5.209 1.878 4.467 5.635l-4.467 26.189c-.375 1.502-1.022 2.817-1.953 3.944-.934 1.126-2.512 1.69-4.746 1.69l-36.293-.001zm212.17 21.805c0 .559-.188 1.397-.56 2.516l-57.51 126.912c-2.792 6.149-5.959 11.182-9.492 15.095-3.537 3.914-7.307 6.896-11.307 8.945-4.004 2.054-8.145 3.445-12.423 4.193-4.283.742-8.473 1.117-12.562 1.117-4.097 0-8.097-.375-12.005-1.117-3.908-.748-7.446-2.141-10.607-4.193-3.168-2.049-5.863-5.031-8.098-8.945-2.232-3.913-3.629-8.945-4.188-15.095l-12.561-126.912v-.56c0-1.677.511-3.075 1.535-4.193 1.021-1.118 2.277-1.677 3.77-1.677h35.455c1.487 0 2.604.559 3.351 1.673.741 1.118 1.208 2.511 1.396 4.184l4.746 109.327c.184 3.905 1.3 5.856 3.352 5.856 2.046 0 3.812-1.951 5.304-5.856l43.271-109.327c.741-1.673 1.72-3.066 2.933-4.184 1.208-1.114 2.556-1.673 4.048-1.673h38.247c2.601 0 3.905 1.306 3.905 3.914zm147.681 52.273c0 2.424-.141 4.893-.419 7.408-.279 2.517-.606 5.08-.979 7.688l-2.791 16.215c-.934 4.473-3.259 6.709-6.979 6.709h-89.615c-.375 2.053-.654 4.053-.837 6.01-.188 1.957-.279 3.773-.279 5.451 0 7.269 1.906 12.348 5.724 15.234 3.812 2.893 10.189 4.333 19.124 4.333 4.466 0 9.256-.092 14.377-.28 5.116-.183 10.142-.418 15.074-.697 4.931-.279 9.584-.561 13.959-.84 4.371-.278 7.956-.51 10.748-.698 2.233-.183 3.77 0 4.606.56.838.559 1.067 1.865.698 3.913l-3.909 21.245c-.375 2.236-.978 3.914-1.814 5.032s-2.561 1.957-5.164 2.516c-9.309 2.236-18.382 3.914-27.22 5.032-8.842 1.118-19.312 1.677-31.407 1.677-7.634 0-14.936-1.118-21.915-3.354-6.979-2.236-13.217-5.634-18.705-10.203-5.49-4.563-9.866-10.388-13.12-17.472-3.259-7.08-4.887-15.467-4.887-25.158 0-2.42.141-4.937.419-7.549.279-2.606.604-5.312.979-8.105l3.35-19.568c4.279-24.412 13.492-42.77 27.64-55.068 14.142-12.3 32.755-18.45 55.835-18.45 9.49 0 17.818 1.494 24.984 4.473 7.163 2.983 13.165 7.128 18.007 12.439 4.839 5.311 8.468 11.509 10.889 18.589 2.414 7.081 3.627 14.72 3.627 22.918zm-42.155-2.236c0-6.521-1.675-11.461-5.024-14.815-3.351-3.354-8.935-5.032-16.75-5.032-9.492 0-16.707 2.935-21.638 8.806-4.934 5.87-8.423 13.654-10.469 23.341h52.484c.371-2.235.698-4.377.978-6.43.279-2.048.419-4.005.419-5.87zm323.003-96.162l-22.055 124.396c-3.167 17.52-7.817 31.588-13.959 42.211-6.143 10.622-13.356 18.777-21.636 24.46-8.284 5.687-17.448 9.412-27.499 11.183-10.051 1.769-20.658 2.654-31.825 2.654-9.867 0-18.94-1.166-27.22-3.494-8.284-2.328-15.402-5.962-21.357-10.902-5.958-4.936-10.656-11.225-14.098-18.868-3.446-7.64-5.165-16.772-5.165-27.396 0-3.166.092-6.334.278-9.505.185-3.166.65-6.612 1.396-10.343l22.055-124.396c.371-1.49 1.161-2.748 2.373-3.774 1.209-1.022 2.558-1.538 4.049-1.538h36.571c3.163 0 4.746 1.494 4.746 4.473v.839l-22.055 124.396c-1.117 6.15-1.676 11.648-1.676 16.493 0 8.386 2.095 14.491 6.281 18.31 4.188 3.822 11.21 5.73 21.077 5.73 6.325 0 11.726-.79 16.192-2.376 4.467-1.581 8.234-4.005 11.307-7.269 3.071-3.259 5.583-7.451 7.538-12.58 1.954-5.123 3.581-11.225 4.885-18.31l22.055-124.396c.371-1.49 1.161-2.748 2.373-3.774 1.209-1.022 2.558-1.538 4.05-1.538h36.292c1.486 0 2.695.376 3.63 1.118.929.747 1.396 1.865 1.396 3.354l.001.842zm182.021 45.565c0 16.772-3.77 31.496-11.308 44.167-7.536 12.676-19.498 21.805-35.873 27.396l28.196 78.83c.371 1.117.559 1.864.559 2.235 0 1.118-.418 2.097-1.257 2.937-.837.839-2.094 1.258-3.769 1.258h-40.48c-1.49 0-2.469-.561-2.932-1.678-.466-1.118-.977-2.42-1.535-3.914l-25.126-70.724h-.278c-.559 0-1.257.048-2.094.14-.838.097-1.814.141-2.932.141-2.979 0-6.378-.092-10.19-.279-3.815-.184-7.026-.279-9.631-.279l-12.284 71.004c-.375 1.494-1.212 2.795-2.513 3.912-1.304 1.119-2.699 1.679-4.188 1.679h-36.292c-2.979 0-4.468-1.489-4.468-4.474v-1.117l32.942-187.573c.929-4.844 2.513-8.106 4.746-9.784 2.232-1.678 5.583-2.887 10.05-3.634 3.351-.559 7.303-1.07 11.865-1.537 4.559-.463 9.353-.839 14.377-1.118 5.024-.28 10.233-.511 15.634-.699 5.396-.183 10.609-.279 15.634-.279 10.421 0 20.102 1.026 29.034 3.075 8.935 2.053 16.654 5.22 23.172 9.504 6.514 4.29 11.629 9.784 15.354 16.493 3.725 6.707 5.587 14.814 5.587 24.318zm-47.738 6.15c0-7.268-2.7-12.252-8.096-14.956-5.4-2.699-13.589-4.053-24.567-4.053-.934 0-2.47.048-4.605.14-2.144.096-4.327.188-6.562.279-2.232.096-4.376.188-6.422.28-2.05.096-3.445.14-4.188.14l-9.491 53.672c.741 0 2.046.048 3.908.14 1.857.096 3.812.188 5.861.279 2.046.096 4 .14 5.863.14h3.908c6.883 0 13.073-.511 18.563-1.537 5.488-1.022 10.144-2.839 13.959-5.451 3.812-2.608 6.744-6.29 8.794-11.042 2.05-4.753 3.075-10.763 3.075-18.031zm183.136 117.687l-4.745 25.998c-.56 3.171-2.7 5.128-6.422 5.87-2.421.56-5.491 1.026-9.213 1.397-3.726.371-7.726.742-12.005 1.117-4.283.371-8.61.651-12.98.84-4.375.184-8.423.278-12.145.278-7.634 0-15.032-.747-22.194-2.235-7.166-1.489-13.447-4.006-18.845-7.549-5.399-3.537-9.728-8.289-12.98-14.256-3.259-5.963-4.886-13.322-4.886-22.084 0-2.049.14-4.236.418-6.568.279-2.328.604-4.797.979-7.408l25.404-144.523c.371-1.489 1.209-2.795 2.513-3.914 1.3-1.118 2.696-1.677 4.188-1.677h36.571c2.976 0 4.468 1.494 4.468 4.473v1.118l-25.405 144.523c-.56 2.796-.837 5.22-.837 7.269 0 4.474 1.208 7.548 3.629 9.226 2.417 1.678 6.324 2.516 11.726 2.516h48.019c3.161 0 4.745 1.586 4.745 4.753v.837h-.003v-.001z" fill="#00FFF0"/><path fill="#39BEB6" d="M152.725 183.119l-64.35 64.351c-12.315 12.315-31.745 12.845-43.4 1.189-11.669-11.669-11.143-31.103 1.172-43.417l64.138-64.139c-21.456-7.475-45.183-3.458-61.158 12.518l-32.305 32.306c-23.014 23.015-21.232 62.12 3.981 87.334 25.211 25.212 64.306 26.98 87.32 3.968l32.303-32.304c16.146-16.146 20.085-40.192 12.301-61.803l-.002-.003zm120.571-162.345c-25.214-25.214-64.322-26.999-87.327-3.981l-31.037 31.037c-15.979 15.979-20.001 39.703-12.519 61.156l64.016-64.016c12.315-12.316 31.748-12.84 43.416-1.171 11.653 11.652 11.125 31.085-1.188 43.398l-64.23 64.229c21.611 7.782 45.657 3.846 61.803-12.301l31.035-31.034c23.013-23.012 21.245-62.103-3.969-87.317zm-184.412 184.417c6.396 6.396 16.824 6.354 23.292-.113l93.164-93.163c6.458-6.484 6.508-16.896.113-23.292-6.41-6.41-16.807-6.344-23.293.111l-.016-.016-93.147 93.146.016.016-.017.017c-6.469 6.469-6.522 16.884-.112 23.294z" enable-background="new"/></svg>