<svg xmlns="http://www.w3.org/2000/svg" width="1273" height="461" viewBox="0 0 1273 461"><title>Tianjin Project</title><g><path d="M65.857 395.457c14.343-1.668 23.015-9.674 23.015-21.682v-175.451h-31.02c-22.349 0-32.355 6.671-45.364 40.694h-12.009l10.34-57.706s8.672 2.001 22.349 2.001h159.773c13.676 0 24.016-2.001 24.016-2.001l-10.34 57.706h-12.341c1-34.023-10.007-40.694-35.357-40.694h-30.354l-3.669 3.669v171.782c0 10.007-1.668 18.012-1.668 18.012l33.356 3.002-1.334 10.007-89.393 2.002v-11.341zM225.958 395.457c14.343-1.668 23.016-9.674 23.016-21.015v-157.772c0-16.011 0-19.346-23.683-24.35v-9.006h25.017c35.357 0 44.03-1.334 44.03-1.334l1.667 1.334s-11.007 13.342-11.007 41.027v150.101c0 9.673-1.667 17.345-1.667 17.345l30.354 3.002-1.334 10.007-86.392 2.002v-11.341zM311.011 395.457c13.676-1.335 19.68-8.34 22.349-15.344l78.386-195.465 16.678-3.669 73.716 189.794c7.338 19.347 13.009 23.683 24.35 25.351l-1.334 9.673h-14.009c-13.676 0-57.038 1.001-57.038 1.001v-12.009c9.339-.333 17.345-3.002 13.676-13.008l-18.346-49.033h-75.719l-4.67 3.335-21.348 55.704 28.353 3.67-1.668 10.34h-63.376v-10.34zm100.068-169.781l-35.023 91.395h67.712l-25.351-68.713c-2.335-7.004-5.671-16.678-7.338-22.682zM534.157 395.457c15.01-1.668 24.016-8.673 24.016-20.681v-147.099c0-22.348-5.337-29.687-27.352-35.357v-9.006h10.007c16.344 0 37.692-1.334 37.692-1.334s4.002 7.672 12.675 17.345l119.08 132.422c4.336 5.004 9.34 11.341 13.342 16.678v-129.754c0-14.677-.332-22.682-27.018-25.351v-10.006h65.043l1.668 5.337s-23.016 6.337-23.016 34.022v184.791h-11.006l-142.095-160.774c-4.336-4.67-9.006-11.008-12.675-16.345v144.431c0 10.007-1.667 18.012-1.667 18.012l30.02 2.001-1.334 10.007-67.378 2.002v-11.341zM805.002 216.67c0-16.011 0-19.346-23.682-24.35v-9.006h25.018c35.355 0 44.029-1.334 44.029-1.334l1.668 1.334s-11.008 12.675-11.008 40.36v141.428c0 59.374-25.352 95.064-67.713 95.064l-4.002-8.673c18.346-2.668 35.689-30.021 35.689-65.377v-169.446zM883.053 395.457c14.344-1.668 23.016-9.674 23.016-21.015v-157.772c0-16.011 0-19.346-23.684-24.35v-9.006h25.018c35.357 0 44.029-1.334 44.029-1.334l1.668 1.334s-11.008 13.342-11.008 41.027v150.101c0 9.673-1.668 17.345-1.668 17.345l30.355 3.002-1.336 10.007-86.391 2.002v-11.341zM989.787 395.457c15.01-1.668 24.016-8.673 24.016-20.681v-147.099c0-22.348-5.336-29.687-27.352-35.357v-9.006h10.006c16.346 0 37.693-1.334 37.693-1.334s4.002 7.672 12.674 17.345l119.08 132.422c4.336 5.004 9.34 11.341 13.344 16.678v-129.754c0-14.677-.334-22.682-27.02-25.351v-10.006h65.045l1.668 5.337s-23.016 6.337-23.016 34.022v184.791h-11.008l-142.095-160.774c-4.336-4.67-9.006-11.008-12.676-16.345v144.431c0 10.007-1.668 18.012-1.668 18.012l30.021 2.001-1.334 10.007-67.379 2.002v-11.341z"/></g><g><path d="M6.473 58.211v-2.256c2.334-.208 3.657-.376 3.968-.506.181-.078.375-.22.583-.428.207-.208 1.167-1.583 2.878-4.126l3.618-5.605 26.917-42.625h3.695l6.496 47.023c.311 2.206.583 3.659.817 4.36.181.467.408.811.681 1.031s.681.37 1.225.447c.156.027 1.517.169 4.084.429v2.256l-10.343-.311c-.674 0-3.668.104-8.984.311v-2.256c2.801-.104 4.564-.22 5.29-.349.493-.129.843-.323 1.05-.582.208-.258.312-.711.312-1.358 0-.362-.014-.737-.039-1.125l-.467-4.81-1.515-11.536h-19.43l-6.151 10.25c-2.254 3.95-3.536 6.327-3.846 7.132-.104.312-.156.598-.156.857 0 .312.136.579.408.799.272.221.913.384 1.923.487.44.052 1.866.13 4.277.234v2.256l-10.493-.31c-1.735 0-4.001.104-6.798.311zm22.752-25.05h17.095l-2.932-22.646-14.163 22.646zM129.43 54.517l-.35.582c-1.012.13-2.62.571-4.824 1.323-3.941 1.322-6.845 2.165-8.712 2.528s-3.942.544-6.224.544c-4.331 0-7.987-.564-10.969-1.692-2.982-1.128-5.348-2.561-7.099-4.298s-3.079-3.579-3.986-5.523c-1.531-3.319-2.295-7.17-2.295-11.553 0-4.512.751-8.881 2.254-13.109 1.14-3.163 2.61-5.932 4.412-8.305 1.801-2.373 4.016-4.538 6.646-6.496 2.63-1.958 5.525-3.526 8.687-4.707s6.879-1.77 11.155-1.77c2.773 0 5.5.266 8.182.797 2.682.532 5.332 1.342 7.948 2.431-1.115 3.268-1.919 7.222-2.412 11.864l-2.256-.194c-.026-2.774-.117-5.096-.272-6.963-1.32-1.089-3.241-2.009-5.765-2.762-2.523-.752-5.234-1.128-8.132-1.128-3.339 0-6.243.46-8.714 1.381s-4.671 2.373-6.6 4.356c-1.928 1.984-3.487 4.356-4.677 7.118s-2.051 5.401-2.581 7.916c-.531 2.516-.796 5.187-.796 8.013 0 6.717 1.64 11.89 4.92 15.521 3.28 3.631 8.136 5.446 14.567 5.446 4.511 0 8.232-.843 11.163-2.529l1.463-7.624c.389-2.204.583-3.682.583-4.435 0-.985-.395-1.601-1.183-1.848-.789-.246-3.497-.525-8.122-.836l.35-2.334c5.664.208 9.35.312 11.057.312 1.061 0 4.074-.104 9.04-.312l-.155 2.334c-1.79.311-2.905.57-3.345.776-.441.207-.746.447-.914.718-.169.271-.396 1.054-.681 2.347l-.467 2.212c-.312 1.527-.584 3.163-.818 4.909s-.35 2.981-.35 3.706c0 .392.091.818.272 1.284zM139.738 59.067l-.7-.545c1.291-4.382 2.271-8.013 2.942-10.891 1.292-5.627 2.26-10.619 2.906-14.976.362-2.515.543-4.253.543-5.212 0-.674-.105-1.154-.313-1.439-.131-.207-.339-.311-.625-.311-.887 0-3.09 1.271-6.61 3.812l-.938-1.284c3.51-2.904 6.578-5.057 9.204-6.457 1.82-.985 3.172-1.478 4.056-1.478.468 0 .845.155 1.131.467.286.311.429.791.429 1.439 0 .7-.181 1.971-.542 3.812-.567 3.268-1.329 7.028-2.284 11.28 2.747-4.797 5.519-8.881 8.317-12.252 1.762-2.126 3.109-3.462 4.042-4.007.932-.544 1.839-.817 2.72-.817.466 0 .984.143 1.555.428-.441 2.282-.882 5.148-1.323 8.596l-1.05.233c-.777-1.037-1.646-1.556-2.604-1.556-.88 0-1.852.363-2.914 1.089-1.709 1.142-3.478 3.092-5.303 5.854-1.826 2.762-3.296 6.101-4.41 10.017-.62 2.126-1.587 6.405-2.903 12.836-2.332.519-4.108.973-5.326 1.362zM194.709 49.964l.428 1.673-5.508 4.512c-1.738 1.322-3.122 2.217-4.15 2.684-.343.181-.661.272-.954.272-.441 0-.87-.247-1.286-.74-.416-.493-.624-1.103-.624-1.83 0-2.751.841-7.333 2.524-13.745l-.217-.117c-2.017 2.752-3.603 4.776-4.758 6.074-2.097 2.414-4.228 4.504-6.392 6.269s-4.133 3.037-5.907 3.815c-.511.208-.995.312-1.452.312-.726 0-1.304-.338-1.734-1.013-.726-1.09-1.089-2.933-1.089-5.529 0-3.322.618-7.216 1.853-11.681 1.235-4.464 2.702-8.345 4.402-11.642.85-1.661 2.059-3.076 3.625-4.244 2.576-1.921 4.9-3.258 6.972-4.011 1.408-.493 2.961-.74 4.661-.74 1.168 0 2.265.091 3.287.273 1.022.182 2.331.558 3.925 1.128l2.549-1.479.856.7c-1.656 5.738-3.117 11.165-4.385 16.279-.989 3.064-1.665 5.361-2.028 6.893-.627 2.415-1.122 4.712-1.484 6.893-.052.416-.078.766-.078 1.052 0 .52.103.922.311 1.207.181.182.428.273.739.273.415 0 .953-.168 1.614-.506.663-.334 2.095-1.346 4.3-3.032zm-5.724-24.427c-.997-.467-2.047-.81-3.151-1.031-1.104-.22-2.262-.331-3.474-.331-2.344 0-4.122.376-5.333 1.128-.565.337-1.185 1.193-1.858 2.567-1.374 2.749-2.559 5.822-3.556 9.219-1.562 5.29-2.343 9.945-2.343 13.964 0 .7.06 1.219.182 1.556.121.337.303.59.545.758.242.169.472.253.687.253.512 0 1.293-.337 2.344-1.011 2.074-1.375 4.255-3.345 6.544-5.913 2.289-2.567 4.174-5.485 5.656-8.752 1.48-3.266 2.733-7.402 3.757-12.407zM232.675 49.615l.739 1.439c-1.533 1.375-3.307 2.788-5.319 4.24-2.014 1.453-3.748 2.49-5.203 3.112-.805.363-1.428.545-1.869.545-.467 0-.895-.267-1.284-.797-.389-.531-.583-1.42-.583-2.665 0-.83.083-1.744.252-2.743.168-.998.966-4.622 2.393-10.872l-.212-.039c-1.942 3.32-4.297 6.418-7.068 9.296-2.77 2.878-5.488 5.044-8.154 6.496-1.683.907-3.042 1.361-4.078 1.361s-1.89-.758-2.563-2.275c-.673-1.517-1.01-3.377-1.01-5.582 0-3.034.447-6.424 1.342-10.171.894-3.747 2.054-6.995 3.479-9.744 1.088-2.101 2.332-3.799 3.731-5.096 2.203-2.022 4.717-3.669 7.542-4.94 1.374-.596 2.877-.895 4.51-.895 1.296 0 3.421.311 6.376.934l2.008-9.74c.426-2.095.639-3.401.639-3.919 0-.802-.162-1.358-.486-1.668-.325-.31-.979-.465-1.964-.465l-3.812-.039.194-1.595c3.189-.415 5.47-.83 6.842-1.245 1.373-.414 3.063-1.18 5.073-2.295l.973.778c-.414 1.556-1.125 4.888-2.132 9.997-.621 3.268-2.313 11.501-5.079 24.7-1.371 6.509-2.251 11.073-2.639 13.692-.104.831-.155 1.582-.155 2.256 0 .7.103 1.186.311 1.458s.48.408.818.408c.467 0 1.116-.259 1.948-.778 1.74-1.035 3.22-2.086 4.44-3.149zm-7.757-23.884c-2.41-1.271-4.91-1.906-7.501-1.906-1.892 0-3.446.272-4.665.817-.855.363-1.613.979-2.273 1.848-.661.869-1.49 2.717-2.488 5.543-.998 2.827-1.756 5.355-2.274 7.585-.855 3.656-1.282 7.028-1.282 10.114 0 1.167.077 1.997.233 2.489.155.493.356.83.602 1.011.246.182.551.272.914.272.648 0 1.348-.181 2.099-.544 1.995-.985 3.905-2.334 5.732-4.045 1.827-1.712 3.472-3.682 4.935-5.913 1.464-2.23 2.636-4.629 3.518-7.196.621-1.815 1.438-5.174 2.45-10.075zM237.147 28.999l-.774-1.556c2.379-1.79 5.509-3.76 9.388-5.913 1.604-.881 2.833-1.323 3.686-1.323.491 0 .899.188 1.222.565s.485.889.485 1.538c0 .598-.208 1.753-.623 3.466-3.628 14.772-5.442 23.457-5.442 26.053 0 .597.117 1.032.35 1.304.233.273.528.409.885.409.494 0 1.125-.194 1.894-.583 2.004-1.012 4.242-2.729 6.713-5.154 2.471-2.424 4.736-5.206 6.795-8.343 1.235-1.867 2.319-4.149 3.253-6.846.934-2.697 1.853-6.34 2.759-10.93.515-.104 1.871-.519 4.07-1.245l.583.583-1.374 7.041c-.661 3.683-1.464 7.689-2.409 12.02-.944 4.331-1.583 7.378-1.918 9.141-.134.882-.201 1.738-.201 2.567 0 .648.116 1.115.35 1.4.233.286.531.428.894.428.362 0 .848-.168 1.457-.506.608-.336 2.195-1.478 4.759-3.423l.855 1.478c-4.401 3.553-7.52 5.848-9.358 6.885-1.346.752-2.395 1.128-3.145 1.128-.492 0-.938-.24-1.339-.72-.401-.479-.602-1.16-.602-2.042 0-.519.057-1.167.171-1.945.228-1.218.77-3.617 1.625-7.196l1.574-6.846-.247-.117c-2.795 3.787-4.467 6.004-5.015 6.651-2.056 2.386-4.406 4.675-7.051 6.866-2.645 2.191-5.16 3.819-7.543 4.882-.768.336-1.439.505-2.015.505-.768 0-1.438-.357-2.012-1.071-.574-.713-.861-1.823-.861-3.33 0-2.025.506-5.075 1.517-9.152 1.479-6.023 2.543-10.787 3.191-14.292.415-2.258.623-3.751.623-4.479 0-.415-.091-.727-.272-.934-.182-.208-.428-.312-.739-.312-.855.002-2.908 1.118-6.159 3.348zM307.831 49.964l.428 1.673-5.508 4.512c-1.738 1.322-3.122 2.217-4.15 2.684-.343.181-.661.272-.954.272-.441 0-.87-.247-1.286-.74-.416-.493-.624-1.103-.624-1.83 0-2.751.841-7.333 2.524-13.745l-.217-.117c-2.017 2.752-3.603 4.776-4.758 6.074-2.097 2.414-4.228 4.504-6.392 6.269s-4.133 3.037-5.907 3.815c-.511.208-.995.312-1.452.312-.726 0-1.304-.338-1.734-1.013-.726-1.09-1.089-2.933-1.089-5.529 0-3.322.618-7.216 1.853-11.681 1.235-4.464 2.702-8.345 4.402-11.642.85-1.661 2.059-3.076 3.625-4.244 2.576-1.921 4.9-3.258 6.972-4.011 1.408-.493 2.961-.74 4.661-.74 1.168 0 2.265.091 3.287.273 1.022.182 2.331.558 3.925 1.128l2.549-1.479.856.7c-1.656 5.738-3.117 11.165-4.385 16.279-.989 3.064-1.665 5.361-2.028 6.893-.627 2.415-1.122 4.712-1.484 6.893-.052.416-.078.766-.078 1.052 0 .52.103.922.311 1.207.181.182.428.273.739.273.415 0 .953-.168 1.614-.506.662-.334 2.095-1.346 4.3-3.032zm-5.725-24.427c-.997-.467-2.047-.81-3.151-1.031-1.104-.22-2.262-.331-3.474-.331-2.344 0-4.122.376-5.333 1.128-.565.337-1.185 1.193-1.858 2.567-1.374 2.749-2.559 5.822-3.556 9.219-1.562 5.29-2.343 9.945-2.343 13.964 0 .7.06 1.219.182 1.556.121.337.303.59.545.758.242.169.472.253.687.253.512 0 1.293-.337 2.344-1.011 2.074-1.375 4.255-3.345 6.544-5.913 2.289-2.567 4.174-5.485 5.656-8.752 1.481-3.266 2.734-7.402 3.757-12.407zM330.838 48.915l.895 1.4c-2.342 1.894-4.679 3.657-7.007 5.291-2.329 1.633-4.04 2.684-5.133 3.15-.599.259-1.184.389-1.757.389-.677 0-1.262-.318-1.756-.953-.493-.635-.74-1.679-.74-3.131 0-.622.052-1.329.156-2.12.104-.791.285-1.86.544-3.209l1.77-7.974c.603-2.826 1.533-7.611 2.792-14.354l-6.663.156.196-1.167c2.113-.804 3.554-1.368 4.323-1.692.77-.324 1.663-.745 2.68-1.264.403-2.022.692-3.559.867-4.609.174-1.05.584-3.987 1.229-8.81l3.341-1.439 2.688-1.361.938.7c-1.038 4.175-1.596 6.418-1.674 6.729-.208.908-.843 3.994-1.907 9.257 1.167.052 2.101.078 2.801.078 2.567 0 4.396-.168 5.485-.506l.389.311-.936 3.812c-1.091 0-3.899-.064-8.421-.194-.467 2.153-1.2 5.815-2.198 10.989-.999 5.173-1.653 8.927-1.964 11.261-.13.934-.194 1.66-.194 2.178 0 .597.142 1.044.428 1.342.285.298.635.447 1.05.447.337 0 .687-.064 1.05-.195.752-.311 1.699-.855 2.84-1.633l3.888-2.879zM360.851 49.42l.505 1.517c-2.982 2.723-5.932 4.771-8.849 6.146-2.917 1.374-5.387 2.062-7.41 2.062-1.322 0-2.717-.344-4.181-1.031-1.465-.688-2.62-1.759-3.462-3.213-.843-1.454-1.264-3.517-1.264-6.191 0-2.933.492-6.171 1.478-9.715.985-3.543 1.97-6.197 2.956-7.962.985-1.765 2.334-3.335 4.045-4.711 2.359-1.947 4.875-3.543 7.546-4.79 1.867-.882 3.669-1.324 5.407-1.324 1.945 0 3.546.52 4.804 1.558 1.257 1.038 1.887 2.492 1.887 4.361 0 1.35-.279 2.687-.836 4.011-.558 1.324-1.329 2.465-2.314 3.426-1.375 1.324-3.281 2.557-5.718 3.699-2.438 1.143-4.979 2.09-7.624 2.842l-5.057 1.207c-.493 2.649-.739 4.726-.739 6.231 0 2.545.564 4.454 1.692 5.726 1.128 1.272 2.535 1.908 4.221 1.908 1.503 0 3.189-.369 5.057-1.108s4.484-2.289 7.856-4.649zm-17.776-10.014c3.319-.623 6.171-1.526 8.558-2.707 2.385-1.182 4.116-2.623 5.193-4.323 1.076-1.701 1.614-3.33 1.614-4.888 0-1.324-.331-2.336-.992-3.038-.661-.701-1.523-1.052-2.586-1.052-1.504 0-3.028.448-4.571 1.344-1.543.896-2.781 2.24-3.714 4.031-.935 1.791-2.102 5.336-3.502 10.633zM426.203 2.587c.985 4.515 2.604 10.949 4.858 19.303 4.223 15.671 6.568 24.284 7.035 25.841.233-.52 2.829-7.003 7.787-19.45 2.542-6.411 4.552-11.693 6.03-15.846.882-2.415 1.401-4.037 1.557-4.867.025-.208.039-.402.039-.584 0-.467-.228-.824-.681-1.07-.454-.247-2.393-.435-5.816-.565l.505-2.373c3.528.208 6.419.311 8.676.311 2.333 0 4.772-.104 7.314-.311l-.467 2.373c-1.764.078-2.833.215-3.209.409-.376.194-.72.512-1.031.954-.259.338-1.802 3.842-4.628 10.512-2.412 5.709-5.615 13.494-9.608 23.354-3.345 8.226-5.576 14.233-6.69 18.022h-3.851l-1.44-6.923c-.726-3.163-2.048-8.401-3.968-15.713-1.919-7.312-3.826-14.378-5.719-21.197-1.634 2.981-7.377 14.041-17.23 33.176-2.204 4.252-3.772 7.805-4.706 10.657h-3.968c-.104-4.36-.843-12.937-2.217-25.73l-1.906-17.361c-.675-5.372-1.154-8.343-1.439-8.914-.155-.312-.376-.545-.661-.7-.389-.233-1.867-.415-4.434-.545l.504-2.373c2.844.13 5.636.194 8.377.194 2.896 0 6.185-.064 9.867-.194l-.467 2.373c-2.36.026-3.825.13-4.395.312-.57.182-.978.454-1.224.817s-.368.947-.368 1.751c0 .441.09 2.116.271 5.023.284 4.286.646 8.325 1.086 12.117 1.102 9.845 1.889 17.117 2.361 21.818l7.9-15.333 6.616-12.999c2.18-4.333 3.957-7.952 5.332-10.858.727-1.556 1.544-3.359 2.452-5.41h1.556zM454.408 47.074c0-3.193.336-6.185 1.011-8.975.674-2.791 1.607-5.211 2.801-7.262 1.192-2.051 2.658-3.861 4.396-5.432 1.737-1.571 3.695-2.83 5.874-3.777 2.178-.948 4.279-1.422 6.301-1.422 1.867 0 3.643.409 5.329 1.227 1.686.818 2.995 2.09 3.929 3.816s1.4 4.095 1.4 7.105c0 3.998-.792 7.996-2.373 11.993-1.271 3.167-2.723 5.73-4.356 7.69s-3.741 3.634-6.321 5.023c-2.581 1.388-5.154 2.083-7.721 2.083-3.112 0-5.602-1.006-7.468-3.018-1.868-2.01-2.802-5.027-2.802-9.051zm6.146-.544c0 2.493.272 4.388.818 5.687s1.371 2.285 2.475 2.959c1.104.675 2.423 1.013 3.957 1.013 1.688 0 3.15-.441 4.384-1.324 1.235-.883 2.456-2.505 3.665-4.869 1.208-2.362 2.085-5.146 2.631-8.353.546-3.206.819-6.082.819-8.626 0-3.245-.598-5.718-1.793-7.418-1.195-1.701-2.962-2.551-5.301-2.551-3.742 0-6.62 2.233-8.634 6.698-2.014 4.465-3.021 10.06-3.021 16.784zM491.28 59.067l-.7-.545c1.291-4.382 2.271-8.013 2.942-10.891 1.292-5.627 2.26-10.619 2.906-14.976.362-2.515.543-4.253.543-5.212 0-.674-.105-1.154-.313-1.439-.131-.207-.339-.311-.625-.311-.887 0-3.09 1.271-6.61 3.812l-.938-1.284c3.51-2.904 6.578-5.057 9.204-6.457 1.82-.985 3.172-1.478 4.056-1.478.468 0 .845.155 1.131.467.286.311.429.791.429 1.439 0 .7-.181 1.971-.542 3.812-.567 3.268-1.329 7.028-2.284 11.28 2.747-4.797 5.519-8.881 8.317-12.252 1.762-2.126 3.109-3.462 4.042-4.007.932-.544 1.839-.817 2.72-.817.466 0 .984.143 1.555.428-.441 2.282-.882 5.148-1.323 8.596l-1.05.233c-.777-1.037-1.646-1.556-2.604-1.556-.88 0-1.852.363-2.914 1.089-1.709 1.142-3.478 3.092-5.303 5.854-1.826 2.762-3.296 6.101-4.41 10.017-.62 2.126-1.587 6.405-2.903 12.836-2.332.519-4.108.973-5.326 1.362zM515.961 58.911l-.661-.506c1.66-6.535 2.724-10.813 3.191-12.836 1.634-7.235 3.346-15.637 5.137-25.206 1.225-5.419 2.036-9.504 2.434-12.253.092-.519.138-.907.138-1.167 0-.492-.11-.868-.33-1.128-.22-.259-.549-.428-.989-.505-.44-.078-2.225-.117-5.354-.117l.34-1.517c3.773-.623 6.339-1.115 7.698-1.478 1.358-.363 2.893-.92 4.604-1.673l1.011.895c-.624 2.438-1.157 4.643-1.599 6.613l-3.703 17.815c-1.352 6.224-2.404 10.866-3.158 13.925 1.531-2.178 3.62-4.836 6.268-7.974 2.647-3.137 5.047-5.588 7.201-7.352 2.154-1.763 3.983-2.95 5.489-3.559 1.505-.609 2.738-.915 3.698-.915.7 0 1.609.195 2.725.583l-1.322 5.485c-1.221-.363-2.311-.544-3.271-.544-1.375 0-2.731.266-4.068.798-1.337.533-2.901 1.526-4.691 2.98-1.116.857-2.609 2.233-4.477 4.129 1.453 4.389 3.049 8.654 4.789 12.795 1.739 4.141 3.01 6.602 3.815 7.381.441.39.896.584 1.363.584.233 0 .519-.052.856-.156.545-.207 1.155-.492 1.83-.855l2.803-1.673.623 1.479c-3.997 2.931-6.618 4.732-7.864 5.407-.909.518-1.636.778-2.18.778-.286 0-.559-.079-.817-.234-.494-.338-1.084-1.117-1.772-2.338s-1.81-3.767-3.367-7.638c-.675-1.688-2.012-5.377-4.01-11.067-1.817 2.205-2.94 3.67-3.368 4.396-.428.727-.798 1.543-1.109 2.451-.442 1.323-.896 3.203-1.364 5.64l-1.248 7.157-5.291 1.4zM569.626 28.221l.35-1.75c3.179-1.167 5.449-2.191 6.813-3.073 1.296-6.327 2.022-9.776 2.178-10.347.336-1.218.927-2.346 1.77-3.384.843-1.037 2.542-2.554 5.095-4.551 2.554-1.997 4.518-3.306 5.893-3.929.934-.415 1.997-.622 3.189-.622 1.608 0 3.293.35 5.057 1.05-1.037 2.8-1.776 4.953-2.217 6.457l-.856.272c-.648-.907-1.472-1.62-2.47-2.139-.999-.519-2.042-.778-3.131-.778-1.219 0-2.25.272-3.093.816-.843.545-1.523 1.297-2.042 2.256-.519.959-1.076 2.878-1.672 5.757-.856 3.968-1.517 7.196-1.984 9.686 3.293-.078 5.199-.142 5.718-.194.881-.104 1.79-.298 2.723-.583l.35.467c-.597 1.686-1.05 3.216-1.362 4.59-1.453-.078-2.749-.117-3.89-.117-1.063 0-2.487.026-4.271.078l-4.617 21.705c-1.687 7.728-3.141 13.102-4.361 16.123s-2.835 5.686-4.847 7.994c-2.011 2.308-4.12 4.032-6.326 5.173-1.375.726-2.725 1.089-4.048 1.089-.83 0-1.751-.245-2.764-.734.882-2.574 1.491-4.689 1.828-6.346l.974-.233c1.144 1.452 2.482 2.178 4.015 2.178.91 0 1.768-.22 2.573-.662.806-.441 1.599-1.22 2.377-2.336.779-1.116 1.546-3.127 2.3-6.034 1.299-4.906 2.585-11.083 3.859-18.531l3.241-19.387c-1.518-.025-2.534-.039-3.048-.039-.906 0-2.008.026-3.304.078zM591.722 59.067l-.7-.545c1.291-4.382 2.271-8.013 2.942-10.891 1.292-5.627 2.26-10.619 2.906-14.976.362-2.515.543-4.253.543-5.212 0-.674-.105-1.154-.313-1.439-.131-.207-.339-.311-.625-.311-.887 0-3.09 1.271-6.61 3.812l-.938-1.284c3.51-2.904 6.578-5.057 9.204-6.457 1.82-.985 3.172-1.478 4.056-1.478.468 0 .845.155 1.131.467.286.311.429.791.429 1.439 0 .7-.181 1.971-.542 3.812-.567 3.268-1.329 7.028-2.284 11.28 2.747-4.797 5.519-8.881 8.317-12.252 1.762-2.126 3.109-3.462 4.042-4.007.932-.544 1.839-.817 2.72-.817.466 0 .984.143 1.555.428-.441 2.282-.882 5.148-1.323 8.596l-1.05.233c-.777-1.037-1.646-1.556-2.604-1.556-.88 0-1.852.363-2.914 1.089-1.709 1.142-3.478 3.092-5.303 5.854-1.826 2.762-3.296 6.101-4.41 10.017-.62 2.126-1.587 6.405-2.903 12.836-2.332.519-4.108.973-5.326 1.362zM616.43 47.074c0-3.193.336-6.185 1.011-8.975.674-2.791 1.607-5.211 2.801-7.262 1.192-2.051 2.658-3.861 4.396-5.432 1.737-1.571 3.695-2.83 5.874-3.777 2.178-.948 4.279-1.422 6.301-1.422 1.867 0 3.645.409 5.33 1.227 1.686.818 2.994 2.09 3.928 3.816s1.4 4.095 1.4 7.105c0 3.998-.791 7.996-2.373 11.993-1.27 3.167-2.723 5.73-4.355 7.69-1.635 1.96-3.742 3.634-6.322 5.023-2.581 1.388-5.154 2.083-7.721 2.083-3.112 0-5.602-1.006-7.468-3.018-1.868-2.01-2.802-5.027-2.802-9.051zm6.146-.544c0 2.493.272 4.388.818 5.687s1.371 2.285 2.475 2.959c1.104.675 2.423 1.013 3.957 1.013 1.688 0 3.15-.441 4.384-1.324 1.235-.883 2.456-2.505 3.665-4.869 1.209-2.362 2.086-5.146 2.631-8.353.547-3.206.82-6.082.82-8.626 0-3.245-.6-5.718-1.793-7.418-1.197-1.701-2.964-2.551-5.302-2.551-3.742 0-6.62 2.233-8.634 6.698-2.014 4.465-3.021 10.06-3.021 16.784zM653.41 58.678l-.486-.661 1.873-7.954c.701-3.171 1.357-6.251 1.973-9.241 1.021-3.847 1.779-7.213 2.273-10.099.23-1.325.346-2.339.346-3.041 0-.754-.109-1.28-.33-1.579-.223-.299-.488-.449-.799-.449-.391 0-.963.208-1.715.623-1.43.726-2.898 1.621-4.404 2.684l-.545-1.673c1.189-.985 2.82-2.185 4.891-3.598 2.07-1.413 3.801-2.405 5.189-2.976.717-.259 1.338-.389 1.857-.389.521 0 .924.163 1.209.486s.43.835.43 1.537c0 .622-.104 1.517-.307 2.684-.051.363-.801 4.123-2.254 11.28 2.506-3.449 4.6-6.016 6.277-7.702 2.842-2.801 5.748-4.992 8.719-6.574 1.988-1.037 3.732-1.556 5.23-1.556.645 0 1.123.143 1.434.428.311.286.465.727.465 1.323 0 1.011-.139 2.334-.418 3.967-.203 1.116-1.012 4.526-2.424 10.23 2.637-3.64 5.346-6.648 8.125-9.027 2.781-2.378 5.658-4.256 8.635-5.635 2.037-.909 3.721-1.364 5.051-1.364.654 0 1.137.156 1.449.468.314.312.471.807.471 1.482 0 .78-.164 1.977-.494 3.589-.557 2.757-1.666 7.205-3.33 13.343-1.945 7.227-2.918 11.604-2.918 13.132 0 .519.111.914.33 1.185.221.272.475.408.76.408.336 0 .713-.09 1.127-.272.57-.208 1.334-.623 2.287-1.245l3.02-2.101.619 1.556c-1.158.986-2.848 2.23-5.072 3.734-2.225 1.504-4.004 2.528-5.34 3.073-.645.259-1.234.389-1.775.389-.59 0-1.119-.26-1.582-.779-.463-.519-.695-1.247-.695-2.181 0-.727.051-1.401.156-2.024.104-.623.439-1.967 1.008-4.031.566-2.064 1.469-5.653 2.707-10.768 1.047-4.257 1.84-7.308 2.377-9.151.539-1.843.809-2.921.809-3.233 0-.467-.117-.823-.348-1.07-.232-.247-.512-.37-.84-.37-.709 0-1.881.402-3.518 1.206-1.637.803-3.506 2.171-5.605 4.102-2.1 1.932-3.818 3.901-5.154 5.91-1.338 2.009-2.482 4.458-3.438 7.348-.955 2.89-2.201 7.424-3.744 13.603-1.328.26-2.854.635-4.576 1.128l-.457-.545c1.074-4.335 2.193-9.054 3.355-14.156s2.047-9.21 2.65-12.326c.426-2.233.639-3.738.639-4.518 0-.571-.131-1.013-.393-1.324-.184-.233-.443-.351-.785-.351-.707 0-1.584.286-2.631.857-1.598.805-3.338 2.142-5.223 4.011s-3.541 3.966-4.969 6.29c-1.426 2.324-2.598 5.095-3.514 8.315-.918 3.219-1.867 7.399-2.854 12.54-1.81.339-3.411.688-4.804 1.052zM735.74 58.211l.311-2.723c3.268.052 5.291-.064 6.068-.35.389-.13.713-.351.973-.662.363-.467.699-1.453 1.012-2.958.82-4.152 2.02-10.855 3.6-20.107 1.58-9.252 2.865-16.993 3.861-23.222l-2.324-.039c-6.633 0-10.42.344-11.361 1.031-.941.688-1.955 3.534-3.039 8.538h-2.879c.701-3.76 1.361-8.181 1.984-13.264l.428-.467 9.92.389c2.98.104 6.404.155 10.268.155 5.395 0 11.281-.073 17.66-.221 3.346-.098 6.055-.258 8.129-.479l.545.66c-1.115 5.638-1.77 9.019-1.963 10.143-.195 1.125-.332 2.153-.41 3.084h-2.916c.258-2.204.389-4.214.389-6.029 0-1.322-.123-2.139-.371-2.451-.246-.311-.707-.544-1.383-.7-1.197-.259-3.824-.389-7.883-.389-1.898 0-3.344.013-4.332.039l-3.418 17.946c-.99 5.347-2.002 11.186-3.037 17.519-.699 4.231-1.1 6.943-1.203 8.136-.053.519-.078 1.013-.078 1.479 0 .597.117 1.038.35 1.324.234.286.662.493 1.283.623.908.182 2.879.272 5.914.272l-.311 2.723c-6.701-.207-11.146-.311-13.336-.311-2.736 0-6.884.104-12.451.311zM768.42 30.808l-.934-2.179c4.607-3.508 8.094-5.848 10.461-7.018 1.668-.806 3.025-1.208 4.07-1.208.748 0 1.338.24 1.775.719.436.48.652 1.239.652 2.276 0 .855-.09 1.789-.273 2.8-.312 1.66-.951 4.292-1.916 7.896-1.881 7.132-3.027 11.708-3.441 13.731-.285 1.323-.428 2.309-.428 2.956 0 .545.129.947.389 1.206s.584.389.975.389c.52 0 1.129-.22 1.83-.662 1.115-.674 2.531-1.983 4.244-3.929 1.713-1.945 3.154-3.915 4.322-5.912 2-3.371 3.545-6.853 4.641-10.444 1.092-3.591 1.75-6.658 1.973-9.199 2.922-.181 5.742-.687 8.457-1.517l.662.661c-1.01 3.211-2.279 7.679-3.809 13.403s-2.529 9.894-3.002 12.509c-.289 1.709-.434 2.953-.434 3.729 0 .492.104.854.312 1.088.207.233.479.35.816.35.391 0 .805-.117 1.246-.352.623-.339 2.129-1.382 4.518-3.129l.74 2.178-4.316 3.314c-1.686 1.248-3.178 2.268-4.475 3.061-1.295.792-2.385 1.319-3.266 1.579-.623.182-1.219.273-1.789.273-.752 0-1.367-.263-1.848-.788-.48-.525-.719-1.313-.719-2.363 0-.544.051-1.115.156-1.711.209-1.348.59-3.151 1.141-5.407l2.195-8.519c-1.193 2.204-2.385 4.11-3.578 5.718-1.971 2.697-4.211 5.226-6.727 7.585-2.514 2.36-4.834 4.033-6.959 5.018-1.141.519-2.178.778-3.109.778-1.141 0-2.061-.383-2.762-1.147-.699-.765-1.051-1.887-1.051-3.365 0-.959.117-2.048.352-3.267.154-.908.725-3.176 1.711-6.807 1.297-4.797 2.354-8.622 3.17-11.475.584-2.074.875-3.487.875-4.24 0-.596-.104-1.024-.311-1.284-.209-.259-.48-.389-.816-.389-.751.001-2.658 1.032-5.72 3.094zM811.393 59.3l-.975-.934c.582-1.686 1.129-3.514 1.641-5.485 1.094-4.304 1.965-7.844 2.613-10.619.648-2.774 1.408-5.809 2.281-9.102.457-1.737.688-2.93.688-3.579 0-.44-.092-.765-.273-.972s-.402-.312-.662-.312c-.883 0-2.818 1.135-5.805 3.404l-1.053-2.101c4.787-4.054 8.27-6.705 10.441-7.952 1.432-.832 2.641-1.247 3.627-1.247.691 0 1.209.188 1.555.564.346.376.52 1.018.52 1.925 0 1.115-.154 2.438-.459 3.968-.467 2.438-1.52 6.755-3.154 12.953 2.436-4.512 5.547-8.57 9.334-12.175 2.773-2.619 5.443-4.577 8.012-5.874 1.711-.881 3.215-1.323 4.512-1.323 1.088 0 1.918.312 2.488.933.57.622.855 1.528.855 2.72 0 .932-.16 2.163-.479 3.69-.535 2.409-1.654 6.683-3.361 12.821-.797 3.083-1.377 5.725-1.74 7.926-.242 1.477-.361 2.46-.361 2.953s.088.868.266 1.127c.152.181.369.271.648.271.457 0 1.104-.231 1.941-.696 1.32-.722 2.627-1.611 3.924-2.669l.951 2.178c-4.275 3.276-7.697 5.538-10.262 6.786-1.529.728-2.955 1.091-4.277 1.091-.984 0-1.684-.37-2.098-1.108-.416-.739-.623-1.653-.623-2.742 0-2.048.945-6.399 2.836-13.05 1.891-6.652 2.836-10.937 2.836-12.856 0-.492-.137-.875-.408-1.147s-.627-.408-1.066-.408c-.57 0-1.217.208-1.941.622-1.578.908-3.414 2.645-5.51 5.212s-3.758 5.212-4.986 7.935c-1.23 2.723-2.154 5.29-2.775 7.702-.902 3.5-1.455 6.21-1.654 8.129-3.17.262-5.852.741-8.047 1.441zM861.623 57.024c-1.4-1.216-2.102-2.497-2.102-3.843 0-.44.131-1.01.389-1.708 3.242-1.889 5.588-3.39 7.041-4.503l-1.439.039c-2.955 0-5.504-.765-7.643-2.295-2.141-1.53-3.209-4.032-3.209-7.507 0-1.997.363-3.935 1.088-5.815.727-1.879 1.713-3.481 2.957-4.804.934-.985 1.996-1.776 3.189-2.373 2.568-1.296 5.225-2.373 7.975-3.229 1.166-.363 2.268-.545 3.307-.545 1.219 0 2.424.13 3.617.389.648.13 1.518.415 2.605.856l1.283.467c1.738.208 3.592.311 5.562.311.648 0 1.803-.059 3.463-.178.959-.089 1.697-.133 2.217-.133l.428.622-.895 4.045c-.57-.104-1.336-.181-2.295-.233-1.738-.103-2.826-.156-3.268-.156-.285 0-.727.014-1.322.039.596 1.4.895 2.878.895 4.435 0 1.426-.207 2.846-.623 4.259-.414 1.414-.984 2.742-1.711 3.987-.545.96-1.186 1.803-1.926 2.528-.738.727-1.621 1.368-2.645 1.926-1.025.558-2.586 1.251-4.688 2.081-1.529.597-2.527 1.024-2.994 1.283-.961.545-1.674 1.103-2.141 1.673-.285.389-.428.752-.428 1.089 0 .597.305 1.225.914 1.886s2.094 1.796 4.455 3.404c4.123 2.8 6.723 4.946 7.799 6.438 1.074 1.491 1.613 3.17 1.613 5.037 0 3.449-1.453 6.314-4.355 8.597-4.021 3.164-9.297 4.746-15.832 4.746-3.916 0-7.125-.494-9.627-1.479-2.504-.986-4.285-2.239-5.35-3.757-1.062-1.519-1.594-3.095-1.594-4.73 0-1.012.221-2.05.66-3.114.441-1.064 1.104-2.096 1.984-3.095.883-.999 1.938-1.888 3.17-2.667 1.232-.779 2.781-1.545 4.648-2.297l4.828-1.676zm1.711 1.44l-3.891 1.908c-1.555.909-2.717 1.726-3.48 2.454-.766.726-1.381 1.609-1.848 2.647-.467 1.038-.699 2.155-.699 3.349 0 2.206.828 3.997 2.488 5.373 2.178 1.817 5.031 2.726 8.559 2.726 1.555 0 2.969-.188 4.238-.565 1.271-.376 2.334-.876 3.189-1.499.857-.624 1.562-1.416 2.121-2.375.557-.961.836-1.986.836-3.077 0-1.428-.578-2.707-1.73-3.836-1.154-1.128-4.416-3.497-9.783-7.105zm-.428-21.389c0 2.495.525 4.32 1.576 5.476 1.049 1.156 2.482 1.734 4.297 1.734.908 0 1.725-.156 2.451-.467.725-.312 1.4-.78 2.023-1.404.621-.624 1.225-1.519 1.809-2.688.582-1.169 1.035-2.572 1.361-4.209.324-1.637.486-3.157.486-4.56 0-2.676-.592-4.514-1.771-5.515s-2.547-1.5-4.104-1.5c-2.619 0-4.629 1.364-6.029 4.092s-2.099 5.742-2.099 9.041zM890.494 59.261l-.787-.739c1.348-4.512 2.455-8.738 3.328-12.681.553-2.489 1.748-8.635 3.584-18.438 1.969-7.313 3.293-12.823 3.975-16.532.25-1.426.375-2.333.375-2.723 0-.674-.336-1.128-1.008-1.361-.389-.129-2.211-.22-5.469-.272l.4-2.373c2.299-.181 4.797-.603 7.496-1.264 2.697-.662 5.135-1.42 7.312-2.276l.818.662c-.391 1.504-.961 3.89-1.715 7.157-1.324 5.783-2.246 9.893-2.766 12.331l-3.736 17.504c1.789-2.723 3.398-4.901 4.826-6.535 2.125-2.438 4.123-4.396 5.99-5.874 1.375-1.115 2.873-2.133 4.494-3.054 1.623-.92 3.016-1.575 4.184-1.964.855-.259 1.738-.389 2.646-.389 1.088 0 1.9.272 2.432.817.531.545.797 1.4.797 2.567 0 .959-.076 1.893-.232 2.801-.49 2.516-1.346 5.848-2.561 9.997-2.33 7.884-3.586 12.733-3.771 14.548 0 .648.1 1.096.303 1.342.201.247.477.37.828.37.402 0 .861-.117 1.373-.352.754-.364 2.355-1.395 4.805-3.09l.93 2.101c-4.512 3.354-7.766 5.531-9.764 6.531-1.996 1-3.564 1.501-4.705 1.501-.779 0-1.434-.324-1.965-.972s-.797-1.659-.797-3.034c0-.881.104-1.906.311-3.073.156-.856.816-3.462 1.984-7.819 2.395-9.024 3.592-14.106 3.592-15.248 0-.518-.129-.92-.391-1.206-.26-.285-.598-.428-1.014-.428-.703 0-1.586.298-2.652.895-1.795 1.011-3.699 2.723-5.715 5.134s-3.805 5.316-5.363 8.713c-1.145 2.438-2.227 5.809-3.242 10.113-.525 2.049-.801 3.748-.828 5.096-.812.026-1.861.156-3.146.389-2.492.492-4.211.868-5.156 1.128zM933.355 46.619h2.412l.115 3.734c1.115 1.297 2.574 2.379 4.377 3.248 1.801.869 3.662 1.303 5.582 1.303 1.658 0 3.027-.253 4.104-.759 1.076-.505 1.867-1.245 2.373-2.217.506-.972.758-1.938.758-2.897s-.232-1.841-.699-2.646c-.467-.803-1.07-1.394-1.811-1.77-.738-.375-2.145-.759-4.219-1.147-3.631-.7-6.049-1.407-7.256-2.12-1.205-.713-2.158-1.724-2.857-3.034-.701-1.309-1.051-2.716-1.051-4.22 0-1.426.297-2.839.895-4.24.467-1.037 1.115-1.971 1.945-2.801.828-.83 2.34-1.925 4.531-3.287 2.191-1.362 3.914-2.262 5.174-2.704 1.256-.44 2.754-.661 4.492-.661 1.711 0 3.377.201 4.998.603 1.621.403 3.209 1.018 4.766 1.848-.52 2.36-1 5.459-1.439 9.297h-2.334l-.469-3.851c-1.248-1.167-2.664-2.048-4.25-2.645-1.586-.596-3.133-.895-4.641-.895-1.17 0-2.268.247-3.295.739s-1.801 1.173-2.32 2.042c-.52.869-.779 1.809-.779 2.82 0 1.427.494 2.594 1.48 3.501.988.908 3.248 1.673 6.783 2.295 2.287.415 3.729.727 4.326.934 1.145.363 2.15.908 3.021 1.634.871.726 1.566 1.653 2.086 2.781s.779 2.34.779 3.637c0 1.894-.416 3.488-1.244 4.785-.83 1.297-2.219 2.723-4.162 4.279-1.945 1.556-3.684 2.71-5.213 3.462-2.152 1.037-4.797 1.556-7.936 1.556-1.814 0-3.475-.143-4.979-.428-1.09-.208-2.982-.804-5.68-1.79.312-1.063.609-2.58.895-4.551.444-2.801.69-4.746.742-5.835zM966.691 32.169l-.973-2.062 5.33-3.937c2.723-1.922 4.551-3.143 5.484-3.664 1.504-.832 2.84-1.429 4.006-1.793.727-.208 1.361-.312 1.906-.312.623 0 1.174.259 1.652.777.48.518.721 1.23.721 2.136 0 .984-.104 2.007-.311 3.069-.338 1.658-1.27 5.271-2.799 10.84-1.527 5.568-2.473 9.214-2.836 10.936-.361 1.723-.543 2.856-.543 3.4 0 .415.109.739.33.971.221.233.461.35.721.35.311 0 .803-.18 1.479-.542 1.529-.8 3.24-1.845 5.133-3.134l1.051 2.062c-2.049 1.456-4.371 3.022-6.963 4.698-2.594 1.677-4.5 2.735-5.719 3.177-.779.286-1.531.429-2.256.429-.883 0-1.609-.331-2.18-.992s-.855-1.679-.855-3.054c0-1.089.115-2.217.348-3.384.285-1.556.957-4.331 2.018-8.324 2.182-8.247 3.273-13.095 3.273-14.548 0-.337-.086-.596-.254-.778-.168-.181-.383-.272-.643-.272-1.036.003-3.409 1.319-7.12 3.951zm12.02-23.514c0-1.712.525-3.105 1.576-4.182 1.049-1.076 2.34-1.614 3.869-1.614 1.297 0 2.34.396 3.133 1.186.789.792 1.186 1.835 1.186 3.131 0 1.842-.506 3.326-1.518 4.454s-2.295 1.692-3.85 1.692c-1.375 0-2.451-.402-3.229-1.206-.778-.803-1.167-1.957-1.167-3.461zM1028.168 49.323l.855 2.489c-6.369 5.251-10.92 7.877-13.652 7.877-.645 0-1.225-.324-1.74-.972s-.773-1.543-.773-2.684c0-.959.154-2.23.461-3.812.383-2.101 1.326-6.12 2.828-12.059-2.932 4.668-4.645 7.339-5.137 8.013-2.154 2.853-4.186 5.122-6.092 6.807-1.908 1.686-3.938 3.008-6.092 3.968-1.062.492-1.998.739-2.803.739-1.322 0-2.412-.532-3.268-1.595-.857-1.063-1.285-2.878-1.285-5.446 0-3.604.686-7.695 2.061-12.272 1.373-4.577 2.59-7.579 3.652-9.005.777-1.012 2.598-2.606 5.461-4.785s5.072-3.676 6.627-4.493 3.406-1.225 5.559-1.225c1.217 0 2.598.182 4.139.544 1.541.363 2.934.869 4.178 1.517l3.605-2.101 1.283.934c-.586 1.502-1.172 3.497-1.758 5.983-1.764 7.355-3.197 13.662-4.303 18.919-.514 2.538-.77 4.157-.77 4.856 0 .544.084.926.252 1.146.17.22.383.33.643.33.414 0 1.051-.232 1.906-.696 1.192-.668 2.581-1.661 4.163-2.977zm-10.219-22.464c-1.143-.596-2.246-1.037-3.311-1.323-1.066-.285-2.092-.428-3.078-.428-1.818 0-3.357.661-4.617 1.984-1.26 1.322-2.664 4.798-4.209 10.424-1.545 5.627-2.316 9.868-2.316 12.72 0 1.089.154 1.842.467 2.256.311.415.674.622 1.09.622.439 0 .998-.259 1.672-.778 1.945-1.452 3.994-3.637 6.148-6.554 2.152-2.917 3.969-6.042 5.447-9.375 1.479-3.33 2.381-6.514 2.707-9.548zM1031.812 47.164c0-3.215.539-6.561 1.615-10.036 1.076-3.475 2.236-5.977 3.48-7.507.779-.959 2.16-2.223 4.143-3.792 1.984-1.569 4.162-2.865 6.535-3.89 2.373-1.024 4.895-1.536 7.566-1.536 2.229 0 4.266.337 6.105 1.011 1.842.675 3.229 1.55 4.162 2.625.934 1.077 1.621 2.367 2.062 3.871s.662 3.15.662 4.94c0 3.397-.564 6.788-1.693 10.172-1.127 3.384-2.432 5.971-3.908 7.76-1.064 1.245-2.73 2.626-5 4.143-2.268 1.517-4.447 2.671-6.533 3.462-2.088.791-4.441 1.187-7.061 1.187-3.086 0-5.531-.544-7.332-1.634-1.803-1.089-3.055-2.586-3.754-4.493-.699-1.907-1.049-4.001-1.049-6.283zm9.18-.311c0 3.19.604 5.472 1.809 6.846 1.207 1.375 2.912 2.062 5.115 2.062 1.479 0 2.756-.356 3.832-1.069s2.062-1.867 2.957-3.462c.895-1.595 1.717-3.793 2.469-6.593 1.09-4.097 1.635-8.013 1.635-11.748 0-3.163-.629-5.452-1.887-6.865-1.258-1.413-2.898-2.12-4.922-2.12-2.074 0-3.85.772-5.328 2.314-1.479 1.543-2.795 4.48-3.947 8.811-1.155 4.33-1.733 8.271-1.733 11.824zM1091.33 58.211l.428-2.412c2.879-.725 4.42-1.152 4.629-1.282.285-.181.518-.454.699-.816.307-.648.852-3.355 1.631-8.123 2.076-12.981 3.311-20.729 3.697-23.243 1.359-8.266 2.039-12.787 2.039-13.564 0-.622-.143-1.068-.428-1.341s-.895-.46-1.828-.563l-4.939-.35.459-2.723c1.455 0 3.949.072 7.484.214 3.537.143 5.943.214 7.219.214 1.354 0 2.77-.039 4.25-.117l6.242-.311-.428 2.723h-.857c-2.955-.025-4.822.157-5.6.547-.312.156-.572.404-.779.742-.348.625-.846 2.903-1.494 6.835-.834 5.052-1.674 10.194-2.521 15.428l-3.916 23.708c3.941.26 7.184.389 9.725.389 4.383 0 7.779-.285 10.191-.856.959-.233 1.621-.583 1.984-1.05.492-.674 1.557-3.462 3.189-8.363h2.801c-1.453 6.068-2.387 10.736-2.801 14.003-1.438.208-3.004.311-4.697.311-2.053 0-5.107-.052-9.162-.156-7.598-.155-11.959-.233-13.09-.233-6.057 0-10.766.13-14.127.389zM1136.066 32.169l-.973-2.062 5.33-3.937c2.723-1.922 4.551-3.143 5.484-3.664 1.504-.832 2.84-1.429 4.006-1.793.727-.208 1.361-.312 1.906-.312.623 0 1.174.259 1.652.777.48.518.721 1.23.721 2.136 0 .984-.104 2.007-.311 3.069-.338 1.658-1.27 5.271-2.799 10.84-1.527 5.568-2.473 9.214-2.836 10.936-.361 1.723-.543 2.856-.543 3.4 0 .415.109.739.33.971.221.233.461.35.721.35.311 0 .803-.18 1.479-.542 1.529-.8 3.24-1.845 5.133-3.134l1.051 2.062c-2.049 1.456-4.371 3.022-6.963 4.698-2.594 1.677-4.5 2.735-5.719 3.177-.779.286-1.531.429-2.256.429-.883 0-1.609-.331-2.18-.992s-.855-1.679-.855-3.054c0-1.089.115-2.217.348-3.384.285-1.556.957-4.331 2.018-8.324 2.182-8.247 3.273-13.095 3.273-14.548 0-.337-.086-.596-.254-.778-.168-.181-.383-.272-.643-.272-1.036.003-3.409 1.319-7.12 3.951zm12.02-23.514c0-1.712.525-3.105 1.576-4.182 1.049-1.076 2.34-1.614 3.869-1.614 1.297 0 2.34.396 3.133 1.186.789.792 1.186 1.835 1.186 3.131 0 1.842-.506 3.326-1.518 4.454s-2.295 1.692-3.85 1.692c-1.375 0-2.451-.402-3.229-1.206-.778-.803-1.167-1.957-1.167-3.461zM1159.682 30.808l-.934-2.179c4.605-3.508 8.094-5.848 10.459-7.018 1.668-.806 3.025-1.208 4.072-1.208.746 0 1.338.24 1.773.719.436.48.654 1.239.654 2.276 0 .855-.092 1.789-.273 2.8-.312 1.66-.951 4.292-1.916 7.896-1.881 7.132-3.029 11.708-3.443 13.731-.285 1.323-.428 2.309-.428 2.956 0 .545.131.947.391 1.206.258.259.584.389.973.389.52 0 1.129-.22 1.83-.662 1.117-.674 2.531-1.983 4.246-3.929 1.713-1.945 3.154-3.915 4.322-5.912 1.998-3.371 3.545-6.853 4.639-10.444 1.094-3.591 1.752-6.658 1.975-9.199 2.922-.181 5.74-.687 8.457-1.517l.66.661c-1.01 3.211-2.279 7.679-3.807 13.403-1.529 5.724-2.529 9.894-3.002 12.509-.291 1.709-.434 2.953-.434 3.729 0 .492.104.854.311 1.088s.48.35.818.35c.389 0 .805-.117 1.246-.352.623-.339 2.129-1.382 4.518-3.129l.74 2.178-4.318 3.314c-1.686 1.248-3.176 2.268-4.473 3.061-1.297.792-2.385 1.319-3.268 1.579-.621.182-1.219.273-1.787.273-.754 0-1.369-.263-1.848-.788-.48-.525-.721-1.313-.721-2.363 0-.544.053-1.115.158-1.711.209-1.348.59-3.151 1.139-5.407l2.195-8.519c-1.191 2.204-2.385 4.11-3.576 5.718-1.971 2.697-4.213 5.226-6.727 7.585-2.514 2.36-4.834 4.033-6.959 5.018-1.141.519-2.178.778-3.111.778-1.141 0-2.061-.383-2.76-1.147-.701-.765-1.051-1.887-1.051-3.365 0-.959.117-2.048.35-3.267.156-.908.727-3.176 1.711-6.807 1.297-4.797 2.354-8.622 3.172-11.475.584-2.074.875-3.487.875-4.24 0-.596-.104-1.024-.312-1.284-.207-.259-.48-.389-.816-.389-.752.001-2.66 1.032-5.72 3.094z"/></g><g><path d="M9.3 135.551v-1.854c1.438-.018 2.335-.077 2.689-.177.355-.1.683-.291.983-.573.3-.282.733-1.013 1.297-2.195.327-.672 1.511-3.227 3.55-7.664l6.827-15.381c.747-1.691 2.339-5.454 4.779-11.291h1.746l11.662 27.354c1.894 4.436 3.149 7.218 3.769 8.345.346.636.724 1.054 1.134 1.254.41.2 1.333.309 2.772.327v1.854c-2.841-.182-4.826-.273-5.955-.273l-8.789.273v-1.854c2.036-.036 3.273-.1 3.709-.191.437-.091.732-.223.886-.396.155-.172.232-.386.232-.641 0-.4-.127-.918-.382-1.555l-3.35-8.345h-15.793l-2.962 7.009c-.529 1.254-.793 2.173-.793 2.754 0 .255.073.464.219.627.201.236.51.4.929.491.672.146 1.854.228 3.545.246v1.854c-3.074-.164-5.376-.246-6.908-.246-1.767.002-3.7.084-5.796.248zm12.705-15.3h13.748l-6.79-16.413-6.958 16.413zM66.028 135.551v-1.309c1.043-.6 1.916-1.146 2.618-1.636.109-1.234.2-2.95.273-5.146.127-3.739.191-6.334.191-7.787v-11.109c0-1.778-.045-3.866-.136-6.262-.073-1.507-.201-2.441-.384-2.804-.128-.236-.32-.409-.576-.518-.604-.254-1.856-.39-3.758-.408v-1.745c2.654.091 5 .136 7.036.136 1.563 0 3.695-.031 6.396-.095 2.7-.063 4.795-.096 6.286-.096 4.454 0 8.036.568 10.745 1.703 2.709 1.136 5.009 3.039 6.9 5.71s2.836 5.932 2.836 9.784c0 2.762-.445 5.351-1.335 7.767-.891 2.417-2.099 4.529-3.625 6.336-1.526 1.808-3.161 3.238-4.905 4.292-1.744 1.054-3.575 1.849-5.492 2.385-1.917.536-4.547.804-7.889.804-1.109 0-2.607-.032-4.497-.095-2.471-.064-4.088-.096-4.851-.096-1.109-.002-3.053.062-5.833.189zm8.427-2.973c2 .346 4.109.518 6.327.518 2.291 0 4.313-.2 6.068-.6 1.754-.399 3.254-.962 4.5-1.689 1.245-.727 2.45-1.798 3.614-3.215 1.163-1.417 2.059-3.229 2.686-5.436.627-2.208.941-4.492.941-6.854 0-3.379-.604-6.281-1.813-8.706s-3.032-4.283-5.468-5.572c-2.437-1.29-5.782-1.935-10.036-1.935-2.236 0-4.509.173-6.818.518-.055.89-.1 2.471-.136 4.741l-.109 3.951v10.873l.082 8.448c.017 1.289.071 2.942.162 4.958zM129.764 131.317l-.873 1.963c-1.255.784-2.173 1.303-2.754 1.559-.855.382-1.832.706-2.932.97s-2.259.396-3.477.396c-2.4 0-4.573-.5-6.518-1.5-1.945-1-3.459-2.496-4.541-4.486-1.082-1.991-1.623-4.323-1.623-6.996 0-2.09.287-3.977.859-5.659.573-1.682 1.223-2.922 1.95-3.723.527-.582 1.345-1.25 2.455-2.004 1.109-.754 2.209-1.35 3.3-1.787 1.436-.6 2.991-.9 4.664-.9 2.036 0 3.877.464 5.522 1.391s2.85 2.191 3.614 3.791c.764 1.6 1.146 3.409 1.146 5.427 0 .509-.046 1.127-.137 1.854-1.307.255-2.478.418-3.513.491-1.96.146-3.921.218-5.882.218h-8.741c.036 2.607.486 4.716 1.35 6.33.863 1.613 2.054 2.802 3.573 3.568 1.518.765 3.095 1.148 4.731 1.148 1.109 0 2.213-.18 3.313-.539s2.459-1.018 4.077-1.977l.437.465zm-17.482-11.148c.509.055 1.473.109 2.891.164 2.708.091 4.572.136 5.591.136 2.417 0 4.009-.045 4.772-.136.018-.437.027-.772.027-1.009 0-2.873-.582-4.981-1.746-6.327s-2.718-2.019-4.664-2.019c-2.055 0-3.709.737-4.963 2.209s-1.89 3.801-1.908 6.982zM132.546 114.169v-1.146c1.75-.69 3.14-1.309 4.173-1.854v-8.291c1.891-.654 3.427-1.354 4.609-2.1l.654.545c-.2 1.509-.418 4.836-.654 9.981 1.454.018 2.327.027 2.618.027.164 0 1.1-.018 2.809-.055.945-.018 1.654-.055 2.127-.109l.191.191-.573 2.537c-1.146-.018-2.2-.027-3.164-.027s-2.3.009-4.009.027l-.136 11.1c-.055 2.709-.037 4.327.054 4.854s.263.986.517 1.377c.253.391.584.705.992.941.407.237 1.1.418 2.079.545.743 0 1.345-.031 1.807-.095.462-.063 1.046-.223 1.752-.478l.326 1.064c-.854.673-1.68 1.373-2.479 2.1-.69.254-1.335.423-1.935.505-.599.082-1.289.123-2.069.123-.963 0-1.73-.109-2.302-.327s-1.094-.522-1.566-.914-.865-.887-1.178-1.486c-.313-.6-.516-1.545-.608-2.836.018-1.236.055-2.591.109-4.063.018-.291.027-.609.027-.955v-11.318h-1.118c-.908.001-1.925.047-3.053.137zM154.311 116.87l-1.445-.382c.018-.418.027-.991.027-1.718 0-.764-.009-1.373-.027-1.827 2.312-1.509 4.206-2.527 5.681-3.055 1.128-.382 2.394-.573 3.796-.573 2.075 0 3.823.392 5.243 1.173 1.42.782 2.477 1.9 3.169 3.354.473 1.019.71 2.409.71 4.173l-.137 4.991v8.127c0 .873.073 1.5.218 1.882.109.272.282.473.518.6.182.109.563.182 1.146.218l1.773.164v1.555c-1.491-.127-2.8-.191-3.927-.191-1.091 0-2.546.064-4.364.191l.137-4.8c-3.709 2.8-5.909 4.377-6.6 4.731s-1.564.532-2.618.532c-2.2 0-3.914-.586-5.141-1.759s-1.841-2.731-1.841-4.677c0-1.254.213-2.4.641-3.436.427-1.037.941-1.859 1.541-2.468s1.209-1.059 1.827-1.35c1.054-.491 2.768-1.018 5.141-1.582 2.373-.563 4.722-.982 7.05-1.254.018-1.727-.191-3.073-.627-4.037-.437-.963-1.173-1.754-2.209-2.373-1.037-.618-2.3-.927-3.791-.927-1.073 0-2.014.146-2.822.437-.81.291-1.305.537-1.486.736l-.491.982c-.492 1.09-.856 1.944-1.092 2.563zm12.518 4.281c-2.364.4-4.382.845-6.055 1.336-1.673.491-2.854 1-3.545 1.527-.418.31-.782.773-1.091 1.391-.473.909-.709 1.918-.709 3.027 0 1.346.373 2.396 1.118 3.15.745.755 1.782 1.132 3.109 1.132 1.218 0 2.423-.35 3.614-1.05 1.19-.7 2.377-1.75 3.559-3.15v-7.363zM176.429 113.106v-1.555c3.527-.399 6.491-1.163 8.891-2.291l.6.436c-.146 3.873-.218 6.836-.218 8.891v4.964c.091 4.727.146 7.281.164 7.663.018.91.118 1.573.3 1.991.091.164.209.305.354.422.146.119.363.214.654.287.109.018 1.118.045 3.027.082v1.555c-2.764-.127-4.973-.191-6.627-.191-1.455 0-3.836.064-7.146.191v-1.555l2.607-.027c.384-.018.681-.086.892-.205s.371-.268.48-.45c.201-.363.329-1.009.384-1.937 0-.236.045-2.845.136-7.827v-4.8c0-2.709-.091-4.318-.272-4.827-.109-.273-.305-.478-.586-.614-.281-.135-1.494-.203-3.64-.203zm6.655-15.954c.854 0 1.577.3 2.168.9.59.6.886 1.328.886 2.182 0 .837-.3 1.555-.9 2.155s-1.318.9-2.154.9c-.855 0-1.582-.3-2.182-.9s-.9-1.318-.9-2.155c0-.854.3-1.582.9-2.182s1.327-.9 2.182-.9zM191.729 135.551v-1.555l2.564-.027c.399-.018.704-.086.914-.204.208-.118.368-.268.477-.45.2-.363.318-1.008.354-1.935.018-.236.082-2.843.191-7.821v-11.309c0-3.034-.045-6.167-.136-9.402-.073-2.18-.174-3.397-.302-3.651-.092-.182-.238-.309-.439-.381-.274-.127-1.537-.191-3.787-.191v-1.609c4.109-.509 6.963-1.146 8.563-1.909.236-.109.418-.164.545-.164.127 0 .227.041.3.123.072.082.109.196.109.341 0 .127-.018.309-.055.545l-.027.899c-.091 3.252-.146 6.023-.164 8.312l-.054 4.251v14.145c.076 4.724.121 7.276.136 7.658.018.908.128 1.571.33 1.989.073.164.182.305.329.422.146.118.366.213.659.286.128.018 1.144.045 3.046.082v1.555c-2.473-.127-4.646-.191-6.518-.191-1.78 0-4.125.064-7.035.191zM229.584 131.317l-.873 1.963c-1.255.784-2.173 1.303-2.754 1.559-.855.382-1.832.706-2.932.97s-2.259.396-3.477.396c-2.4 0-4.573-.5-6.518-1.5-1.945-1-3.459-2.496-4.541-4.486-1.082-1.991-1.623-4.323-1.623-6.996 0-2.09.287-3.977.859-5.659.573-1.682 1.223-2.922 1.95-3.723.527-.582 1.345-1.25 2.455-2.004 1.109-.754 2.209-1.35 3.3-1.787 1.436-.6 2.991-.9 4.664-.9 2.036 0 3.877.464 5.522 1.391s2.85 2.191 3.614 3.791c.764 1.6 1.146 3.409 1.146 5.427 0 .509-.046 1.127-.137 1.854-1.307.255-2.478.418-3.513.491-1.96.146-3.921.218-5.882.218h-8.741c.036 2.607.486 4.716 1.35 6.33.863 1.613 2.054 2.802 3.573 3.568 1.518.765 3.095 1.148 4.731 1.148 1.109 0 2.213-.18 3.313-.539s2.459-1.018 4.077-1.977l.437.465zm-17.481-11.148c.509.055 1.473.109 2.891.164 2.708.091 4.572.136 5.591.136 2.417 0 4.009-.045 4.772-.136.018-.437.027-.772.027-1.009 0-2.873-.582-4.981-1.746-6.327s-2.718-2.019-4.664-2.019c-2.055 0-3.709.737-4.963 2.209s-1.89 3.801-1.908 6.982zM249.63 98.516v-1.555c2.018-.218 3.723-.477 5.114-.777 1.391-.3 2.75-.668 4.077-1.104l.354.246c-.073 1.545-.155 4.527-.246 8.945l-.109 4.363v17.072c0 1.854.031 3.459.095 4.813.063 1.354.177 2.164.341 2.427.164.264.437.477.818.641.382.164 1.518.327 3.409.491v1.473c-2.218-.127-3.782-.191-4.69-.191-.782 0-2.382.064-4.8.191.054-1.254.1-2.945.136-5.073-.728.528-1.705 1.318-2.932 2.373-1.228 1.054-2.187 1.918-2.877 2.591-1.455.363-2.736.545-3.845.545-2.055 0-3.945-.509-5.672-1.527-1.728-1.018-3.06-2.496-3.996-4.432-.937-1.937-1.404-4.113-1.404-6.532 0-1.818.286-3.541.859-5.168.573-1.627 1.295-2.886 2.168-3.777.491-.509 1.609-1.282 3.354-2.318 1.746-1.037 3.159-1.787 4.241-2.25 1.082-.464 2.259-.695 3.532-.695 1.146 0 2.268.141 3.368.422 1.1.282 2.168.714 3.205 1.295v-7.172c0-2.527-.109-4.063-.327-4.609-.073-.2-.209-.345-.409-.437-.364-.162-1.619-.253-3.764-.271zm4.5 17.149c-1.237-1.362-2.532-2.356-3.886-2.982-1.354-.626-2.687-.94-3.996-.94-1.491 0-2.863.381-4.118 1.145-1.255.763-2.214 1.915-2.877 3.458-.664 1.543-.996 3.396-.996 5.556 0 3.323.827 5.919 2.48 7.79 1.654 1.871 3.644 2.805 5.971 2.805 1.218 0 2.308-.254 3.271-.762.963-.508 1.809-1.253 2.538-2.233.729-.98 1.193-2.07 1.394-3.269.146-.799.219-2.769.219-5.911v-4.657zM294.277 133.805v1.746c-3.866-.127-6.407-.191-7.624-.191l-8.413.191v-1.746c2.134-.036 3.437-.131 3.907-.286s.796-.368.977-.641c.217-.363.353-1.244.407-2.644.022-.381.068-2.961.136-7.739v-12.618c0-2.471-.027-4.887-.082-7.249-.054-1.726-.187-2.748-.396-3.066s-.545-.554-1.009-.708c-.464-.154-1.777-.25-3.941-.287v-1.745c3.467.127 6.144.191 8.032.191 1.815 0 4.483-.063 8.004-.191v1.745c-2.153.037-3.46.132-3.921.287s-.782.368-.963.64c-.217.363-.353 1.245-.407 2.644-.023.363-.068 2.943-.136 7.739v12.618c0 2.471.027 4.878.082 7.221.055 1.726.187 2.752.396 3.08s.545.568 1.009.722c.464.156 1.778.251 3.942.287zM295.423 135.551v-1.555l2.607-.027c.384-.018.682-.086.892-.205s.37-.268.48-.45c.201-.363.33-1.009.384-1.937 0-.236.045-2.845.137-7.827v-3.246c0-1.454-.027-3.018-.082-4.69-.055-1.073-.141-1.709-.259-1.909s-.323-.35-.613-.45c-.291-.1-1.473-.141-3.545-.123v-1.555c3.672-.509 6.354-1.172 8.045-1.991.364-.182.609-.273.737-.273.127 0 .227.046.3.137.072.091.109.228.109.409l-.027.436c-.054.655-.109 2.037-.164 4.146l5.073-4.336c1.491-.545 2.9-.818 4.227-.818 1.473 0 2.868.3 4.187.9 1.318.6 2.309 1.354 2.973 2.264.663.909 1.104 2.055 1.322 3.436.127.818.191 3.1.191 6.845v4.827c0 2.364.063 3.973.191 4.827.091.545.232.923.423 1.132s.486.341.886.396l2.918.082v1.555c-1.782-.127-3.264-.191-4.445-.191-1.019 0-2.709.064-5.073.191.254-4.491.382-7.327.382-8.509v-4.582c0-2.854-.109-4.727-.327-5.618-.31-1.218-1.009-2.2-2.1-2.945s-2.409-1.118-3.955-1.118c-1.363 0-2.609.322-3.736.967s-1.932 1.39-2.414 2.236c-.482.845-.723 2.268-.723 4.268v3.3c.091 4.728.137 7.282.137 7.664.037.909.146 1.573.329 1.991.073.164.183.305.329.422.146.119.375.214.687.287.109.018 1.116.045 3.019.082v1.555c-2.218-.127-4.227-.191-6.027-.191-1.529 0-4.021.064-7.475.191zM327.305 114.169v-1.146c1.75-.69 3.14-1.309 4.173-1.854v-8.291c1.891-.654 3.427-1.354 4.609-2.1l.654.545c-.2 1.509-.418 4.836-.654 9.981 1.454.018 2.327.027 2.618.027.164 0 1.1-.018 2.809-.055.945-.018 1.654-.055 2.127-.109l.191.191-.573 2.537c-1.146-.018-2.2-.027-3.164-.027s-2.3.009-4.009.027l-.136 11.1c-.055 2.709-.037 4.327.054 4.854s.263.986.517 1.377c.253.391.584.705.992.941.407.237 1.1.418 2.079.545.743 0 1.345-.031 1.807-.095.462-.063 1.046-.223 1.752-.478l.326 1.064c-.854.673-1.68 1.373-2.479 2.1-.69.254-1.335.423-1.935.505-.599.082-1.289.123-2.069.123-.963 0-1.73-.109-2.302-.327s-1.094-.522-1.566-.914-.865-.887-1.178-1.486c-.313-.6-.516-1.545-.608-2.836.018-1.236.055-2.591.109-4.063.018-.291.027-.609.027-.955v-11.318h-1.118c-.908.001-1.925.047-3.053.137zM344.433 135.551v-1.555c2.066-.036 3.182-.072 3.346-.109.311-.055.544-.141.7-.259.155-.118.279-.286.371-.504.182-.418.292-1.073.329-1.963.09-4.854.136-7.391.136-7.609v-3.246c0-1.454-.027-3.018-.082-4.69-.037-1.073-.114-1.709-.232-1.909s-.327-.35-.627-.45c-.3-.1-1.486-.141-3.559-.123v-1.555c3.672-.509 6.354-1.172 8.045-1.991.363-.182.609-.273.736-.273s.227.046.3.137c.072.091.109.228.109.409l-.027.436c-.091 1.109-.146 2.828-.164 5.154.818-.945 1.573-1.881 2.264-2.809s1.191-1.527 1.5-1.8c.545-.473 1.173-.85 1.882-1.132.709-.282 1.445-.422 2.209-.422s1.518.164 2.264.491l.164.382c-.272 2.418-.427 4.545-.463 6.381h-1.228c-.418-.873-.905-1.509-1.459-1.909-.555-.4-1.25-.6-2.086-.6-1.4 0-2.591.578-3.572 1.732-.982 1.155-1.473 2.886-1.473 5.195v2.809c0 1.2.045 3.391.137 6.572.018 1.127.063 1.846.136 2.154.072.31.168.532.286.668s.314.25.586.341c.545.164 2.018.327 4.418.491v1.555c-3.2-.127-5.927-.191-8.181-.191-2.329.001-4.583.065-6.765.192zM365.952 122.993c0-4.077 1.295-7.403 3.886-9.979 2.591-2.575 5.914-3.863 9.968-3.863 3.818 0 6.927 1.201 9.327 3.604 2.4 2.402 3.6 5.505 3.6 9.309 0 2.657-.619 5.087-1.854 7.289-1.237 2.203-2.982 3.926-5.236 5.173-2.255 1.247-4.736 1.87-7.445 1.87-2.109 0-3.896-.355-5.359-1.064-1.464-.709-2.65-1.602-3.559-2.675s-1.6-2.175-2.073-3.303c-.837-1.985-1.255-4.105-1.255-6.361zm5.154-2.021c0 2.239.373 4.515 1.118 6.826s1.823 4 3.232 5.065c1.409 1.065 2.94 1.597 4.595 1.597 2.109 0 3.873-.837 5.291-2.512 1.418-1.674 2.127-4.25 2.127-7.727 0-2.895-.423-5.393-1.268-7.495-.846-2.103-1.923-3.586-3.232-4.451s-2.754-1.297-4.336-1.297c-2.236 0-4.05.811-5.441 2.431s-2.086 4.141-2.086 7.563zM411.988 98.516v-1.555c2.018-.218 3.723-.477 5.114-.777 1.391-.3 2.75-.668 4.077-1.104l.354.246c-.073 1.545-.155 4.527-.246 8.945l-.109 4.363v17.072c0 1.854.031 3.459.095 4.813.063 1.354.177 2.164.341 2.427.164.264.437.477.818.641.382.164 1.518.327 3.409.491v1.473c-2.218-.127-3.782-.191-4.69-.191-.782 0-2.382.064-4.8.191.054-1.254.1-2.945.136-5.073-.728.528-1.705 1.318-2.932 2.373-1.228 1.054-2.187 1.918-2.877 2.591-1.455.363-2.736.545-3.845.545-2.055 0-3.945-.509-5.672-1.527-1.728-1.018-3.06-2.496-3.996-4.432-.937-1.937-1.404-4.113-1.404-6.532 0-1.818.286-3.541.859-5.168.573-1.627 1.295-2.886 2.168-3.777.491-.509 1.609-1.282 3.354-2.318 1.746-1.037 3.159-1.787 4.241-2.25 1.082-.464 2.259-.695 3.532-.695 1.146 0 2.268.141 3.368.422 1.1.282 2.168.714 3.205 1.295v-7.172c0-2.527-.109-4.063-.327-4.609-.073-.2-.209-.345-.409-.437-.364-.162-1.619-.253-3.764-.271zm4.5 17.149c-1.237-1.362-2.532-2.356-3.886-2.982-1.354-.626-2.687-.94-3.996-.94-1.491 0-2.863.381-4.118 1.145-1.255.763-2.214 1.915-2.877 3.458-.664 1.543-.996 3.396-.996 5.556 0 3.323.827 5.919 2.48 7.79 1.654 1.871 3.644 2.805 5.971 2.805 1.218 0 2.308-.254 3.271-.762.963-.508 1.809-1.253 2.538-2.233.729-.98 1.193-2.07 1.394-3.269.146-.799.219-2.769.219-5.911v-4.657zM458.733 133.996v1.555c-2.382-.127-4.182-.191-5.4-.191-1.346 0-2.709.064-4.091.191.109-1.473.191-3.127.246-4.963-1.091.873-2.391 2.063-3.9 3.573-.345.345-.682.6-1.008.763-.781.437-1.562.75-2.344.941-.781.191-1.716.287-2.806.287-1.472 0-2.703-.2-3.692-.6-.991-.4-1.84-1.009-2.548-1.827-.531-.6-.938-1.377-1.221-2.332-.284-.954-.425-2.104-.425-3.45 0-.636.022-1.236.068-1.8s.068-1.118.068-1.664v-4.664c0-.473-.027-1.664-.082-3.573-.037-1.2-.118-1.981-.245-2.345-.073-.182-.191-.327-.354-.437-.273-.182-.755-.272-1.446-.272-1 0-1.791-.009-2.373-.027v-1.555c3.909-.437 6.745-1.136 8.509-2.1.291-.164.519-.245.682-.245.127 0 .231.045.313.136.082.091.123.228.123.409 0 .146-.009.327-.027.545-.073.582-.136 1.7-.191 3.354-.109 3.037-.164 5.072-.164 6.109v5.318c0 2.218.15 3.777.45 4.677s.881 1.618 1.745 2.154c.863.537 1.931.805 3.203.805.872 0 1.74-.15 2.603-.451s1.64-.734 2.331-1.299c.51-.417 1.029-.98 1.558-1.689.4-.526.664-.931.792-1.212.127-.281.209-.694.246-1.239.091-1.6.136-3.191.136-4.773v-2.291c0-.473-.027-1.664-.082-3.573-.037-1.2-.118-1.981-.245-2.345-.073-.182-.191-.327-.354-.437-.273-.182-.755-.272-1.446-.272-1 0-1.791-.009-2.373-.027v-1.555c3.898-.437 6.726-1.136 8.485-2.1.29-.164.517-.245.68-.245.127 0 .231.045.313.136.082.091.122.228.122.409l-.025.545c-.05.582-.108 1.736-.175 3.463-.103 2.964-.155 4.963-.155 6v3.736l.055 3.791c.068 2.2.113 3.491.136 3.873.018.91.118 1.573.298 1.991.09.164.208.305.352.422.145.119.361.214.651.287.107.02 1.11.047 3.007.083zM482.706 132.442l-1.091 1.827c-1.254.673-2.495 1.164-3.723 1.473-1.227.309-2.614.463-4.159.463-3.818 0-6.859-1.151-9.123-3.453-2.264-2.302-3.396-5.464-3.396-9.487 0-2.129.304-3.981.914-5.555.609-1.574 1.359-2.789 2.25-3.645.6-.6 1.741-1.378 3.423-2.333 1.681-.956 2.859-1.57 3.532-1.843 1.236-.527 2.718-.792 4.445-.792 1.636 0 3.109.173 4.418.518.836.218 1.672.582 2.509 1.091-.211 1.4-.36 2.459-.448 3.177s-.202 2.023-.342 3.914h-1.555c-.109-1.764-.219-2.864-.328-3.3-.073-.273-.237-.519-.492-.736-.656-.509-1.498-.95-2.527-1.323-1.03-.373-2.154-.559-3.375-.559-1.531 0-2.856.314-3.976.942-1.121.628-1.99 1.625-2.609 2.99-.62 1.365-.929 3.058-.929 5.079 0 2.476.436 4.715 1.309 6.717.873 2.003 2.059 3.463 3.559 4.383 1.5.919 3.177 1.379 5.031 1.379.927 0 1.832-.113 2.714-.341.881-.228 2.013-.659 3.395-1.295l.574.709zM483.962 114.169v-1.146c1.75-.69 3.14-1.309 4.173-1.854v-8.291c1.891-.654 3.427-1.354 4.609-2.1l.654.545c-.2 1.509-.418 4.836-.654 9.981 1.454.018 2.327.027 2.618.027.164 0 1.1-.018 2.809-.055.945-.018 1.654-.055 2.127-.109l.191.191-.573 2.537c-1.146-.018-2.2-.027-3.164-.027s-2.3.009-4.009.027l-.136 11.1c-.055 2.709-.037 4.327.054 4.854s.263.986.517 1.377c.253.391.584.705.992.941.407.237 1.1.418 2.079.545.743 0 1.345-.031 1.807-.095.462-.063 1.046-.223 1.752-.478l.326 1.064c-.854.673-1.68 1.373-2.479 2.1-.69.254-1.335.423-1.935.505-.599.082-1.289.123-2.069.123-.963 0-1.73-.109-2.302-.327s-1.094-.522-1.566-.914-.865-.887-1.178-1.486c-.313-.6-.516-1.545-.608-2.836.018-1.236.055-2.591.109-4.063.018-.291.027-.609.027-.955v-11.318h-1.118c-.908.001-1.926.047-3.053.137zM501.035 113.106v-1.555c3.527-.399 6.491-1.163 8.891-2.291l.6.436c-.146 3.873-.218 6.836-.218 8.891v4.964c.091 4.727.146 7.281.164 7.663.018.91.118 1.573.3 1.991.091.164.209.305.354.422.146.119.363.214.654.287.109.018 1.118.045 3.027.082v1.555c-2.764-.127-4.973-.191-6.627-.191-1.455 0-3.836.064-7.146.191v-1.555l2.607-.027c.384-.018.681-.086.892-.205s.371-.268.48-.45c.201-.363.329-1.009.384-1.937 0-.236.045-2.845.136-7.827v-4.8c0-2.709-.091-4.318-.272-4.827-.109-.273-.305-.478-.586-.614-.281-.135-1.494-.203-3.64-.203zm6.655-15.954c.854 0 1.577.3 2.168.9.59.6.886 1.328.886 2.182 0 .837-.3 1.555-.9 2.155s-1.318.9-2.154.9c-.855 0-1.582-.3-2.182-.9s-.9-1.318-.9-2.155c0-.854.3-1.582.9-2.182s1.327-.9 2.182-.9zM516.799 122.993c0-4.077 1.295-7.403 3.886-9.979 2.591-2.575 5.914-3.863 9.968-3.863 3.818 0 6.927 1.201 9.327 3.604 2.4 2.402 3.6 5.505 3.6 9.309 0 2.657-.619 5.087-1.854 7.289-1.237 2.203-2.982 3.926-5.236 5.173-2.255 1.247-4.736 1.87-7.445 1.87-2.109 0-3.896-.355-5.359-1.064-1.464-.709-2.65-1.602-3.559-2.675s-1.6-2.175-2.073-3.303c-.837-1.985-1.255-4.105-1.255-6.361zm5.155-2.021c0 2.239.373 4.515 1.118 6.826s1.823 4 3.232 5.065c1.409 1.065 2.94 1.597 4.595 1.597 2.109 0 3.873-.837 5.291-2.512 1.418-1.674 2.127-4.25 2.127-7.727 0-2.895-.423-5.393-1.268-7.495-.846-2.103-1.923-3.586-3.232-4.451s-2.754-1.297-4.336-1.297c-2.236 0-4.05.811-5.441 2.431s-2.086 4.141-2.086 7.563zM545.082 135.551v-1.555l2.607-.027c.384-.018.682-.086.892-.205s.37-.268.48-.45c.201-.363.33-1.009.384-1.937 0-.236.045-2.845.137-7.827v-3.246c0-1.454-.027-3.018-.082-4.69-.055-1.073-.141-1.709-.259-1.909s-.323-.35-.613-.45c-.291-.1-1.473-.141-3.545-.123v-1.555c3.672-.509 6.354-1.172 8.045-1.991.364-.182.609-.273.737-.273.127 0 .227.046.3.137.072.091.109.228.109.409l-.027.436c-.054.655-.109 2.037-.164 4.146l5.073-4.336c1.491-.545 2.9-.818 4.227-.818 1.473 0 2.868.3 4.187.9 1.318.6 2.309 1.354 2.973 2.264.663.909 1.104 2.055 1.322 3.436.127.818.191 3.1.191 6.845v4.827c0 2.364.063 3.973.191 4.827.091.545.232.923.423 1.132s.486.341.886.396l2.918.082v1.555c-1.782-.127-3.264-.191-4.445-.191-1.019 0-2.709.064-5.073.191.254-4.491.382-7.327.382-8.509v-4.582c0-2.854-.109-4.727-.327-5.618-.31-1.218-1.009-2.2-2.1-2.945s-2.409-1.118-3.955-1.118c-1.363 0-2.609.322-3.736.967s-1.932 1.39-2.414 2.236c-.482.845-.723 2.268-.723 4.268v3.3c.091 4.728.137 7.282.137 7.664.037.909.146 1.573.329 1.991.073.164.183.305.329.422.146.119.375.214.687.287.109.018 1.116.045 3.019.082v1.555c-2.218-.127-4.227-.191-6.027-.191-1.53 0-4.021.064-7.475.191zM589.81 114.169v-1.146c1.75-.69 3.14-1.309 4.173-1.854v-8.291c1.891-.654 3.427-1.354 4.609-2.1l.654.545c-.2 1.509-.418 4.836-.654 9.981 1.454.018 2.327.027 2.618.027.164 0 1.1-.018 2.809-.055.945-.018 1.654-.055 2.127-.109l.191.191-.573 2.537c-1.146-.018-2.2-.027-3.164-.027s-2.3.009-4.009.027l-.136 11.1c-.055 2.709-.037 4.327.054 4.854s.263.986.517 1.377c.253.391.584.705.992.941.407.237 1.1.418 2.079.545.743 0 1.345-.031 1.807-.095.462-.063 1.046-.223 1.752-.478l.326 1.064c-.854.673-1.68 1.373-2.479 2.1-.69.254-1.335.423-1.935.505-.599.082-1.289.123-2.069.123-.963 0-1.73-.109-2.302-.327s-1.094-.522-1.566-.914-.865-.887-1.178-1.486c-.313-.6-.516-1.545-.608-2.836.018-1.236.055-2.591.109-4.063.018-.291.027-.609.027-.955v-11.318h-1.118c-.908.001-1.926.047-3.053.137zM607.51 122.993c0-4.077 1.295-7.403 3.886-9.979 2.591-2.575 5.914-3.863 9.968-3.863 3.818 0 6.927 1.201 9.327 3.604 2.4 2.402 3.6 5.505 3.6 9.309 0 2.657-.619 5.087-1.854 7.289-1.237 2.203-2.982 3.926-5.236 5.173-2.255 1.247-4.736 1.87-7.445 1.87-2.109 0-3.896-.355-5.359-1.064-1.464-.709-2.65-1.602-3.559-2.675s-1.6-2.175-2.073-3.303c-.837-1.985-1.255-4.105-1.255-6.361zm5.155-2.021c0 2.239.373 4.515 1.118 6.826s1.823 4 3.232 5.065c1.409 1.065 2.94 1.597 4.595 1.597 2.109 0 3.873-.837 5.291-2.512 1.418-1.674 2.127-4.25 2.127-7.727 0-2.895-.423-5.393-1.268-7.495-.846-2.103-1.923-3.586-3.232-4.451s-2.754-1.297-4.336-1.297c-2.236 0-4.05.811-5.441 2.431s-2.086 4.141-2.086 7.563zM648.912 98.57v-1.745c1.908.073 3.736.109 5.482.109 1.764 0 3.453-.036 5.072-.109 1.602 3.634 3.064 6.822 4.393 9.565l10.344 21.279 9.307-19.527c2.551-5.296 4.254-9.068 5.109-11.317 1.928.073 3.555.109 4.883.109 1.217 0 3.189-.036 5.918-.109v1.745c-2.164.037-3.479.132-3.941.287s-.787.368-.969.64c-.236.363-.373 1.245-.408 2.644-.018.363-.064 2.943-.137 7.739v12.618c0 2.471.045 4.878.137 7.221.055 1.726.186 2.752.393 3.08.209.327.543.568 1.004.722s1.77.25 3.922.286v1.746c-3.674-.164-6.264-.246-7.773-.246-1.219 0-3.908.082-8.072.246v-1.746c2.164-.036 3.482-.131 3.955-.286s.791-.368.955-.641c.234-.363.371-1.244.408-2.644.018-.381.062-2.961.137-7.739v-20.003l-9.41 19.676c-1.473 3.071-2.627 5.542-3.463 7.413-.6 1.363-1.51 3.525-2.727 6.486h-1.064c-.236-.69-.455-1.245-.654-1.663l-1.854-3.952-13.037-27.062v19.104c0 2.471.037 4.878.109 7.222.055 1.726.186 2.752.396 3.08.207.327.545.568 1.008.722.465.154 1.777.25 3.941.286v1.746l-6.572-.191-6.791.191v-1.746c2.133-.036 3.436-.131 3.906-.286s.797-.368.977-.641c.217-.363.354-1.244.408-2.644.021-.381.068-2.961.137-7.739v-12.618c0-2.471-.027-4.887-.082-7.249-.055-1.726-.188-2.748-.396-3.066s-.545-.554-1.008-.708c-.466-.153-1.779-.249-3.943-.285zM731.846 133.996v1.555c-2.381-.127-4.182-.191-5.398-.191-1.346 0-2.711.064-4.092.191.109-1.473.191-3.127.246-4.963-1.092.873-2.391 2.063-3.9 3.573-.346.345-.682.6-1.008.763-.781.437-1.562.75-2.344.941s-1.717.287-2.807.287c-1.473 0-2.703-.2-3.693-.6s-1.838-1.009-2.547-1.827c-.531-.6-.938-1.377-1.221-2.332-.285-.954-.426-2.104-.426-3.45 0-.636.021-1.236.068-1.8.045-.563.068-1.118.068-1.664v-4.664c0-.473-.027-1.664-.082-3.573-.037-1.2-.119-1.981-.246-2.345-.072-.182-.191-.327-.354-.437-.273-.182-.756-.272-1.445-.272-1 0-1.791-.009-2.373-.027v-1.555c3.908-.437 6.744-1.136 8.508-2.1.291-.164.52-.245.682-.245.127 0 .232.045.314.136.082.091.123.228.123.409l-.027.545c-.072.582-.137 1.7-.191 3.354-.109 3.037-.164 5.072-.164 6.109v5.318c0 2.218.15 3.777.451 4.677.299.9.881 1.618 1.744 2.154.863.537 1.93.805 3.203.805.871 0 1.74-.15 2.604-.451s1.639-.734 2.33-1.299c.51-.417 1.029-.98 1.557-1.689.402-.526.666-.931.793-1.212s.209-.694.246-1.239c.09-1.6.137-3.191.137-4.773v-2.291c0-.473-.027-1.664-.082-3.573-.037-1.2-.119-1.981-.246-2.345-.072-.182-.191-.327-.354-.437-.273-.182-.756-.272-1.445-.272-1 0-1.791-.009-2.373-.027v-1.555c3.896-.437 6.725-1.136 8.484-2.1.289-.164.518-.245.68-.245.127 0 .23.045.312.136.082.091.123.228.123.409l-.025.545c-.051.582-.107 1.736-.174 3.463-.104 2.964-.156 4.963-.156 6v3.736l.055 3.791c.068 2.2.113 3.491.137 3.873.018.91.117 1.573.299 1.991.09.164.207.305.352.422.145.119.361.214.65.287.108.02 1.11.047 3.007.083zM732.912 135.551v-1.555l2.607-.027c.383-.018.68-.086.891-.205s.371-.268.48-.45c.201-.363.33-1.009.385-1.937 0-.236.045-2.845.137-7.827v-3.246c0-1.454-.027-3.018-.082-4.69-.055-1.073-.141-1.709-.26-1.909s-.322-.35-.613-.45c-.291-.1-1.473-.141-3.545-.123v-1.555c3.672-.509 6.354-1.172 8.045-1.991.363-.182.609-.273.736-.273s.227.046.299.137c.074.091.109.228.109.409l-.027.436c-.055.655-.107 2.037-.162 4.146l5.072-4.336c1.49-.545 2.898-.818 4.227-.818 1.473 0 2.867.3 4.186.9s2.309 1.354 2.973 2.264 1.105 2.055 1.324 3.436c.127.818.189 3.1.189 6.845v4.827c0 2.364.064 3.973.191 4.827.092.545.232.923.424 1.132.189.209.484.341.885.396l2.918.082v1.555c-1.781-.127-3.264-.191-4.445-.191-1.018 0-2.709.064-5.072.191.254-4.491.383-7.327.383-8.509v-4.582c0-2.854-.109-4.727-.328-5.618-.309-1.218-1.008-2.2-2.1-2.945s-2.41-1.118-3.955-1.118c-1.363 0-2.609.322-3.736.967s-1.932 1.39-2.412 2.236c-.482.845-.723 2.268-.723 4.268v3.3c.09 4.728.135 7.282.135 7.664.037.909.146 1.573.33 1.991.072.164.182.305.328.422.148.119.377.214.688.287.109.018 1.115.045 3.02.082v1.555c-2.219-.127-4.229-.191-6.027-.191-1.53 0-4.022.064-7.475.191zM764.766 113.106v-1.555c3.527-.399 6.49-1.163 8.891-2.291l.6.436c-.145 3.873-.217 6.836-.217 8.891v4.964c.09 4.727.145 7.281.162 7.663.02.91.119 1.573.301 1.991.09.164.209.305.354.422.146.119.365.214.656.287.107.018 1.117.045 3.027.082v1.555c-2.766-.127-4.975-.191-6.629-.191-1.453 0-3.836.064-7.145.191v-1.555l2.607-.027c.385-.018.682-.086.893-.205.209-.118.369-.268.479-.45.201-.363.33-1.009.385-1.937 0-.236.045-2.845.137-7.827v-4.8c0-2.709-.092-4.318-.273-4.827-.107-.273-.305-.478-.586-.614s-1.498-.203-3.642-.203zm6.654-15.954c.855 0 1.578.3 2.168.9.592.6.887 1.328.887 2.182 0 .837-.301 1.555-.9 2.155s-1.318.9-2.154.9c-.855 0-1.582-.3-2.182-.9s-.9-1.318-.9-2.155c0-.854.301-1.582.9-2.182s1.325-.9 2.181-.9zM802.348 132.442l-1.092 1.827c-1.254.673-2.494 1.164-3.723 1.473-1.227.309-2.613.463-4.158.463-3.818 0-6.859-1.151-9.123-3.453-2.264-2.302-3.395-5.464-3.395-9.487 0-2.129.305-3.981.914-5.555.607-1.574 1.357-2.789 2.25-3.645.6-.6 1.74-1.378 3.422-2.333 1.682-.956 2.859-1.57 3.531-1.843 1.236-.527 2.719-.792 4.445-.792 1.637 0 3.109.173 4.418.518.836.218 1.674.582 2.51 1.091-.211 1.4-.361 2.459-.449 3.177s-.201 2.023-.342 3.914h-1.555c-.109-1.764-.219-2.864-.328-3.3-.072-.273-.236-.519-.492-.736-.656-.509-1.498-.95-2.527-1.323s-2.154-.559-3.375-.559c-1.529 0-2.855.314-3.975.942-1.121.628-1.99 1.625-2.609 2.99s-.93 3.058-.93 5.079c0 2.476.438 4.715 1.309 6.717.873 2.003 2.061 3.463 3.561 4.383s3.176 1.379 5.031 1.379c.928 0 1.832-.113 2.713-.341.883-.228 2.014-.659 3.396-1.295l.573.709zM803.576 113.106v-1.555c3.527-.399 6.49-1.163 8.891-2.291l.6.436c-.145 3.873-.217 6.836-.217 8.891v4.964c.09 4.727.145 7.281.162 7.663.02.91.119 1.573.301 1.991.09.164.209.305.354.422.146.119.365.214.656.287.107.018 1.117.045 3.027.082v1.555c-2.766-.127-4.975-.191-6.629-.191-1.453 0-3.836.064-7.145.191v-1.555l2.607-.027c.385-.018.682-.086.893-.205.209-.118.369-.268.479-.45.201-.363.33-1.009.385-1.937 0-.236.045-2.845.137-7.827v-4.8c0-2.709-.092-4.318-.273-4.827-.107-.273-.305-.478-.586-.614s-1.497-.203-3.642-.203zm6.654-15.954c.855 0 1.578.3 2.168.9.592.6.887 1.328.887 2.182 0 .837-.301 1.555-.9 2.155s-1.318.9-2.154.9c-.855 0-1.582-.3-2.182-.9s-.9-1.318-.9-2.155c0-.854.301-1.582.9-2.182s1.326-.9 2.181-.9zM818.467 113.079v-1.554c.328 0 1.02-.077 2.074-.232 1.053-.154 2.227-.418 3.518-.791 1.291-.373 2.264-.731 2.918-1.077.199-.109.363-.164.49-.164s.232.045.314.136c.082.091.123.246.123.464l-.027.654c-.037.527-.055 1.009-.055 1.445v2.891c3.072-2.854 4.99-4.463 5.754-4.827 1-.491 2.49-.736 4.473-.736 2.309 0 4.299.522 5.973 1.568 1.672 1.046 2.887 2.4 3.641 4.063s1.133 3.441 1.133 5.332c0 1.146-.133 2.228-.396 3.246-.264 1.019-.6 1.977-1.01 2.877-.408.9-.863 1.728-1.363 2.482-.5.755-.967 1.323-1.404 1.705-.254.236-.914.782-1.977 1.636-1.064.855-2.201 1.595-3.41 2.223s-2.049 1.014-2.521 1.159c-1.037.327-2.137.491-3.301.491-.908 0-1.795-.109-2.658-.327s-1.842-.591-2.932-1.118v4.336c.076 4.6.121 7.136.137 7.609.018.891.127 1.545.328 1.963.074.2.188.359.344.477.154.118.379.205.672.259.164.036 1.252.072 3.264.109v1.555c-2.271-.091-5.281-.136-9.025-.136-2.074 0-3.664.045-4.773.136v-1.555l2.607-.027c.385-.019.682-.087.891-.205.211-.119.371-.269.48-.451.201-.364.33-1.01.385-1.938.016-.236.061-2.838.137-7.805v-9.689c0-3.147-.037-6.377-.109-9.688-.072-3.312-.15-5.118-.232-5.418-.08-.3-.213-.527-.395-.682s-.418-.26-.709-.314l-3.359-.082zm9.355 16.854c.963.982 2.062 1.755 3.299 2.318s2.537.845 3.9.845c1.654 0 3.158-.413 4.514-1.241 1.354-.827 2.428-2.114 3.219-3.859.791-1.746 1.186-3.645 1.186-5.7 0-1.981-.377-3.704-1.131-5.168-.756-1.463-1.824-2.563-3.205-3.3-1.383-.736-2.773-1.104-4.172-1.104-1.037 0-2.061.205-3.068.614-1.01.409-1.924 1.005-2.742 1.786-.818.782-1.363 1.527-1.635 2.236-.109.346-.164 1.009-.164 1.991v10.582zM855.859 116.87l-1.445-.382c.018-.418.027-.991.027-1.718 0-.764-.01-1.373-.027-1.827 2.312-1.509 4.205-2.527 5.68-3.055 1.129-.382 2.395-.573 3.797-.573 2.076 0 3.824.392 5.244 1.173 1.42.782 2.477 1.9 3.168 3.354.473 1.019.711 2.409.711 4.173l-.137 4.991v8.127c0 .873.072 1.5.219 1.882.107.272.281.473.518.6.182.109.562.182 1.145.218l1.773.164v1.555c-1.49-.127-2.801-.191-3.928-.191-1.09 0-2.545.064-4.363.191l.137-4.8c-3.709 2.8-5.91 4.377-6.6 4.731-.691.354-1.564.532-2.619.532-2.199 0-3.912-.586-5.141-1.759-1.227-1.173-1.84-2.731-1.84-4.677 0-1.254.213-2.4.641-3.436.426-1.037.941-1.859 1.541-2.468s1.209-1.059 1.826-1.35c1.055-.491 2.77-1.018 5.141-1.582 2.373-.563 4.723-.982 7.051-1.254.018-1.727-.191-3.073-.627-4.037-.438-.963-1.174-1.754-2.209-2.373-1.037-.618-2.301-.927-3.791-.927-1.074 0-2.014.146-2.822.437-.811.291-1.305.537-1.486.736l-.492.982c-.492 1.09-.855 1.944-1.092 2.563zm12.518 4.281c-2.363.4-4.383.845-6.055 1.336-1.672.491-2.854 1-3.545 1.527-.418.31-.783.773-1.092 1.391-.473.909-.709 1.918-.709 3.027 0 1.346.373 2.396 1.119 3.15.744.755 1.781 1.132 3.109 1.132 1.217 0 2.422-.35 3.613-1.05 1.189-.7 2.377-1.75 3.559-3.15v-7.363zM878.141 135.551v-1.555l2.564-.027c.4-.018.705-.086.914-.204.209-.118.367-.268.477-.45.199-.363.318-1.008.355-1.935.018-.236.08-2.843.189-7.821v-11.309c0-3.034-.045-6.167-.137-9.402-.072-2.18-.174-3.397-.301-3.651-.092-.182-.238-.309-.439-.381-.273-.127-1.535-.191-3.785-.191v-1.609c4.107-.509 6.963-1.146 8.562-1.909.236-.109.418-.164.545-.164s.229.041.301.123c.072.082.109.196.109.341 0 .127-.02.309-.055.545l-.027.899c-.092 3.252-.146 6.023-.164 8.312l-.055 4.251v14.145c.076 4.724.121 7.276.137 7.658.018.908.127 1.571.33 1.989.072.164.182.305.328.422.146.118.365.213.658.286.129.018 1.145.045 3.047.082v1.555c-2.473-.127-4.645-.191-6.518-.191-1.781 0-4.125.064-7.035.191zM893.115 113.106v-1.555c3.525-.399 6.49-1.163 8.891-2.291l.6.436c-.146 3.873-.219 6.836-.219 8.891v4.964c.092 4.727.145 7.281.164 7.663.018.91.117 1.573.299 1.991.092.164.209.305.355.422.145.119.363.214.654.287.109.018 1.119.045 3.027.082v1.555c-2.764-.127-4.973-.191-6.627-.191-1.455 0-3.836.064-7.145.191v-1.555l2.605-.027c.385-.018.682-.086.893-.205s.371-.268.48-.45c.201-.363.33-1.009.385-1.937 0-.236.045-2.845.137-7.827v-4.8c0-2.709-.092-4.318-.273-4.827-.109-.273-.305-.478-.586-.614-.282-.135-1.495-.203-3.64-.203zm6.655-15.954c.854 0 1.576.3 2.168.9.59.6.887 1.328.887 2.182 0 .837-.301 1.555-.9 2.155s-1.318.9-2.154.9c-.855 0-1.582-.3-2.182-.9-.602-.6-.9-1.318-.9-2.155 0-.854.299-1.582.9-2.182.599-.6 1.325-.9 2.181-.9zM908.279 114.169v-1.146c1.748-.69 3.139-1.309 4.172-1.854v-8.291c1.891-.654 3.428-1.354 4.609-2.1l.654.545c-.201 1.509-.418 4.836-.654 9.981 1.453.018 2.326.027 2.617.027.164 0 1.1-.018 2.809-.055.945-.018 1.654-.055 2.129-.109l.189.191-.572 2.537c-1.145-.018-2.199-.027-3.164-.027-.963 0-2.299.009-4.008.027l-.137 11.1c-.055 2.709-.037 4.327.055 4.854.09.527.262.986.516 1.377s.584.705.992.941c.408.237 1.1.418 2.078.545.742 0 1.346-.031 1.807-.095.463-.063 1.047-.223 1.754-.478l.326 1.064c-.854.673-1.68 1.373-2.479 2.1-.691.254-1.336.423-1.936.505-.598.082-1.289.123-2.068.123-.963 0-1.73-.109-2.303-.327s-1.094-.522-1.566-.914c-.471-.391-.865-.887-1.178-1.486-.312-.6-.516-1.545-.607-2.836.018-1.236.055-2.591.109-4.063.018-.291.027-.609.027-.955v-11.318h-1.119c-.907.001-1.925.047-3.052.137zM925.352 150.141l1.391-4.2h.654c.346.291.641.522.887.695s.51.304.791.396c.281.091.695.136 1.24.136.564 0 1.113-.123 1.65-.368.537-.245 1.037-.632 1.5-1.159.465-.528 1.014-1.437 1.65-2.728.963-1.947 1.826-3.931 2.588-5.95-.582-1.636-1.283-3.471-2.104-5.506l-4.342-10.74c-1.293-3.198-2.35-5.647-3.166-7.349-.328-.669-.678-1.117-1.051-1.343s-1.205-.412-2.496-.557v-1.555c2.258.127 4.486.191 6.689.191 2.148 0 4.215-.063 6.199-.191v1.555c-1.873.126-2.945.243-3.219.352-.473.18-.709.504-.709.973 0 .289.154.883.463 1.784.711 2.24 1.385 4.152 2.021 5.736l1.721 4.261c1.039 2.549 1.912 4.616 2.623 6.2l1.443-3.223c.562-1.275 1.551-3.696 2.967-7.266 1.416-3.569 2.244-5.771 2.48-6.608.072-.291.107-.545.107-.764 0-.345-.141-.614-.422-.805s-1.377-.377-3.287-.559v-1.636c2.109.127 3.973.191 5.592.191 1.637 0 3.254-.063 4.854-.191l-.271 1.636c-.928.037-1.646.237-2.154.6-.51.364-1.277 1.586-2.305 3.668-1.027 2.082-2.934 6.177-5.717 12.285l-6.303 14.726c-1.016 2.382-1.896 4.083-2.641 5.101-.744 1.019-1.635 1.791-2.672 2.319-1.035.527-2.172.791-3.408.791-.6 0-1.143-.068-1.623-.204-.48-.135-1.021-.366-1.62-.694zM968.771 122.993c0-4.077 1.295-7.403 3.887-9.979 2.59-2.575 5.912-3.863 9.967-3.863 3.818 0 6.928 1.201 9.328 3.604 2.398 2.402 3.6 5.505 3.6 9.309 0 2.657-.619 5.087-1.855 7.289-1.236 2.203-2.982 3.926-5.236 5.173-2.254 1.247-4.736 1.87-7.445 1.87-2.109 0-3.895-.355-5.359-1.064-1.463-.709-2.648-1.602-3.559-2.675-.908-1.074-1.6-2.175-2.072-3.303-.838-1.985-1.256-4.105-1.256-6.361zm5.155-2.021c0 2.239.371 4.515 1.117 6.826s1.822 4 3.232 5.065c1.408 1.065 2.941 1.597 4.596 1.597 2.107 0 3.873-.837 5.291-2.512 1.418-1.674 2.127-4.25 2.127-7.727 0-2.895-.424-5.393-1.27-7.495-.844-2.103-1.922-3.586-3.23-4.451s-2.754-1.297-4.336-1.297c-2.236 0-4.051.811-5.441 2.431s-2.086 4.141-2.086 7.563zM998.361 114.224v-1.108c1.42-.594 2.674-1.225 3.764-1.892v-1.636c0-2.363.15-4.032.451-5.004.299-.973.723-1.841 1.268-2.604.818-1.127 2.109-2.563 3.873-4.309 1.182-1.146 2.055-1.863 2.617-2.154.746-.382 1.619-.573 2.619-.573.709 0 1.436.119 2.182.354l.109 4.527-.627.245c-.564-.473-1.123-.818-1.678-1.036s-1.205-.327-1.951-.327c-.98 0-1.781.2-2.398.6-.619.4-1.068.973-1.352 1.718-.281.746-.422 2.264-.422 4.555v5.645h2.891c1.455 0 2.881-.063 4.281-.191l.273.166-.545 2.834c-1.582-.072-2.746-.109-3.492-.109-.764 0-1.898.037-3.408.109v9.75c0 1.198.045 3.387.137 6.564.018 1.125.062 1.843.137 2.151.072.309.168.531.285.667.119.137.314.25.588.341.545.164 2.018.327 4.418.49v1.555c-4.238-.127-6.818-.191-7.746-.191-.836 0-3.174.064-7.01.191v-1.555l2.607-.027c.385-.018.682-.086.893-.204.211-.118.369-.268.48-.45.201-.363.328-1.007.385-1.934 0-.235.045-2.841.135-7.816v-9.532l-3.764.19zM1029.754 105.852h-1.691c-.018-4.345-.109-7.354-.271-9.027 1.98.073 5.09.164 9.326.272 3.436.073 5.727.109 6.873.109 1.236 0 4.1-.055 8.59-.164 3.254-.073 5.627-.146 7.119-.218-.219 2.036-.365 5.045-.438 9.027h-1.744l-.219-2.618c-.146-1.582-.246-2.481-.301-2.7s-.131-.373-.23-.464c-.102-.091-.25-.164-.451-.218-.254-.054-1.164-.127-2.727-.218-1.564-.091-2.801-.137-3.709-.137h-3.328c-.182 1.744-.271 4.097-.271 7.058v15.941c0 2.471.027 4.878.082 7.221.055 1.726.186 2.752.395 3.08s.545.568 1.01.722c.463.154 1.777.25 3.939.286v1.746c-3.254-.146-5.699-.218-7.336-.218-.709 0-3.545.073-8.508.218v-1.746c2.152-.036 3.463-.131 3.934-.286s.787-.368.949-.641c.236-.363.381-1.244.436-2.643 0-.381.045-2.961.135-7.739v-15.885c0-.763-.018-1.599-.053-2.507l-.164-4.605h-4.064c-2.346 0-4.209.091-5.59.273-.438.055-.719.173-.846.354-.201.31-.383 1.3-.545 2.973l-.302 2.754zM1060.955 113.106v-1.555c3.525-.399 6.49-1.163 8.891-2.291l.6.436c-.146 3.873-.219 6.836-.219 8.891v4.964c.092 4.727.145 7.281.164 7.663.018.91.117 1.573.299 1.991.092.164.209.305.355.422.145.119.363.214.654.287.109.018 1.119.045 3.027.082v1.555c-2.764-.127-4.973-.191-6.627-.191-1.455 0-3.836.064-7.145.191v-1.555l2.605-.027c.385-.018.682-.086.893-.205s.371-.268.48-.45c.201-.363.33-1.009.385-1.937 0-.236.045-2.845.137-7.827v-4.8c0-2.709-.092-4.318-.273-4.827-.109-.273-.305-.478-.586-.614-.283-.135-1.495-.203-3.64-.203zm6.654-15.954c.854 0 1.576.3 2.168.9.59.6.887 1.328.887 2.182 0 .837-.301 1.555-.9 2.155s-1.318.9-2.154.9c-.855 0-1.582-.3-2.182-.9-.602-.6-.9-1.318-.9-2.155 0-.854.299-1.582.9-2.182.599-.6 1.326-.9 2.181-.9zM1080.781 116.87l-1.445-.382c.018-.418.027-.991.027-1.718 0-.764-.01-1.373-.027-1.827 2.312-1.509 4.207-2.527 5.682-3.055 1.129-.382 2.395-.573 3.797-.573 2.074 0 3.822.392 5.242 1.173 1.42.782 2.477 1.9 3.17 3.354.473 1.019.709 2.409.709 4.173l-.137 4.991v8.127c0 .873.072 1.5.219 1.882.109.272.281.473.518.6.182.109.564.182 1.146.218l1.771.164v1.555c-1.49-.127-2.799-.191-3.926-.191-1.092 0-2.547.064-4.363.191l.135-4.8c-3.709 2.8-5.908 4.377-6.6 4.731s-1.562.532-2.617.532c-2.201 0-3.914-.586-5.141-1.759-1.229-1.173-1.842-2.731-1.842-4.677 0-1.254.215-2.4.641-3.436.428-1.037.941-1.859 1.541-2.468s1.209-1.059 1.828-1.35c1.055-.491 2.768-1.018 5.141-1.582s4.723-.982 7.049-1.254c.02-1.727-.189-3.073-.627-4.037-.436-.963-1.172-1.754-2.209-2.373-1.035-.618-2.299-.927-3.791-.927-1.072 0-2.014.146-2.822.437-.809.291-1.305.537-1.486.736l-.49.982c-.493 1.09-.856 1.944-1.093 2.563zm12.518 4.281c-2.363.4-4.381.845-6.053 1.336-1.674.491-2.855 1-3.547 1.527-.418.31-.781.773-1.09 1.391-.473.909-.709 1.918-.709 3.027 0 1.346.371 2.396 1.117 3.15.746.755 1.781 1.132 3.109 1.132 1.219 0 2.422-.35 3.613-1.05 1.191-.7 2.377-1.75 3.559-3.15v-7.363zM1102.438 135.551v-1.555l2.607-.027c.385-.018.682-.086.893-.205.209-.118.369-.268.48-.45.201-.363.328-1.009.383-1.937 0-.236.045-2.845.137-7.827v-3.246c0-1.454-.027-3.018-.082-4.69-.055-1.073-.141-1.709-.258-1.909-.119-.2-.324-.35-.615-.45-.291-.1-1.473-.141-3.545-.123v-1.555c3.672-.509 6.355-1.172 8.045-1.991.363-.182.609-.273.736-.273s.229.046.301.137.109.228.109.409l-.027.436c-.055.655-.109 2.037-.164 4.146l5.072-4.336c1.49-.545 2.9-.818 4.229-.818 1.473 0 2.867.3 4.186.9s2.309 1.354 2.973 2.264 1.104 2.055 1.322 3.436c.127.818.191 3.1.191 6.845v4.827c0 2.364.062 3.973.191 4.827.09.545.23.923.422 1.132s.486.341.887.396l2.918.082v1.555c-1.783-.127-3.264-.191-4.445-.191-1.02 0-2.709.064-5.072.191.254-4.491.381-7.327.381-8.509v-4.582c0-2.854-.109-4.727-.326-5.618-.311-1.218-1.01-2.2-2.102-2.945-1.09-.746-2.408-1.118-3.953-1.118-1.363 0-2.609.322-3.736.967s-1.932 1.39-2.414 2.236c-.482.845-.723 2.268-.723 4.268v3.3c.092 4.728.137 7.282.137 7.664.037.909.146 1.573.33 1.991.072.164.182.305.328.422.146.119.375.214.686.287.111.018 1.117.045 3.02.082v1.555c-2.219-.127-4.227-.191-6.027-.191-1.53 0-4.02.064-7.475.191zM1131.592 150.959l-.326-1.937c.617.055 1.035.082 1.254.082.562 0 1.064-.119 1.5-.355.617-.31 1.178-.796 1.678-1.46s.881-1.511 1.145-2.538c.264-1.028.438-2.729.518-5.104.082-2.375.123-3.917.123-4.626v-15.311c0-.473-.027-1.665-.082-3.576-.035-1.201-.117-1.983-.244-2.347-.074-.182-.191-.327-.355-.436-.271-.182-.754-.273-1.445-.273-1 0-1.791-.009-2.373-.027v-1.554c3.91-.437 6.746-1.136 8.51-2.1.291-.164.518-.246.682-.246.127 0 .232.046.314.137.08.091.121.228.121.409 0 .146-.008.328-.027.546-.055.491-.1 1.237-.135 2.238-.092 1.892-.156 4.048-.191 6.468-.072 3.548-.109 5.549-.109 6.003l.082 7.505c0 4.821-.363 8.36-1.092 10.616-.527 1.601-1.271 3.015-2.236 4.244-.963 1.228-1.986 2.146-3.066 2.756-1.082.609-2.297.914-3.643.914-.148 0-.347-.009-.603-.028zm8.086-53.807c.852 0 1.574.3 2.172.9s.896 1.328.896 2.182c0 .837-.299 1.555-.896 2.155s-1.32.9-2.172.9c-.832 0-1.551-.3-2.158-.9-.605-.6-.91-1.318-.91-2.155 0-.854.299-1.582.896-2.182s1.322-.9 2.172-.9zM1146.238 113.106v-1.555c3.527-.399 6.49-1.163 8.891-2.291l.6.436c-.145 3.873-.217 6.836-.217 8.891v4.964c.09 4.727.145 7.281.162 7.663.02.91.119 1.573.301 1.991.09.164.209.305.354.422.146.119.365.214.656.287.107.018 1.117.045 3.027.082v1.555c-2.766-.127-4.975-.191-6.629-.191-1.453 0-3.836.064-7.145.191v-1.555l2.607-.027c.385-.018.682-.086.893-.205.209-.118.369-.268.479-.45.201-.363.33-1.009.385-1.937 0-.236.045-2.845.137-7.827v-4.8c0-2.709-.092-4.318-.273-4.827-.107-.273-.305-.478-.586-.614s-1.497-.203-3.642-.203zm6.655-15.954c.855 0 1.578.3 2.168.9.592.6.887 1.328.887 2.182 0 .837-.301 1.555-.9 2.155s-1.318.9-2.154.9c-.855 0-1.582-.3-2.182-.9s-.9-1.318-.9-2.155c0-.854.301-1.582.9-2.182s1.325-.9 2.181-.9zM1160.912 135.551v-1.555l2.607-.027c.383-.018.68-.086.891-.205s.371-.268.48-.45c.201-.363.33-1.009.385-1.937 0-.236.045-2.845.137-7.827v-3.246c0-1.454-.027-3.018-.082-4.69-.055-1.073-.141-1.709-.26-1.909s-.322-.35-.613-.45c-.291-.1-1.473-.141-3.545-.123v-1.555c3.672-.509 6.354-1.172 8.045-1.991.363-.182.609-.273.736-.273s.227.046.299.137c.074.091.109.228.109.409l-.027.436c-.055.655-.107 2.037-.162 4.146l5.072-4.336c1.49-.545 2.898-.818 4.227-.818 1.473 0 2.867.3 4.186.9s2.309 1.354 2.973 2.264 1.105 2.055 1.324 3.436c.127.818.189 3.1.189 6.845v4.827c0 2.364.064 3.973.191 4.827.092.545.232.923.424 1.132.189.209.484.341.885.396l2.918.082v1.555c-1.781-.127-3.264-.191-4.445-.191-1.018 0-2.709.064-5.072.191.254-4.491.383-7.327.383-8.509v-4.582c0-2.854-.109-4.727-.328-5.618-.309-1.218-1.008-2.2-2.1-2.945s-2.41-1.118-3.955-1.118c-1.363 0-2.609.322-3.736.967s-1.932 1.39-2.412 2.236c-.482.845-.723 2.268-.723 4.268v3.3c.09 4.728.135 7.282.135 7.664.037.909.146 1.573.33 1.991.072.164.182.305.328.422.148.119.377.214.688.287.109.018 1.115.045 3.02.082v1.555c-2.219-.127-4.229-.191-6.027-.191-1.53 0-4.022.064-7.475.191z"/></g></svg>