<svg xmlns="http://www.w3.org/2000/svg" width="1280" height="266" viewBox="0 0 1280 266"><title>Tianjin Project WEF</title><g><path d="M38.86 192.185c8.091-.94 12.984-5.455 12.984-12.226v-98.938h-17.5c-12.607 0-18.252 3.762-25.591 22.948h-6.774l5.833-32.541s4.893 1.128 12.607 1.128h90.134c7.715 0 13.548-1.128 13.548-1.128l-5.833 32.541h-6.962c.564-19.186-5.646-22.948-19.946-22.948h-17.124l-2.07 2.069v96.87c0 5.643-.941 10.156-.941 10.156l18.817 1.693-.752 5.643-50.43 1.129v-6.396zM129.184 192.185c8.092-.94 12.984-5.455 12.984-11.85v-88.969c0-9.029 0-10.91-13.36-13.731v-5.079h14.113c19.946 0 24.838-.752 24.838-.752l.941.752s-6.209 7.524-6.209 23.136v84.643c0 5.454-.941 9.78-.941 9.78l17.124 1.693-.753 5.643-48.736 1.129v-6.395zM177.167 192.185c7.715-.752 11.103-4.702 12.607-8.652l44.221-110.224 9.408-2.069 41.586 107.026c4.14 10.909 7.339 13.354 13.737 14.295l-.753 5.455h-7.903c-7.715 0-32.177.564-32.177.564v-6.771c5.269-.188 9.785-1.693 7.715-7.336l-10.35-27.649h-42.715l-2.634 1.881-12.043 31.411 15.994 2.069-.94 5.831h-35.753v-5.831zm56.452-95.741l-19.758 51.538h38.199l-14.301-38.748c-1.318-3.949-3.199-9.404-4.14-12.79zM303.057 192.185c8.468-.94 13.548-4.891 13.548-11.662v-82.95c0-12.602-3.011-16.74-15.43-19.938v-5.079h5.645c9.221 0 21.264-.752 21.264-.752s2.258 4.326 7.15 9.781l67.177 74.674c2.446 2.821 5.269 6.395 7.527 9.404v-73.169c0-8.276-.188-12.791-15.242-14.295v-5.643h36.694l.94 3.01s-12.983 3.574-12.983 19.186v104.205h-6.21l-80.161-90.662c-2.446-2.633-5.081-6.208-7.15-9.217v81.445c0 5.644-.941 10.157-.941 10.157l16.936 1.129-.752 5.643-38.011 1.129v-6.396zM455.855 91.366c0-9.029 0-10.91-13.36-13.731v-5.079h14.113c19.946 0 24.839-.752 24.839-.752l.941.752s-6.21 7.147-6.21 22.76v79.752c0 33.48-14.301 53.606-38.199 53.606l-2.258-4.891c10.349-1.504 20.134-16.928 20.134-36.866v-95.551zM499.888 192.185c8.091-.94 12.984-5.455 12.984-11.85v-88.969c0-9.029 0-10.91-13.36-13.731v-5.079h14.113c19.946 0 24.838-.752 24.838-.752l.941.752s-6.209 7.524-6.209 23.136v84.643c0 5.454-.941 9.78-.941 9.78l17.124 1.693-.752 5.643-48.737 1.129v-6.395zM560.103 192.185c8.468-.94 13.548-4.891 13.548-11.662v-82.95c0-12.602-3.011-16.74-15.43-19.938v-5.079h5.645c9.221 0 21.264-.752 21.264-.752s2.258 4.326 7.15 9.781l67.177 74.674c2.446 2.821 5.27 6.395 7.527 9.404v-73.169c0-8.276-.188-12.791-15.242-14.295v-5.643h36.693l.941 3.01s-12.984 3.574-12.984 19.186v104.205h-6.209l-80.162-90.662c-2.446-2.633-5.081-6.208-7.15-9.217v81.445c0 5.644-.941 10.157-.941 10.157l16.936 1.129-.753 5.643-38.01 1.129v-6.396z"/></g><g><path d="M.137 36.612v-1.398c1.458-.128 2.285-.233 2.479-.313.113-.048.235-.136.365-.265.129-.129.729-.981 1.799-2.557l2.261-3.474 16.822-26.417h2.309l4.06 29.142c.195 1.367.365 2.268.511 2.702.113.289.255.502.425.639.17.137.425.229.766.277.097.017.948.105 2.553.265v1.398l-6.464-.193c-.421 0-2.293.064-5.615.193v-1.398c1.75-.064 2.852-.136 3.306-.216.308-.081.526-.201.656-.361.129-.16.194-.441.194-.842 0-.224-.008-.457-.024-.697l-.292-2.981-.947-7.149h-12.142l-3.845 6.353c-1.409 2.448-2.209 3.921-2.404 4.42-.065.193-.097.371-.097.531 0 .194.085.359.255.496s.57.237 1.202.302c.275.032 1.166.081 2.673.145v1.398l-6.557-.193c-1.085 0-2.501.064-4.249.193zm14.218-15.525h10.684l-1.832-14.035-8.852 14.035zM47.087 36.612v-1.543c1.972-.112 3.078-.225 3.321-.337.242-.113.444-.306.605-.579.258-.418.727-2.34 1.406-5.766.18-.917.931-5.235 2.254-12.955 1.096-5.919 1.645-9.313 1.645-10.182 0-.515-.154-.86-.461-1.037-.469-.29-1.795-.458-3.979-.507l.097-1.326c.097 0 1.312.032 3.645.096 1.296.032 2.462.048 3.499.048 1.102 0 2.268-.016 3.499-.048 2.042-.064 3.483-.096 4.326-.096 2.316 0 4.046.249 5.188.745 1.142.498 2.074 1.351 2.794 2.562.721 1.21 1.082 2.529 1.082 3.956 0 1.555-.319 3.114-.957 4.678-.638 1.563-1.479 2.91-2.526 4.04-1.047 1.13-2.134 1.992-3.263 2.585-1.553.802-3.229 1.203-5.028 1.203-.867 0-1.644-.092-2.331-.277-.687-.185-1.398-.478-2.134-.88v-1.519c1.118.659 2.359.989 3.724.989 1.397 0 2.733-.385 4.007-1.154s2.285-1.927 3.034-3.473c.748-1.546 1.122-3.192 1.122-4.939 0-1.426-.247-2.636-.74-3.629-.493-.993-1.304-1.754-2.43-2.283s-2.529-.793-4.206-.793c-1.003 0-2.245.137-3.726.41l-1.65 8.758-2.279 12.546c-.626 3.762-.971 5.953-1.036 6.572-.032.333-.048.611-.048.833 0 .444.097.782.292 1.012.194.23.584.397 1.168.5.584.103 1.76.187 3.53.25v1.543c-2.529-.128-4.579-.193-6.151-.193-.518-.003-2.95.061-7.293.19zM78.874 37.142l-.438-.337c.807-2.716 1.419-4.966 1.839-6.75.807-3.487 1.413-6.581 1.816-9.281.226-1.559.339-2.635.339-3.23 0-.418-.065-.715-.195-.892-.082-.128-.212-.193-.391-.193-.554 0-1.931.788-4.131 2.362l-.586-.795c2.193-1.8 4.111-3.134 5.752-4.001 1.137-.611 1.982-.916 2.535-.916.292 0 .528.096.707.289.178.193.268.49.268.892 0 .434-.113 1.221-.339 2.362-.354 2.025-.831 4.355-1.427 6.991 1.716-2.973 3.449-5.504 5.198-7.594 1.101-1.318 1.943-2.146 2.526-2.483.583-.338 1.149-.506 1.7-.506.292 0 .615.088.972.265-.276 1.415-.551 3.19-.827 5.328l-.656.145c-.486-.643-1.028-.964-1.627-.964-.55 0-1.157.226-1.821.675-1.068.707-2.173 1.917-3.314 3.628s-2.06 3.781-2.756 6.208c-.387 1.318-.992 3.97-1.814 7.955-1.459.32-2.569.601-3.33.842zM95.312 29.71c0-1.979.21-3.833.632-5.562.421-1.729 1.005-3.229 1.75-4.5.745-1.271 1.661-2.393 2.747-3.366 1.086-.974 2.31-1.753 3.671-2.341 1.361-.587 2.674-.881 3.938-.881 1.167 0 2.277.253 3.331.76 1.053.507 1.872 1.295 2.455 2.365s.875 2.538.875 4.404c0 2.478-.495 4.955-1.483 7.433-.794 1.962-1.702 3.551-2.723 4.765-1.021 1.215-2.338 2.253-3.95 3.113-1.613.86-3.221 1.291-4.825 1.291-1.945 0-3.5-.624-4.667-1.87-1.168-1.248-1.751-3.118-1.751-5.611zm3.84-.337c0 1.545.17 2.72.512 3.524.341.804.856 1.416 1.546 1.834.69.418 1.515.627 2.473.627 1.055 0 1.969-.273 2.74-.82.771-.547 1.535-1.553 2.29-3.017.755-1.464 1.303-3.19 1.644-5.177.341-1.987.512-3.769.512-5.346 0-2.011-.374-3.543-1.121-4.597-.747-1.054-1.851-1.581-3.312-1.581-2.339 0-4.137 1.384-5.396 4.151s-1.888 6.235-1.888 10.402zM137.95 31.284l.462.892c-.958.852-2.066 1.728-3.324 2.627-1.258.9-2.342 1.543-3.251 1.929-.503.225-.893.337-1.168.337-.292 0-.559-.165-.802-.494-.243-.329-.364-.88-.364-1.651 0-.514.052-1.081.158-1.7.105-.618.604-2.864 1.495-6.738l-.132-.024c-1.214 2.057-2.686 3.978-4.417 5.762-1.731 1.784-3.43 3.126-5.096 4.025-1.052.562-1.901.844-2.548.844s-1.181-.47-1.602-1.41c-.421-.94-.631-2.093-.631-3.459 0-1.88.279-3.981.838-6.304.559-2.322 1.283-4.335 2.174-6.039.68-1.302 1.458-2.354 2.332-3.158 1.376-1.253 2.948-2.274 4.714-3.062.858-.37 1.798-.554 2.818-.554.81 0 2.138.193 3.984.578l1.255-6.036c.266-1.299.399-2.108.399-2.429 0-.497-.102-.841-.304-1.034-.203-.192-.612-.289-1.228-.289l-2.382-.024.122-.989c1.994-.257 3.418-.514 4.276-.771.857-.257 1.914-.731 3.17-1.422l.608.482c-.259.964-.703 3.03-1.333 6.195-.388 2.025-1.446 7.128-3.174 15.308-.857 4.034-1.407 6.862-1.649 8.485-.065.515-.097.98-.097 1.398 0 .434.064.735.194.904.13.169.3.253.511.253.292 0 .697-.161 1.217-.482 1.088-.64 2.013-1.291 2.775-1.95zm-4.847-14.802c-1.506-.787-3.069-1.181-4.688-1.181-1.183 0-2.154.169-2.915.506-.535.225-1.008.607-1.421 1.145-.413.539-.931 1.684-1.555 3.436-.624 1.751-1.098 3.318-1.421 4.701-.535 2.266-.802 4.355-.802 6.268 0 .723.048 1.238.146 1.543.097.306.223.515.376.627s.344.168.571.168c.405 0 .842-.112 1.312-.337 1.247-.611 2.44-1.446 3.583-2.507 1.141-1.061 2.169-2.282 3.084-3.664.915-1.382 1.647-2.869 2.198-4.46.388-1.125.9-3.207 1.532-6.245zM141.741 18.508l-.484-.964c1.487-1.109 3.443-2.33 5.867-3.665 1.002-.546 1.77-.819 2.304-.819.307 0 .562.117.764.35.202.234.303.551.303.954 0 .37-.13 1.086-.389 2.148-2.268 9.155-3.401 14.537-3.401 16.146 0 .37.073.64.219.808.146.169.33.254.553.254.309 0 .703-.121 1.184-.362 1.253-.627 2.651-1.691 4.195-3.194 1.544-1.502 2.959-3.226 4.247-5.171.772-1.157 1.449-2.571 2.033-4.243.583-1.671 1.158-3.929 1.725-6.774.322-.064 1.169-.321 2.543-.771l.364.362-.858 4.363c-.413 2.282-.915 4.765-1.505 7.449-.59 2.684-.99 4.572-1.199 5.665-.083.547-.125 1.077-.125 1.591 0 .402.073.691.218.868.146.177.332.265.559.265.226 0 .53-.104.91-.313.38-.208 1.372-.916 2.974-2.121l.534.916c-2.75 2.202-4.7 3.624-5.848 4.267-.841.466-1.497.699-1.966.699-.307 0-.586-.148-.837-.446-.251-.297-.376-.719-.376-1.266 0-.321.035-.723.106-1.206.143-.755.481-2.242 1.016-4.459l.983-4.243-.154-.073c-1.748 2.347-2.792 3.721-3.135 4.123-1.284 1.479-2.753 2.897-4.406 4.255-1.653 1.358-3.224 2.367-4.714 3.025-.48.208-.899.313-1.259.313-.48 0-.899-.222-1.258-.664-.359-.442-.538-1.13-.538-2.063 0-1.255.316-3.146.948-5.672.924-3.733 1.589-6.686 1.994-8.857.259-1.4.389-2.325.389-2.776 0-.257-.057-.45-.17-.579-.113-.128-.267-.193-.461-.193-.535 0-1.818.69-3.849 2.073zM183.678 30.995l.365 1.061c-1.718 1.382-3.022 2.354-3.914 2.917-1.346.852-2.585 1.462-3.72 1.832-.843.289-1.726.434-2.649.434-1.167 0-2.216-.241-3.148-.723-.932-.482-1.649-1.286-2.151-2.411-.502-1.125-.754-2.515-.754-4.17 0-1.768.235-3.587.705-5.46.47-1.872 1.082-3.431 1.835-4.677.753-1.245 1.511-2.182 2.273-2.809 1.556-1.286 3.419-2.386 5.591-3.303 1.119-.482 2.229-.723 3.331-.723.827 0 1.588.105 2.285.313.696.209 1.337.53 1.92.964-.454 1.8-.827 3.873-1.118 6.22h-1.143l.024-2.628c0-.546-.089-.94-.268-1.181-.211-.305-.661-.586-1.349-.844-.689-.257-1.495-.386-2.419-.386-1.653 0-2.986.41-3.999 1.229-1.013.82-1.893 2.403-2.638 4.749-.924 2.909-1.386 5.432-1.386 7.569 0 1.704.283 2.998.851 3.881.778 1.238 1.92 1.856 3.427 1.856.713 0 1.447-.117 2.2-.35s1.625-.631 2.613-1.193c.602-.351 1.68-1.074 3.236-2.167zM198.47 30.85l.559.868c-1.464 1.173-2.924 2.266-4.379 3.278-1.456 1.013-2.525 1.664-3.208 1.953-.374.161-.74.241-1.098.241-.423 0-.789-.197-1.097-.591-.309-.394-.463-1.04-.463-1.94 0-.386.032-.823.097-1.314.065-.49.178-1.153.34-1.989l1.106-4.942c.376-1.751.958-4.716 1.745-8.896l-4.164.097.123-.723c1.32-.498 2.221-.848 2.702-1.049.481-.201 1.039-.462 1.675-.783.252-1.254.433-2.206.542-2.857.109-.651.365-2.471.768-5.46l2.088-.892 1.68-.844.586.434-1.046 4.17c-.13.562-.527 2.475-1.192 5.737.729.032 1.313.048 1.75.048 1.604 0 2.747-.104 3.427-.313l.243.193-.585 2.362c-.682 0-2.437-.04-5.263-.121-.292 1.334-.75 3.604-1.374 6.811-.624 3.206-1.033 5.532-1.228 6.979-.082.579-.122 1.029-.122 1.35 0 .37.089.647.268.832.178.185.396.277.656.277.21 0 .429-.04.656-.121.47-.193 1.062-.53 1.775-1.012l2.433-1.783zM203.125 18.652l-.412-.964c2.861-1.977 4.776-3.198 5.746-3.664s1.729-.699 2.279-.699c.307 0 .541.104.703.313.226.305.339.747.339 1.326 0 .273-.057.659-.17 1.157-.21.964-.656 2.724-1.337 5.279-1.758 6.509-2.636 10.35-2.636 11.523 0 .337.061.583.183.735.122.153.289.229.5.229.325 0 .735-.116 1.23-.35.495-.233 1.4-.832 2.716-1.796l.487.964c-2.629 1.993-4.609 3.327-5.94 4.001-.633.322-1.161.482-1.583.482-.406 0-.767-.185-1.083-.555-.316-.369-.474-.883-.474-1.542 0-.514.057-1.085.17-1.712.113-.626.397-1.76.851-3.399 1.89-6.75 2.835-10.928 2.835-12.536 0-.337-.044-.566-.133-.687s-.214-.181-.375-.181c-.194 0-.428.057-.702.169-.128.067-1.193.702-3.194 1.907zm6.25-13.668c0-.9.284-1.659.851-2.278s1.215-.928 1.945-.928c.567 0 1.017.173 1.349.519.332.346.498.824.498 1.434 0 .836-.243 1.604-.729 2.302-.486.699-1.135 1.049-1.945 1.049-.567 0-1.038-.193-1.41-.579-.373-.386-.559-.893-.559-1.519zM214.7 29.71c0-1.979.21-3.833.632-5.562.421-1.729 1.005-3.229 1.75-4.5.745-1.271 1.661-2.393 2.747-3.366 1.086-.974 2.31-1.753 3.671-2.341 1.361-.587 2.674-.881 3.938-.881 1.167 0 2.277.253 3.331.76 1.053.507 1.872 1.295 2.455 2.365s.875 2.538.875 4.404c0 2.478-.495 4.955-1.483 7.433-.794 1.962-1.702 3.551-2.723 4.765-1.021 1.215-2.338 2.253-3.95 3.113-1.613.86-3.221 1.291-4.825 1.291-1.945 0-3.5-.624-4.667-1.87-1.168-1.248-1.751-3.118-1.751-5.611zm3.841-.337c0 1.545.17 2.72.512 3.524.341.804.856 1.416 1.546 1.834.69.418 1.515.627 2.473.627 1.055 0 1.969-.273 2.74-.82.771-.547 1.535-1.553 2.29-3.017.755-1.464 1.303-3.19 1.644-5.177.341-1.987.512-3.769.512-5.346 0-2.011-.374-3.543-1.121-4.597-.747-1.054-1.851-1.581-3.312-1.581-2.339 0-4.137 1.384-5.396 4.151s-1.888 6.235-1.888 10.402zM238.183 37.021l-.281-.41c.742-3.407 1.646-7.473 2.709-12.198.798-3.471 1.197-5.745 1.197-6.822 0-.354-.061-.599-.183-.735-.122-.137-.296-.205-.522-.205-.209 0-.426.032-.652.095-.435.143-.974.389-1.618.739l-2.061 1.239-.339-.964 2.261-1.663c.875-.611 1.795-1.182 2.759-1.712s1.673-.859 2.127-.988c.227-.08.47-.121.729-.121.34 0 .608.105.802.313.243.306.365.691.365 1.157 0 .305-.033.683-.097 1.133-.13.708-.438 2.033-.924 3.978l-1.094 4.46.17.048c1.41-2.282 3.039-4.303 4.886-6.063s3.784-3.098 5.81-4.014c1.458-.659 2.544-.988 3.257-.988.438 0 .79.137 1.058.41.267.273.401.668.401 1.183 0 1.11-.561 3.813-1.682 8.109-1.507 5.728-2.26 9.099-2.26 10.112 0 .322.061.551.183.688.123.137.281.205.477.205.244 0 .635-.136 1.173-.41 1.124-.627 2.159-1.302 3.104-2.025l.416.964c-1.386 1.109-2.519 1.953-3.399 2.531-1.582.997-2.748 1.639-3.498 1.929-.31.128-.634.193-.975.193-.454 0-.814-.149-1.082-.446-.267-.298-.401-.752-.401-1.364 0-.482.064-1.078.194-1.786.243-1.223.851-3.708 1.823-7.458 1.193-4.538 1.79-7.312 1.79-8.327 0-.482-.081-.816-.243-1.001-.162-.185-.389-.278-.68-.278-.535 0-1.183.209-1.944.627-1.248.659-2.543 1.675-3.888 3.049s-2.462 2.837-3.353 4.388-1.677 3.548-2.357 5.99c-.242.916-.611 2.805-1.109 5.665-1.053.195-2.069.452-3.049.773zM274.913 18.025l.219-1.084c1.986-.724 3.406-1.358 4.258-1.905.811-3.921 1.264-6.059 1.361-6.412.21-.755.58-1.455 1.106-2.098.527-.643 1.588-1.583 3.185-2.82 1.596-1.237 2.823-2.049 3.683-2.435.583-.257 1.248-.386 1.993-.386 1.005 0 2.058.217 3.16.651-.648 1.735-1.11 3.07-1.385 4.001l-.535.169c-.405-.562-.92-1.004-1.543-1.326-.624-.321-1.276-.482-1.957-.482-.762 0-1.406.169-1.933.506-.526.337-.952.804-1.276 1.398-.325.595-.673 1.784-1.045 3.568-.535 2.459-.948 4.46-1.24 6.002 2.058-.048 3.249-.088 3.573-.12.551-.064 1.118-.185 1.702-.362l.219.289c-.373 1.045-.656 1.993-.851 2.845-.908-.048-1.718-.072-2.431-.072-.665 0-1.554.016-2.669.048l-2.885 13.452c-1.055 4.789-1.963 8.12-2.726 9.992-.762 1.872-1.772 3.523-3.029 4.954-1.257 1.43-2.575 2.499-3.954 3.206-.859.45-1.703.675-2.53.675-.519 0-1.095-.152-1.728-.455.551-1.595.932-2.906 1.143-3.933l.609-.145c.715.9 1.551 1.35 2.509 1.35.568 0 1.104-.137 1.607-.41.504-.273.999-.756 1.486-1.447.487-.692.966-1.938 1.438-3.74.812-3.04 1.615-6.868 2.412-11.485l2.025-12.015c-.949-.016-1.583-.024-1.905-.024-.568.002-1.256.019-2.066.05zM288.722 37.142l-.438-.337c.807-2.716 1.419-4.966 1.839-6.75.807-3.487 1.413-6.581 1.816-9.281.226-1.559.339-2.635.339-3.23 0-.418-.065-.715-.195-.892-.082-.128-.212-.193-.391-.193-.554 0-1.931.788-4.131 2.362l-.586-.795c2.193-1.8 4.111-3.134 5.752-4.001 1.137-.611 1.982-.916 2.535-.916.292 0 .528.096.707.289.178.193.268.49.268.892 0 .434-.113 1.221-.339 2.362-.354 2.025-.831 4.355-1.427 6.991 1.716-2.973 3.449-5.504 5.198-7.594 1.101-1.318 1.943-2.146 2.526-2.483.583-.338 1.149-.506 1.7-.506.292 0 .615.088.972.265-.276 1.415-.551 3.19-.827 5.328l-.656.145c-.486-.643-1.028-.964-1.627-.964-.55 0-1.157.226-1.821.675-1.068.707-2.173 1.917-3.314 3.628s-2.06 3.781-2.756 6.208c-.387 1.318-.992 3.97-1.814 7.955-1.459.32-2.569.601-3.33.842zM304.163 29.71c0-1.979.21-3.833.632-5.562.421-1.729 1.005-3.229 1.75-4.5.745-1.271 1.661-2.393 2.747-3.366 1.086-.974 2.31-1.753 3.671-2.341 1.361-.587 2.674-.881 3.938-.881 1.167 0 2.277.253 3.331.76 1.053.507 1.872 1.295 2.455 2.365s.875 2.538.875 4.404c0 2.478-.495 4.955-1.483 7.433-.794 1.962-1.702 3.551-2.723 4.765-1.021 1.215-2.338 2.253-3.95 3.113-1.613.86-3.221 1.291-4.825 1.291-1.945 0-3.5-.624-4.667-1.87-1.168-1.248-1.751-3.118-1.751-5.611zm3.841-.337c0 1.545.17 2.72.512 3.524.341.804.856 1.416 1.546 1.834.69.418 1.515.627 2.473.627 1.055 0 1.969-.273 2.74-.82.771-.547 1.535-1.553 2.29-3.017.755-1.464 1.303-3.19 1.644-5.177.341-1.987.512-3.769.512-5.346 0-2.011-.374-3.543-1.121-4.597-.747-1.054-1.851-1.581-3.312-1.581-2.339 0-4.137 1.384-5.396 4.151s-1.888 6.235-1.888 10.402zM327.274 36.901l-.305-.41 1.17-4.929c.438-1.966.85-3.875 1.234-5.728.638-2.384 1.111-4.47 1.42-6.259.144-.821.216-1.45.216-1.885 0-.467-.069-.793-.207-.979-.138-.186-.305-.278-.499-.278-.244 0-.601.129-1.072.386-.893.45-1.811 1.004-2.752 1.663l-.341-1.037c.744-.61 1.762-1.354 3.057-2.229 1.293-.876 2.375-1.491 3.242-1.844.449-.161.836-.241 1.162-.241s.577.101.755.301c.178.201.268.518.268.953 0 .386-.064.94-.191 1.664-.031.225-.501 2.555-1.408 6.991 1.565-2.137 2.874-3.728 3.923-4.773 1.775-1.736 3.592-3.094 5.448-4.074 1.243-.643 2.333-.964 3.269-.964.403 0 .702.089.896.265.194.177.291.45.291.82 0 .627-.087 1.446-.262 2.459-.127.691-.632 2.805-1.515 6.34 1.648-2.255 3.34-4.12 5.078-5.594 1.737-1.474 3.536-2.638 5.396-3.492 1.272-.564 2.324-.846 3.157-.846.408 0 .709.097.905.29s.294.5.294.918c0 .484-.103 1.226-.308 2.224-.348 1.709-1.042 4.465-2.082 8.27-1.215 4.479-1.823 7.192-1.823 8.139 0 .321.069.566.207.734.138.169.296.253.474.253.21 0 .446-.056.705-.169.356-.128.833-.386 1.429-.771l1.886-1.302.387.964c-.723.611-1.78 1.382-3.169 2.314-1.39.932-2.502 1.567-3.338 1.904-.402.161-.771.241-1.109.241-.37 0-.699-.161-.989-.482-.29-.322-.435-.772-.435-1.352 0-.451.032-.869.097-1.254.064-.386.274-1.219.63-2.499.354-1.279.918-3.503 1.692-6.673.654-2.639 1.149-4.529 1.486-5.671s.505-1.81.505-2.003c0-.29-.073-.51-.217-.664-.145-.153-.32-.229-.524-.229-.443 0-1.177.249-2.199.747-1.022.498-2.19 1.346-3.502 2.542-1.313 1.197-2.387 2.417-3.222 3.663-.835 1.245-1.551 2.763-2.148 4.554s-1.376 4.602-2.339 8.431c-.832.161-1.785.394-2.86.699l-.286-.337c.672-2.687 1.371-5.611 2.098-8.773.726-3.162 1.278-5.708 1.656-7.639.267-1.384.4-2.317.4-2.8 0-.354-.082-.627-.246-.821-.115-.145-.278-.217-.491-.217-.442 0-.99.177-1.644.531-.999.499-2.086 1.328-3.265 2.486-1.178 1.159-2.213 2.458-3.104 3.898-.892 1.44-1.624 3.158-2.197 5.153-.573 1.995-1.167 4.585-1.782 7.771-1.131.208-2.132.425-3.002.65zM378.726 36.612l.194-1.688c2.042.032 3.306-.04 3.792-.217.243-.081.445-.217.607-.41.227-.29.438-.901.632-1.834.513-2.573 1.263-6.727 2.25-12.461.987-5.734 1.791-10.531 2.412-14.392l-1.452-.024c-4.145 0-6.512.213-7.101.639-.589.426-1.222 2.19-1.899 5.292h-1.799c.438-2.33.851-5.07 1.24-8.22l.267-.29 6.199.241c1.863.064 4.002.096 6.417.096 3.371 0 7.05-.045 11.036-.137 2.091-.061 3.784-.16 5.081-.297l.34.409c-.697 3.494-1.106 5.589-1.228 6.286-.122.697-.207 1.334-.255 1.911h-1.823c.162-1.366.243-2.611.243-3.736 0-.82-.077-1.326-.231-1.519s-.443-.337-.865-.434c-.748-.161-2.39-.241-4.926-.241-1.187 0-2.089.008-2.707.024l-2.137 11.123c-.619 3.313-1.251 6.933-1.898 10.857-.437 2.622-.688 4.303-.752 5.042-.033.322-.049.627-.049.917 0 .37.073.643.219.82.146.177.414.305.802.386.567.113 1.799.169 3.695.169l-.193 1.688c-4.188-.128-6.966-.193-8.335-.193-1.705 0-4.297.064-7.776.193zM405.123 19.628l-.583-1.35c2.879-2.175 5.058-3.625 6.537-4.35 1.042-.5 1.891-.749 2.544-.749.467 0 .836.148 1.109.446s.409.768.409 1.41c0 .53-.057 1.109-.171 1.736-.196 1.029-.595 2.66-1.197 4.894-1.176 4.42-1.893 7.256-2.152 8.51-.178.82-.267 1.431-.267 1.832 0 .337.081.587.243.748s.365.241.609.241c.324 0 .706-.136 1.144-.41.698-.417 1.582-1.229 2.653-2.435s1.971-2.427 2.702-3.665c1.249-2.089 2.215-4.247 2.899-6.473.684-2.226 1.095-4.126 1.234-5.701 1.826-.112 3.588-.426 5.285-.94l.414.41c-.631 1.99-1.424 4.759-2.38 8.307s-1.581 6.131-1.876 7.752c-.181 1.06-.271 1.83-.271 2.312 0 .305.064.529.194.674.13.145.3.216.511.216.243 0 .503-.073.779-.218.389-.21 1.331-.856 2.823-1.939l.462 1.35-2.698 2.054c-1.054.773-1.985 1.406-2.795 1.897-.81.491-1.491.817-2.042.979-.389.112-.762.169-1.118.169-.47 0-.855-.163-1.155-.488-.3-.325-.45-.813-.45-1.464 0-.337.033-.691.099-1.061.131-.835.368-1.953.712-3.351l1.372-5.279c-.745 1.366-1.49 2.547-2.235 3.544-1.231 1.671-2.632 3.238-4.204 4.701s-3.021 2.499-4.349 3.11c-.713.321-1.361.482-1.944.482-.713 0-1.288-.237-1.726-.711-.438-.474-.656-1.169-.656-2.085 0-.594.073-1.27.219-2.025.097-.562.454-1.968 1.07-4.219.81-2.973 1.471-5.343 1.981-7.111.365-1.286.547-2.162.547-2.628 0-.369-.065-.635-.195-.795s-.3-.241-.51-.241c-.471-.002-1.664.637-3.577 1.914zM431.978 37.287l-.608-.579c.363-1.044.705-2.177 1.025-3.399.683-2.667 1.228-4.861 1.633-6.581s.88-3.6 1.425-5.641c.287-1.076.43-1.816.43-2.218 0-.273-.057-.474-.171-.603-.114-.128-.251-.193-.414-.193-.552 0-1.762.703-3.628 2.109l-.657-1.302c2.992-2.513 5.167-4.155 6.525-4.928.895-.516 1.65-.773 2.268-.773.432 0 .755.117.972.35.216.233.324.631.324 1.193 0 .691-.096 1.511-.286 2.459-.292 1.511-.95 4.187-1.972 8.028 1.523-2.796 3.467-5.312 5.833-7.545 1.733-1.623 3.402-2.836 5.007-3.64 1.069-.546 2.009-.82 2.819-.82.681 0 1.199.193 1.556.578.356.386.535.948.535 1.686 0 .578-.1 1.34-.3 2.288-.333 1.493-1.033 4.141-2.1 7.946-.498 1.91-.861 3.548-1.087 4.912-.151.915-.226 1.524-.226 1.83s.055.538.167.698c.095.112.23.168.405.168.286 0 .69-.144 1.214-.431.825-.448 1.642-.999 2.451-1.654l.595 1.35c-2.672 2.03-4.81 3.432-6.413 4.206-.956.451-1.847.676-2.673.676-.615 0-1.053-.229-1.312-.687-.259-.458-.388-1.024-.388-1.7 0-1.269.59-3.965 1.772-8.088 1.181-4.122 1.771-6.777 1.771-7.967 0-.305-.085-.542-.255-.711-.169-.169-.392-.253-.667-.253-.356 0-.76.128-1.213.385-.986.563-2.134 1.64-3.443 3.23-1.31 1.591-2.349 3.23-3.117 4.918-.768 1.688-1.346 3.278-1.734 4.773-.564 2.17-.909 3.849-1.033 5.039-1.982.16-3.658.457-5.03.891zM463.369 35.876c-.875-.753-1.312-1.548-1.312-2.382 0-.273.081-.626.243-1.059 2.025-1.17 3.492-2.101 4.4-2.791l-.899.024c-1.848 0-3.44-.474-4.777-1.422-1.337-.948-2.005-2.499-2.005-4.652 0-1.237.227-2.438.681-3.604.454-1.165 1.069-2.158 1.848-2.977.583-.611 1.248-1.101 1.993-1.471 1.604-.803 3.266-1.471 4.983-2.001.729-.225 1.418-.337 2.066-.337.761 0 1.515.081 2.261.241.405.081.948.257 1.628.53l.802.289c1.085.129 2.245.193 3.477.193.405 0 1.126-.036 2.163-.11.6-.055 1.062-.083 1.386-.083l.268.386-.559 2.507c-.357-.064-.835-.112-1.435-.145-1.086-.064-1.767-.097-2.042-.097-.178 0-.454.008-.826.024.373.868.559 1.784.559 2.748 0 .884-.13 1.764-.389 2.64s-.616 1.699-1.069 2.471c-.34.595-.742 1.117-1.204 1.567-.462.45-1.013.848-1.653 1.193-.641.346-1.617.776-2.929 1.29-.957.37-1.58.635-1.872.795-.6.337-1.045.683-1.337 1.037-.178.241-.267.466-.267.675 0 .37.19.759.571 1.169.38.41 1.308 1.113 2.783 2.109 2.577 1.735 4.201 3.065 4.874 3.989.672.924 1.009 1.965 1.009 3.122 0 2.137-.908 3.913-2.723 5.328-2.512 1.96-5.81 2.941-9.894 2.941-2.447 0-4.453-.306-6.016-.917-1.564-.611-2.678-1.387-3.343-2.328-.664-.941-.997-1.918-.997-2.932 0-.627.138-1.271.413-1.93.276-.66.689-1.299 1.24-1.918s1.211-1.17 1.981-1.652c.77-.483 1.738-.958 2.905-1.424l3.014-1.036zm1.07.893l-2.431 1.182c-.973.563-1.698 1.07-2.176 1.521-.479.45-.863.997-1.155 1.641-.292.643-.438 1.335-.438 2.075 0 1.368.519 2.478 1.556 3.331 1.361 1.126 3.144 1.689 5.348 1.689.972 0 1.855-.117 2.649-.35.794-.234 1.459-.543 1.994-.929.535-.386.976-.877 1.325-1.472.348-.596.522-1.231.522-1.907 0-.885-.361-1.677-1.082-2.377-.719-.7-2.758-2.169-6.112-4.404zm-.268-13.256c0 1.546.329 2.677.985 3.394.656.717 1.551 1.075 2.686 1.075.567 0 1.078-.096 1.531-.29s.875-.483 1.264-.87.766-.942 1.13-1.667c.365-.725.648-1.594.851-2.608.202-1.014.304-1.957.304-2.826 0-1.658-.369-2.797-1.106-3.417-.738-.62-1.592-.93-2.564-.93-1.637 0-2.893.846-3.768 2.536-.875 1.691-1.313 3.559-1.313 5.603zM481.413 37.263l-.492-.458c.841-2.796 1.534-5.416 2.079-7.859.347-1.543 1.093-5.352 2.241-11.427 1.23-4.532 2.058-7.947 2.483-10.245.156-.884.235-1.446.235-1.688 0-.418-.21-.699-.63-.844-.242-.08-1.381-.136-3.417-.169l.25-1.47c1.437-.112 2.998-.374 4.685-.784 1.686-.41 3.209-.88 4.571-1.41l.511.41c-.244.933-.601 2.411-1.071 4.436-.828 3.584-1.404 6.131-1.728 7.642l-2.335 10.848c1.118-1.688 2.124-3.038 3.016-4.05 1.329-1.511 2.577-2.724 3.745-3.64.859-.691 1.795-1.322 2.809-1.893 1.013-.57 1.885-.977 2.614-1.217.535-.161 1.086-.241 1.653-.241.681 0 1.188.169 1.52.506.332.337.499.868.499 1.591 0 .595-.049 1.173-.146 1.736-.307 1.559-.841 3.625-1.601 6.195-1.456 4.886-2.241 7.891-2.357 9.016 0 .402.063.679.189.832.126.153.298.229.517.229.252 0 .539-.073.858-.218.471-.226 1.472-.865 3.003-1.916l.581 1.302c-2.82 2.079-4.854 3.428-6.102 4.048-1.248.62-2.228.93-2.941.93-.486 0-.896-.201-1.228-.603-.333-.402-.499-1.028-.499-1.88 0-.546.065-1.181.195-1.904.097-.531.51-2.146 1.24-4.846 1.497-5.593 2.245-8.743 2.245-9.45 0-.321-.082-.57-.244-.748-.163-.177-.374-.265-.634-.265-.439 0-.991.185-1.658.555-1.122.626-2.312 1.688-3.572 3.182-1.259 1.495-2.377 3.294-3.352 5.4-.715 1.511-1.391 3.6-2.026 6.268-.328 1.27-.5 2.323-.517 3.158-.508.016-1.164.096-1.967.241-1.558.306-2.632.539-3.222.7zM509.194 29.428h1.507l.073 2.314c.696.804 1.608 1.475 2.734 2.013s2.289.807 3.489.807c1.037 0 1.892-.156 2.564-.47.672-.313 1.167-.771 1.483-1.374.316-.603.474-1.201.474-1.796s-.146-1.141-.438-1.64c-.292-.498-.669-.864-1.13-1.097-.462-.233-1.341-.47-2.638-.711-2.269-.434-3.78-.872-4.534-1.314s-1.349-1.069-1.787-1.88-.657-1.684-.657-2.616c0-.884.187-1.76.56-2.627.292-.643.696-1.221 1.215-1.736.519-.514 1.462-1.193 2.832-2.037 1.369-.844 2.447-1.402 3.233-1.675.786-.273 1.722-.41 2.808-.41 1.07 0 2.111.125 3.124.374 1.013.25 2.005.631 2.978 1.145-.325 1.462-.625 3.383-.9 5.762h-1.458l-.292-2.387c-.78-.723-1.666-1.27-2.656-1.639-.991-.37-1.958-.555-2.9-.555-.731 0-1.417.153-2.059.458-.642.306-1.125.728-1.45 1.266-.325.539-.487 1.121-.487 1.748 0 .884.309 1.607.926 2.169s2.03 1.037 4.239 1.422c1.429.257 2.331.45 2.704.579.714.225 1.344.562 1.888 1.012.544.45.979 1.025 1.303 1.724.325.699.487 1.451.487 2.254 0 1.173-.259 2.162-.778 2.965-.519.804-1.386 1.688-2.601 2.652s-2.301 1.68-3.257 2.146c-1.345.643-2.999.964-4.959.964-1.135 0-2.172-.089-3.112-.265-.681-.129-1.864-.498-3.549-1.109.194-.659.38-1.599.559-2.821.276-1.735.43-2.94.462-3.615zM530.029 20.472l-.608-1.277 3.331-2.44c1.702-1.191 2.844-1.948 3.428-2.271.939-.515 1.774-.886 2.503-1.111.454-.128.851-.193 1.191-.193.389 0 .733.161 1.033.481.3.321.45.763.45 1.324 0 .61-.065 1.244-.194 1.902-.211 1.027-.793 3.267-1.749 6.718-.955 3.451-1.546 5.71-1.772 6.778-.226 1.067-.339 1.77-.339 2.107 0 .257.069.458.207.602s.288.216.45.216c.194 0 .502-.112.924-.335.956-.496 2.025-1.143 3.209-1.942l.656 1.277c-1.281.902-2.731 1.873-4.352 2.912-1.621 1.04-2.812 1.696-3.574 1.969-.486.177-.956.266-1.41.266-.552 0-1.005-.205-1.362-.615s-.535-1.041-.535-1.893c0-.675.072-1.374.218-2.097.178-.964.598-2.684 1.26-5.159 1.364-5.111 2.045-8.116 2.045-9.016 0-.208-.053-.37-.158-.482-.105-.112-.239-.169-.401-.169-.65.001-2.133.817-4.451 2.448zm7.511-14.572c0-1.061.328-1.924.984-2.592.656-.667 1.462-1 2.419-1 .81 0 1.462.246 1.957.735.494.491.742 1.137.742 1.941 0 1.141-.316 2.061-.948 2.76-.632.699-1.434 1.048-2.407 1.048-.859 0-1.531-.249-2.018-.747s-.729-1.213-.729-2.145zM568.448 31.104l.535 1.543c-3.98 3.254-6.824 4.881-8.532 4.881-.403 0-.766-.201-1.087-.603-.322-.402-.483-.956-.483-1.664 0-.594.096-1.382.288-2.362.24-1.302.829-3.792 1.767-7.473-1.832 2.893-2.902 4.548-3.21 4.966-1.346 1.768-2.615 3.174-3.807 4.219-1.192 1.045-2.461 1.865-3.807 2.459-.665.305-1.249.458-1.751.458-.827 0-1.508-.33-2.043-.988-.536-.659-.803-1.784-.803-3.375 0-2.234.429-4.769 1.287-7.605s1.619-4.697 2.283-5.581c.486-.626 1.624-1.615 3.413-2.965 1.789-1.35 3.17-2.278 4.142-2.785.972-.506 2.129-.759 3.474-.759.761 0 1.623.113 2.586.337.963.226 1.834.539 2.611.94l2.252-1.302.802.579c-.366.931-.733 2.167-1.099 3.708-1.101 4.559-1.997 8.467-2.688 11.726-.321 1.573-.48 2.576-.48 3.01 0 .337.052.574.158.71.105.137.239.205.401.205.259 0 .656-.144 1.191-.432.744-.417 1.611-1.032 2.6-1.847zm-6.386-13.922c-.714-.37-1.404-.643-2.069-.819-.666-.177-1.307-.265-1.924-.265-1.136 0-2.098.41-2.885 1.229-.788.82-1.664 2.974-2.63 6.461s-1.449 6.115-1.449 7.883c0 .675.098 1.141.292 1.398.194.257.421.385.681.385.275 0 .624-.16 1.045-.482 1.215-.9 2.496-2.254 3.842-4.062 1.345-1.808 2.48-3.745 3.404-5.81.925-2.065 1.489-4.038 1.693-5.918zM572.717 29.766c0-1.993.336-4.066 1.009-6.22.672-2.153 1.398-3.704 2.176-4.652.486-.595 1.349-1.378 2.589-2.351 1.24-.972 2.601-1.776 4.084-2.411s3.059-.952 4.728-.952c1.394 0 2.666.209 3.817.626 1.15.418 2.018.96 2.601 1.627s1.013 1.467 1.288 2.398c.275.932.414 1.953.414 3.062 0 2.106-.353 4.207-1.058 6.304-.705 2.097-1.52 3.7-2.443 4.809-.665.771-1.706 1.627-3.124 2.567-1.418.94-2.779 1.656-4.084 2.146-1.305.49-2.775.735-4.412.735-1.929 0-3.456-.337-4.582-1.013-1.126-.675-1.908-1.603-2.346-2.784-.438-1.179-.657-2.477-.657-3.891zm5.737-.193c0 1.977.376 3.391 1.13 4.243.753.852 1.819 1.278 3.196 1.278.924 0 1.722-.221 2.395-.663.672-.442 1.289-1.157 1.848-2.146s1.073-2.351 1.543-4.086c.681-2.539 1.021-4.966 1.021-7.28 0-1.961-.393-3.379-1.179-4.255-.787-.876-1.811-1.314-3.075-1.314-1.297 0-2.407.479-3.331 1.435s-1.747 2.776-2.467 5.46c-.721 2.683-1.081 5.126-1.081 7.328zM609.912 36.612l.268-1.495c1.799-.449 2.763-.714 2.893-.795.178-.112.324-.281.438-.506.192-.401.531-2.08 1.019-5.034 1.298-8.045 2.069-12.847 2.312-14.405.849-5.123 1.274-7.925 1.274-8.406 0-.386-.089-.663-.268-.831-.178-.169-.559-.285-1.143-.349l-3.087-.217.287-1.688c.909 0 2.468.044 4.678.133s3.713.132 4.511.132c.845 0 1.73-.024 2.656-.072l3.901-.193-.268 1.688h-.535c-1.848-.016-3.015.097-3.5.339-.195.097-.357.25-.486.46-.217.387-.528 1.799-.934 4.236-.521 3.131-1.046 6.318-1.577 9.562l-2.447 14.693c2.463.161 4.489.241 6.078.241 2.738 0 4.862-.176 6.369-.53.6-.145 1.013-.361 1.24-.651.308-.417.973-2.146 1.994-5.183h1.75c-.908 3.76-1.491 6.653-1.75 8.678-.898.129-1.877.193-2.936.193-1.283 0-3.191-.032-5.726-.096-4.748-.097-7.475-.145-8.18-.145-3.787 0-6.73.08-8.831.241zM639.862 20.472l-.608-1.277 3.33-2.44c1.701-1.191 2.844-1.948 3.428-2.271.939-.515 1.775-.886 2.504-1.111.453-.128.852-.193 1.191-.193.389 0 .732.161 1.033.481.299.321.449.763.449 1.324 0 .61-.064 1.244-.193 1.902-.211 1.027-.795 3.267-1.75 6.718-.953 3.451-1.545 5.71-1.771 6.778-.227 1.067-.34 1.77-.34 2.107 0 .257.068.458.207.602.137.145.287.216.449.216.195 0 .502-.112.924-.335.957-.496 2.025-1.143 3.209-1.942l.656 1.277c-1.281.902-2.73 1.873-4.352 2.912-1.621 1.04-2.812 1.696-3.574 1.969-.486.177-.957.266-1.41.266-.551 0-1.006-.205-1.361-.615-.357-.41-.535-1.041-.535-1.893 0-.675.072-1.374.219-2.097.178-.964.598-2.684 1.26-5.159 1.363-5.111 2.045-8.116 2.045-9.016 0-.208-.053-.37-.158-.482s-.238-.169-.4-.169c-.65.001-2.134.817-4.452 2.448zm7.511-14.572c0-1.061.328-1.924.984-2.592.656-.667 1.463-1 2.42-1 .809 0 1.461.246 1.957.735.494.491.74 1.137.74 1.941 0 1.141-.316 2.061-.947 2.76-.633.699-1.436 1.048-2.406 1.048-.859 0-1.533-.249-2.018-.747-.486-.498-.73-1.213-.73-2.145zM655.616 19.628l-.584-1.35c2.879-2.175 5.058-3.625 6.537-4.35 1.042-.5 1.891-.749 2.544-.749.467 0 .837.148 1.108.446.272.297.409.768.409 1.41 0 .53-.057 1.109-.171 1.736-.195 1.029-.595 2.66-1.197 4.894-1.176 4.42-1.893 7.256-2.151 8.51-.179.82-.268 1.431-.268 1.832 0 .337.081.587.243.748s.365.241.609.241c.324 0 .705-.136 1.144-.41.697-.417 1.581-1.229 2.652-2.435 1.071-1.206 1.972-2.427 2.701-3.665 1.25-2.089 2.216-4.247 2.899-6.473.684-2.226 1.095-4.126 1.233-5.701 1.826-.112 3.589-.426 5.286-.94l.413.41c-.632 1.99-1.425 4.759-2.38 8.307-.956 3.547-1.581 6.131-1.876 7.752-.181 1.06-.271 1.83-.271 2.312 0 .305.064.529.194.674.13.145.301.216.512.216.243 0 .503-.073.778-.218.39-.21 1.331-.856 2.823-1.939l.463 1.35-2.698 2.054c-1.054.773-1.985 1.406-2.796 1.897-.81.491-1.49.817-2.041.979-.389.112-.762.169-1.118.169-.47 0-.854-.163-1.154-.488-.301-.325-.45-.813-.45-1.464 0-.337.033-.691.099-1.061.131-.835.368-1.953.713-3.351l1.371-5.279c-.745 1.366-1.49 2.547-2.235 3.544-1.231 1.671-2.633 3.238-4.203 4.701-1.571 1.462-3.021 2.499-4.35 3.11-.713.321-1.36.482-1.943.482-.713 0-1.288-.237-1.726-.711-.438-.474-.656-1.169-.656-2.085 0-.594.072-1.27.219-2.025.097-.562.453-1.968 1.069-4.219.81-2.973 1.471-5.343 1.981-7.111.364-1.286.547-2.162.547-2.628 0-.369-.064-.635-.194-.795-.131-.161-.301-.241-.511-.241-.469-.002-1.661.637-3.574 1.914z"/></g><g><path d="M-.029 256.737v-1.055c.823-.01 1.337-.044 1.54-.101s.391-.165.563-.325.42-.576.743-1.249c.188-.382.865-1.834 2.033-4.356l3.91-8.746c.428-.961 1.34-3.101 2.737-6.419h1l6.678 15.553c1.084 2.522 1.804 4.104 2.159 4.744.198.362.414.6.649.714.234.113.764.176 1.587.186v1.055c-1.627-.104-2.764-.155-3.41-.155l-5.033.155v-1.055c1.166-.021 1.874-.057 2.124-.108s.419-.126.508-.225c.088-.099.133-.22.133-.364 0-.228-.073-.522-.219-.884l-1.918-4.745h-9.047l-1.696 3.985c-.303.713-.454 1.235-.454 1.565 0 .146.042.264.125.357.115.134.292.228.532.278.385.083 1.062.13 2.03.14v1.055c-1.76-.093-3.079-.14-3.956-.14-1.012.001-2.118.048-3.318.14zm7.276-8.699h7.873l-3.888-9.332-3.985 9.332zM32.458 256.737v-.744c.598-.341 1.097-.651 1.499-.931.062-.701.115-1.677.156-2.926.073-2.126.109-3.602.109-4.428v-6.316c0-1.012-.026-2.198-.078-3.561-.042-.856-.115-1.388-.22-1.595-.074-.134-.184-.232-.33-.294-.346-.145-1.063-.222-2.152-.232v-.992c1.52.052 2.863.077 4.029.077.896 0 2.116-.018 3.663-.054 1.546-.036 2.746-.055 3.6-.055 2.551 0 4.602.323 6.154.969 1.551.646 2.868 1.728 3.951 3.246s1.625 3.373 1.625 5.562c0 1.57-.255 3.043-.765 4.416-.51 1.374-1.202 2.575-2.076 3.604-.874 1.027-1.811 1.841-2.809 2.44-.999.599-2.047 1.051-3.145 1.355s-2.604.457-4.518.457c-.635 0-1.493-.018-2.575-.055-1.415-.036-2.341-.054-2.778-.054-.635.003-1.749.039-3.34.111zm4.825-1.69c1.146.196 2.353.295 3.624.295 1.312 0 2.47-.113 3.475-.341 1.004-.228 1.864-.548 2.577-.961.713-.413 1.403-1.022 2.07-1.828.666-.806 1.179-1.836 1.538-3.091s.539-2.554.539-3.896c0-1.921-.347-3.571-1.039-4.95-.693-1.379-1.736-2.436-3.132-3.169-1.395-.733-3.311-1.1-5.747-1.1-1.281 0-2.583.099-3.905.294-.031.507-.057 1.405-.078 2.696l-.062 2.246v6.183l.047 4.803c.01.733.041 1.672.093 2.819zM68.957 254.33l-.5 1.116c-.718.445-1.245.741-1.578.886-.489.218-1.049.402-1.679.552-.63.15-1.294.226-1.991.226-1.375 0-2.619-.284-3.733-.853s-1.981-1.419-2.601-2.551-.929-2.458-.929-3.978c0-1.188.164-2.261.492-3.218.328-.956.7-1.661 1.117-2.116.302-.331.771-.711 1.406-1.14.635-.429 1.265-.768 1.89-1.016.822-.341 1.712-.512 2.67-.512 1.166 0 2.22.264 3.163.791s1.632 1.245 2.07 2.155c.437.909.656 1.938.656 3.086 0 .289-.026.641-.078 1.054-.749.146-1.419.238-2.012.279-1.123.083-2.246.124-3.369.124h-5.005c.021 1.482.278 2.682.773 3.599.494.917 1.176 1.594 2.046 2.028.869.436 1.772.653 2.709.653.635 0 1.268-.103 1.898-.307.63-.204 1.408-.579 2.335-1.124l.25.266zm-10.011-6.338c.291.03.843.062 1.655.093 1.551.052 2.619.077 3.202.077 1.385 0 2.296-.025 2.733-.077l.016-.574c0-1.633-.333-2.832-1-3.597-.667-.766-1.557-1.147-2.671-1.147-1.177 0-2.124.418-2.842 1.256-.718.836-1.082 2.16-1.093 3.969zM70.551 244.58v-.65c1.002-.394 1.798-.745 2.39-1.055v-4.714c1.083-.372 1.962-.771 2.64-1.194l.375.311c-.114.858-.239 2.75-.375 5.675l1.499.016 1.609-.031c.541-.01.947-.03 1.218-.062l.109.108-.328 1.442c-.656-.011-1.26-.016-1.812-.016s-1.317.005-2.296.016l-.078 6.311c-.031 1.541-.021 2.461.031 2.76.052.301.15.562.296.783.145.223.334.401.568.535.233.135.63.238 1.19.311.426 0 .771-.019 1.035-.055s.599-.126 1.004-.271l.187.604c-.489.383-.962.781-1.419 1.194-.396.145-.765.24-1.108.287-.343.046-.738.069-1.185.069-.551 0-.991-.062-1.318-.186s-.626-.297-.897-.52c-.27-.223-.495-.504-.674-.846-.179-.341-.295-.878-.348-1.612.01-.703.031-1.473.062-2.311l.016-.542v-6.436h-.642c-.521.002-1.104.028-1.749.079zM83.015 246.115l-.828-.217c.01-.237.016-.563.016-.977 0-.435-.005-.78-.016-1.039 1.324-.858 2.408-1.437 3.253-1.736.646-.218 1.371-.326 2.174-.326 1.188 0 2.189.223 3.003.667s1.418 1.08 1.814 1.907c.271.579.407 1.37.407 2.372l-.078 2.838v4.621c0 .496.042.853.125 1.069.062.155.161.27.297.342.104.062.322.104.656.124l1.015.093v.884c-.854-.072-1.604-.108-2.249-.108-.625 0-1.458.036-2.499.108l.078-2.729c-2.124 1.593-3.384 2.489-3.779 2.69-.396.202-.896.303-1.5.303-1.26 0-2.241-.333-2.944-1s-1.054-1.554-1.054-2.659c0-.714.122-1.365.367-1.954s.539-1.057.883-1.403c.343-.346.692-.602 1.046-.768.604-.279 1.585-.579 2.944-.899s2.705-.558 4.037-.713c.01-.982-.109-1.747-.359-2.295-.25-.548-.672-.998-1.265-1.35-.594-.351-1.317-.527-2.171-.527-.615 0-1.153.083-1.617.249-.463.165-.747.305-.851.418l-.281.559c-.281.619-.489 1.106-.624 1.456zm7.168 2.435c-1.354.228-2.509.481-3.467.76-.958.279-1.635.569-2.031.869-.239.176-.448.439-.625.79-.271.518-.406 1.091-.406 1.722 0 .765.213 1.362.641 1.791.427.429 1.02.644 1.78.644.697 0 1.387-.199 2.069-.598.682-.397 1.361-.994 2.038-1.791v-4.187zM95.681 243.976v-.884c2.02-.228 3.717-.661 5.092-1.303l.343.248c-.083 2.202-.125 3.888-.125 5.056v2.822c.052 2.688.083 4.14.093 4.356.01.518.068.895.172 1.132.052.094.12.174.203.241s.208.121.375.162c.062.011.64.026 1.733.047v.884c-1.583-.072-2.848-.108-3.795-.108-.833 0-2.197.036-4.092.108v-.884l1.493-.016c.22-.01.39-.049.511-.116s.212-.152.275-.256c.115-.207.189-.574.22-1.101 0-.135.026-1.618.078-4.45v-2.729c0-1.54-.052-2.455-.156-2.744-.062-.155-.174-.271-.336-.35-.16-.076-.855-.115-2.084-.115zm3.811-9.072c.489 0 .903.171 1.242.512.338.342.507.755.507 1.241 0 .476-.172.884-.515 1.225-.344.341-.755.512-1.234.512-.49 0-.906-.171-1.25-.512s-.516-.749-.516-1.225c0-.486.172-.899.516-1.241.344-.341.76-.512 1.25-.512zM104.444 256.737v-.884l1.468-.016c.229-.01.403-.049.523-.116.12-.066.211-.152.273-.256.115-.206.182-.573.203-1.1.01-.135.047-1.616.109-4.447v-6.43c0-1.725-.026-3.507-.078-5.346-.042-1.239-.1-1.932-.173-2.076-.052-.104-.136-.176-.251-.217-.157-.072-.88-.108-2.168-.108v-.915c2.353-.289 3.988-.651 4.904-1.085.135-.062.239-.094.312-.094.073 0 .13.023.171.07.042.046.062.111.062.193l-.031.31-.016.512c-.052 1.85-.083 3.425-.093 4.726l-.031 2.418v8.042c.043 2.686.069 4.137.078 4.354.01.517.073.894.189 1.131.042.093.104.173.188.24s.209.121.377.162c.073.011.655.026 1.745.047v.884c-1.416-.072-2.66-.108-3.732-.108-1.02.001-2.363.037-4.029.109zM126.122 254.33l-.5 1.116c-.718.445-1.245.741-1.578.886-.489.218-1.049.402-1.679.552-.63.15-1.294.226-1.991.226-1.375 0-2.619-.284-3.733-.853s-1.981-1.419-2.601-2.551-.929-2.458-.929-3.978c0-1.188.164-2.261.492-3.218.328-.956.7-1.661 1.117-2.116.302-.331.771-.711 1.406-1.14.635-.429 1.265-.768 1.89-1.016.822-.341 1.712-.512 2.67-.512 1.166 0 2.22.264 3.163.791s1.632 1.245 2.07 2.155c.437.909.656 1.938.656 3.086 0 .289-.026.641-.078 1.054-.749.146-1.419.238-2.012.279-1.123.083-2.246.124-3.369.124h-5.005c.021 1.482.278 2.682.773 3.599.494.917 1.176 1.594 2.046 2.028.869.436 1.772.653 2.709.653.635 0 1.268-.103 1.898-.307.63-.204 1.408-.579 2.335-1.124l.25.266zm-10.011-6.338c.291.03.843.062 1.655.093 1.551.052 2.619.077 3.202.077 1.385 0 2.296-.025 2.733-.077l.016-.574c0-1.633-.333-2.832-1-3.597-.667-.766-1.557-1.147-2.671-1.147-1.177 0-2.124.418-2.842 1.256-.718.836-1.082 2.16-1.093 3.969zM137.602 235.68v-.884c1.156-.124 2.132-.271 2.929-.441.796-.171 1.575-.38 2.335-.628l.203.14c-.042.878-.088 2.573-.141 5.086l-.062 2.48v9.707c0 1.055.018 1.967.054 2.736.037.771.102 1.23.195 1.381.094.149.25.271.469.364.219.093.869.186 1.952.279v.837c-1.271-.072-2.166-.108-2.686-.108-.448 0-1.364.036-2.749.108.031-.713.057-1.675.078-2.884-.417.3-.976.749-1.679 1.349-.703.6-1.252 1.091-1.648 1.473-.833.207-1.567.311-2.202.311-1.177 0-2.259-.289-3.249-.868s-1.752-1.419-2.288-2.52c-.536-1.102-.804-2.339-.804-3.714 0-1.034.164-2.014.492-2.938.328-.925.742-1.641 1.242-2.147.281-.289.921-.729 1.921-1.318 1-.589 1.809-1.016 2.429-1.279s1.294-.396 2.022-.396c.656 0 1.299.08 1.929.24.63.161 1.242.406 1.835.737v-4.078c0-1.438-.062-2.311-.188-2.621-.042-.113-.12-.196-.234-.248-.208-.094-.926-.146-2.155-.156zm2.577 9.751c-.708-.774-1.45-1.34-2.226-1.696-.776-.355-1.539-.534-2.288-.534-.854 0-1.64.217-2.358.65-.718.435-1.268 1.09-1.647 1.967-.38.878-.57 1.931-.57 3.159 0 1.89.474 3.366 1.42 4.429.947 1.063 2.087 1.596 3.419 1.596.697 0 1.322-.145 1.874-.434.551-.289 1.036-.713 1.453-1.27.417-.558.684-1.178.798-1.859.083-.454.125-1.574.125-3.36v-2.648zM163.17 255.745v.992c-2.214-.072-3.669-.108-4.366-.108l-4.818.108v-.992c1.222-.021 1.968-.075 2.237-.163.27-.087.456-.209.56-.364.125-.206.202-.707.233-1.503.013-.217.039-1.684.078-4.399v-7.175c0-1.404-.015-2.778-.046-4.121-.031-.981-.107-1.562-.227-1.743-.12-.181-.312-.314-.578-.402-.265-.088-1.018-.143-2.257-.163v-.992c1.985.072 3.519.108 4.6.108 1.04 0 2.567-.036 4.584-.108v.992c-1.233.021-1.981.075-2.246.163-.264.088-.448.209-.551.363-.125.207-.202.708-.233 1.504-.013.206-.039 1.673-.078 4.399v7.175c0 1.404.016 2.773.047 4.105.031.981.106 1.565.227 1.751.119.186.312.323.578.41.265.088 1.017.143 2.256.163zM163.827 256.737v-.884l1.493-.016c.22-.01.39-.049.511-.116s.212-.152.275-.256c.115-.207.188-.574.22-1.101 0-.135.026-1.618.078-4.45v-1.846c0-.827-.016-1.716-.047-2.667-.031-.609-.081-.972-.148-1.085-.068-.114-.185-.199-.351-.256-.167-.058-.843-.08-2.03-.07v-.884c2.103-.289 3.639-.667 4.607-1.132.208-.104.349-.155.422-.155s.13.026.172.078c.042.052.062.129.062.232l-.016.248c-.031.372-.062 1.157-.094 2.356l2.905-2.465c.854-.311 1.661-.466 2.421-.466.843 0 1.643.171 2.397.512.755.342 1.322.771 1.702 1.287.38.518.633 1.168.758 1.954.073.465.109 1.763.109 3.892v2.745c0 1.344.036 2.259.109 2.744.052.311.133.525.242.644.109.119.278.194.508.225l1.671.047v.884c-1.021-.072-1.869-.108-2.545-.108-.583 0-1.552.036-2.905.108.146-2.553.219-4.166.219-4.838v-2.605c0-1.622-.062-2.688-.188-3.193-.177-.693-.578-1.251-1.203-1.675-.625-.424-1.38-.636-2.265-.636-.781 0-1.494.183-2.14.55-.646.366-1.106.79-1.382 1.271-.276.48-.414 1.289-.414 2.427v1.876c.052 2.688.078 4.141.078 4.357.021.518.083.895.188 1.132.042.094.104.174.188.241s.215.121.393.162c.063.011.639.026 1.729.047v.884c-1.271-.072-2.421-.108-3.452-.108-.873.001-2.299.037-4.277.109zM182.084 244.58v-.65c1.002-.394 1.798-.745 2.39-1.055v-4.714c1.083-.372 1.962-.771 2.64-1.194l.375.311c-.114.858-.239 2.75-.375 5.675l1.499.016 1.609-.031c.541-.01.947-.03 1.218-.062l.109.108-.328 1.442c-.656-.011-1.26-.016-1.812-.016s-1.317.005-2.296.016l-.078 6.311c-.031 1.541-.021 2.461.031 2.76.052.301.15.562.296.783.145.223.334.401.568.535.233.135.63.238 1.19.311.426 0 .771-.019 1.035-.055s.599-.126 1.004-.271l.187.604c-.489.383-.962.781-1.419 1.194-.396.145-.765.24-1.108.287-.343.046-.738.069-1.185.069-.551 0-.991-.062-1.318-.186s-.626-.297-.897-.52c-.27-.223-.495-.504-.674-.846-.179-.341-.295-.878-.348-1.612.01-.703.031-1.473.062-2.311l.016-.542v-6.436h-.64c-.522.002-1.105.028-1.751.079zM191.894 256.737v-.884c1.184-.021 1.822-.041 1.917-.062.178-.03.312-.079.4-.146.089-.067.16-.163.212-.287.104-.238.167-.61.188-1.116.052-2.761.078-4.202.078-4.326v-1.846c0-.827-.016-1.716-.047-2.667-.021-.609-.065-.972-.133-1.085-.068-.114-.188-.199-.359-.256-.172-.058-.851-.08-2.038-.07v-.884c2.103-.289 3.639-.667 4.607-1.132.208-.104.349-.155.422-.155.072 0 .13.026.171.078s.062.129.062.232l-.016.248c-.052.631-.083 1.607-.094 2.931.469-.538.901-1.07 1.296-1.598s.682-.868.859-1.023c.312-.269.672-.482 1.078-.644.406-.16.828-.24 1.265-.24.438 0 .87.094 1.296.279l.094.217c-.156 1.375-.245 2.585-.266 3.629h-.703c-.24-.496-.518-.858-.835-1.086-.318-.227-.716-.341-1.195-.341-.802 0-1.484.328-2.046.984-.562.657-.844 1.642-.844 2.954v1.598c0 .682.026 1.928.078 3.736.01.642.037 1.05.078 1.226s.096.302.164.38c.068.077.18.142.336.193.312.093 1.156.187 2.53.279v.884c-1.833-.072-3.395-.108-4.686-.108-1.329 0-2.62.036-3.869.108zM204.217 249.597c0-2.317.742-4.209 2.226-5.673s3.386-2.196 5.708-2.196c2.187 0 3.967.683 5.341 2.049s2.062 3.13 2.062 5.293c0 1.511-.354 2.893-1.062 4.145s-1.708 2.232-2.999 2.941c-1.292.708-2.712 1.062-4.264 1.062-1.208 0-2.231-.201-3.069-.605-.838-.403-1.518-.91-2.038-1.521-.521-.611-.916-1.237-1.187-1.879-.479-1.127-.718-2.333-.718-3.616zm2.951-1.149c0 1.272.213 2.566.641 3.881.427 1.314 1.043 2.274 1.851 2.88.807.605 1.684.908 2.632.908 1.208 0 2.218-.477 3.03-1.429s1.218-2.416 1.218-4.393c0-1.646-.242-3.066-.727-4.262-.484-1.195-1.101-2.039-1.851-2.53s-1.577-.737-2.483-.737c-1.28 0-2.319.46-3.116 1.382-.796.921-1.195 2.355-1.195 4.3zM230.581 235.68v-.884c1.156-.124 2.132-.271 2.929-.441.796-.171 1.575-.38 2.335-.628l.203.14c-.042.878-.088 2.573-.141 5.086l-.062 2.48v9.707c0 1.055.018 1.967.054 2.736.037.771.102 1.23.195 1.381.094.149.25.271.469.364.219.093.869.186 1.952.279v.837c-1.271-.072-2.166-.108-2.686-.108-.448 0-1.364.036-2.749.108.031-.713.057-1.675.078-2.884-.417.3-.976.749-1.679 1.349-.703.6-1.252 1.091-1.648 1.473-.833.207-1.567.311-2.202.311-1.177 0-2.259-.289-3.249-.868s-1.752-1.419-2.288-2.52c-.536-1.102-.804-2.339-.804-3.714 0-1.034.164-2.014.492-2.938.328-.925.742-1.641 1.242-2.147.281-.289.921-.729 1.921-1.318 1-.589 1.809-1.016 2.429-1.279s1.294-.396 2.022-.396c.656 0 1.299.08 1.929.24.63.161 1.242.406 1.835.737v-4.078c0-1.438-.062-2.311-.188-2.621-.042-.113-.12-.196-.234-.248-.208-.094-.927-.146-2.155-.156zm2.577 9.751c-.708-.774-1.45-1.34-2.226-1.696-.776-.355-1.539-.534-2.288-.534-.854 0-1.64.217-2.358.65-.718.435-1.268 1.09-1.647 1.967-.38.878-.57 1.931-.57 3.159 0 1.89.474 3.366 1.42 4.429.947 1.063 2.087 1.596 3.419 1.596.697 0 1.322-.145 1.874-.434.551-.289 1.036-.713 1.453-1.27.417-.558.684-1.178.798-1.859.083-.454.125-1.574.125-3.36v-2.648zM257.351 255.854v.884c-1.364-.072-2.395-.108-3.092-.108-.771 0-1.552.036-2.343.108.062-.837.109-1.778.141-2.822-.625.496-1.369 1.174-2.233 2.031-.198.196-.39.342-.577.435-.448.248-.895.426-1.342.535-.447.108-.983.162-1.607.162-.843 0-1.547-.113-2.114-.341-.567-.228-1.054-.573-1.459-1.039-.304-.341-.537-.783-.699-1.325-.163-.543-.244-1.197-.244-1.962 0-.361.013-.703.039-1.023s.039-.636.039-.946v-2.651c0-.269-.016-.945-.047-2.031-.021-.682-.068-1.126-.141-1.333-.042-.104-.109-.187-.203-.248-.156-.104-.432-.155-.828-.155-.573 0-1.025-.005-1.358-.016v-.884c2.238-.248 3.863-.646 4.873-1.194.167-.093.297-.14.391-.14.073 0 .133.026.18.078s.07.129.07.232l-.016.311c-.042.33-.078.966-.109 1.907-.062 1.726-.094 2.884-.094 3.473v3.024c0 1.261.085 2.147.257 2.659s.505.92.999 1.225c.495.305 1.106.457 1.834.457.5 0 .997-.085 1.491-.256.495-.171.939-.418 1.335-.739.292-.237.589-.558.892-.96.229-.3.38-.529.454-.689.073-.159.12-.395.141-.704.052-.91.078-1.814.078-2.714v-1.303c0-.269-.016-.945-.047-2.031-.021-.682-.068-1.126-.141-1.333-.042-.104-.109-.187-.203-.248-.156-.104-.432-.155-.828-.155-.573 0-1.025-.005-1.359-.016v-.884c2.232-.248 3.852-.646 4.859-1.194.167-.093.296-.14.39-.14.073 0 .132.026.179.078.046.052.07.129.07.232l-.014.311c-.029.33-.062.987-.1 1.969-.059 1.686-.089 2.822-.089 3.411v2.125l.031 2.155c.039 1.251.065 1.984.078 2.201.01.518.067.895.171 1.132.052.094.119.174.202.241s.207.121.373.162c.059.009.633.025 1.72.046zM271.08 254.97l-.625 1.039c-.718.382-1.429.661-2.132.837-.703.176-1.497.264-2.382.264-2.187 0-3.928-.654-5.224-1.964-1.296-1.309-1.944-3.106-1.944-5.394 0-1.21.174-2.264.523-3.158.349-.896.778-1.586 1.289-2.072.344-.342.997-.784 1.96-1.327.963-.543 1.637-.893 2.023-1.048.708-.3 1.556-.45 2.545-.45.937 0 1.781.099 2.53.295.479.124.958.331 1.437.62-.121.796-.207 1.398-.257 1.807s-.116 1.149-.196 2.225h-.89c-.063-1.002-.125-1.628-.188-1.876-.042-.155-.136-.295-.282-.419-.375-.289-.858-.54-1.447-.752s-1.233-.317-1.933-.317c-.876 0-1.635.179-2.277.535-.642.357-1.14.924-1.494 1.7-.355.776-.532 1.739-.532 2.888 0 1.408.25 2.681.75 3.819.5 1.139 1.179 1.97 2.038 2.492s1.819.784 2.881.784c.531 0 1.049-.064 1.554-.194.505-.129 1.153-.374 1.944-.736l.329.402zM271.798 244.58v-.65c1.002-.394 1.798-.745 2.39-1.055v-4.714c1.083-.372 1.962-.771 2.64-1.194l.375.311c-.114.858-.239 2.75-.375 5.675l1.499.016 1.609-.031c.541-.01.947-.03 1.218-.062l.109.108-.328 1.442c-.656-.011-1.26-.016-1.812-.016s-1.317.005-2.296.016l-.078 6.311c-.031 1.541-.021 2.461.031 2.76.052.301.15.562.296.783.145.223.334.401.568.535.233.135.63.238 1.19.311.426 0 .771-.019 1.035-.055s.599-.126 1.004-.271l.187.604c-.489.383-.962.781-1.419 1.194-.396.145-.765.24-1.108.287-.343.046-.738.069-1.185.069-.551 0-.991-.062-1.318-.186s-.626-.297-.897-.52c-.27-.223-.495-.504-.674-.846-.179-.341-.295-.878-.348-1.612.01-.703.031-1.473.062-2.311l.016-.542v-6.436h-.64c-.522.002-1.105.028-1.751.079zM281.576 243.976v-.884c2.02-.228 3.717-.661 5.092-1.303l.343.248c-.083 2.202-.125 3.888-.125 5.056v2.822c.052 2.688.083 4.14.093 4.356.01.518.068.895.172 1.132.052.094.12.174.203.241s.208.121.375.162c.062.011.64.026 1.733.047v.884c-1.583-.072-2.848-.108-3.795-.108-.833 0-2.197.036-4.092.108v-.884l1.493-.016c.22-.01.39-.049.511-.116s.212-.152.275-.256c.115-.207.189-.574.22-1.101 0-.135.026-1.618.078-4.45v-2.729c0-1.54-.052-2.455-.156-2.744-.062-.155-.174-.271-.336-.35-.16-.076-.855-.115-2.084-.115zm3.811-9.072c.489 0 .903.171 1.242.512.338.342.507.755.507 1.241 0 .476-.172.884-.515 1.225-.344.341-.755.512-1.234.512-.49 0-.906-.171-1.25-.512s-.516-.749-.516-1.225c0-.486.172-.899.516-1.241.344-.341.76-.512 1.25-.512zM290.604 249.597c0-2.317.742-4.209 2.226-5.673s3.386-2.196 5.708-2.196c2.187 0 3.967.683 5.341 2.049s2.062 3.13 2.062 5.293c0 1.511-.354 2.893-1.062 4.145s-1.708 2.232-2.999 2.941c-1.292.708-2.712 1.062-4.264 1.062-1.208 0-2.231-.201-3.069-.605-.838-.403-1.518-.91-2.038-1.521-.521-.611-.916-1.237-1.187-1.879-.479-1.127-.718-2.333-.718-3.616zm2.952-1.149c0 1.272.213 2.566.641 3.881.427 1.314 1.043 2.274 1.851 2.88.807.605 1.684.908 2.632.908 1.208 0 2.218-.477 3.03-1.429s1.218-2.416 1.218-4.393c0-1.646-.242-3.066-.727-4.262-.484-1.195-1.101-2.039-1.851-2.53s-1.577-.737-2.483-.737c-1.28 0-2.319.46-3.116 1.382-.797.921-1.195 2.355-1.195 4.3zM306.801 256.737v-.884l1.493-.016c.22-.01.39-.049.511-.116s.212-.152.275-.256c.115-.207.188-.574.22-1.101 0-.135.026-1.618.078-4.45v-1.846c0-.827-.016-1.716-.047-2.667-.031-.609-.081-.972-.148-1.085-.068-.114-.185-.199-.351-.256-.167-.058-.843-.08-2.03-.07v-.884c2.103-.289 3.639-.667 4.607-1.132.208-.104.349-.155.422-.155s.13.026.172.078c.042.052.062.129.062.232l-.016.248c-.031.372-.062 1.157-.094 2.356l2.905-2.465c.854-.311 1.661-.466 2.421-.466.843 0 1.643.171 2.397.512.755.342 1.322.771 1.702 1.287.38.518.633 1.168.758 1.954.073.465.109 1.763.109 3.892v2.745c0 1.344.036 2.259.109 2.744.052.311.133.525.242.644.109.119.278.194.508.225l1.671.047v.884c-1.021-.072-1.869-.108-2.545-.108-.583 0-1.552.036-2.905.108.146-2.553.219-4.166.219-4.838v-2.605c0-1.622-.062-2.688-.188-3.193-.177-.693-.578-1.251-1.203-1.675-.625-.424-1.38-.636-2.265-.636-.781 0-1.494.183-2.14.55-.646.366-1.106.79-1.382 1.271-.276.48-.414 1.289-.414 2.427v1.876c.052 2.688.078 4.141.078 4.357.021.518.083.895.188 1.132.042.094.104.174.188.241s.215.121.393.162c.063.011.639.026 1.729.047v.884c-1.271-.072-2.421-.108-3.452-.108-.873.001-2.299.037-4.277.109zM332.415 244.58v-.65c1.002-.394 1.798-.745 2.39-1.055v-4.714c1.083-.372 1.962-.771 2.64-1.194l.375.311c-.114.858-.239 2.75-.375 5.675l1.499.016 1.609-.031c.541-.01.947-.03 1.218-.062l.109.108-.328 1.442c-.656-.011-1.26-.016-1.812-.016s-1.317.005-2.296.016l-.078 6.311c-.031 1.541-.021 2.461.031 2.76.052.301.15.562.296.783.145.223.334.401.568.535.233.135.63.238 1.19.311.426 0 .771-.019 1.035-.055s.599-.126 1.004-.271l.187.604c-.489.383-.962.781-1.419 1.194-.396.145-.765.24-1.108.287-.343.046-.738.069-1.185.069-.551 0-.991-.062-1.318-.186s-.626-.297-.897-.52c-.27-.223-.495-.504-.674-.846-.179-.341-.295-.878-.348-1.612.01-.703.031-1.473.062-2.311l.016-.542v-6.436h-.64c-.522.002-1.105.028-1.751.079zM342.552 249.597c0-2.317.742-4.209 2.226-5.673s3.386-2.196 5.708-2.196c2.187 0 3.967.683 5.341 2.049s2.062 3.13 2.062 5.293c0 1.511-.354 2.893-1.062 4.145s-1.708 2.232-2.999 2.941c-1.292.708-2.712 1.062-4.264 1.062-1.208 0-2.231-.201-3.069-.605-.838-.403-1.518-.91-2.038-1.521-.521-.611-.916-1.237-1.187-1.879-.478-1.127-.718-2.333-.718-3.616zm2.952-1.149c0 1.272.213 2.566.641 3.881.427 1.314 1.043 2.274 1.851 2.88.807.605 1.684.908 2.632.908 1.208 0 2.218-.477 3.03-1.429s1.218-2.416 1.218-4.393c0-1.646-.242-3.066-.727-4.262-.484-1.195-1.101-2.039-1.851-2.53s-1.577-.737-2.483-.737c-1.28 0-2.319.46-3.116 1.382-.797.921-1.195 2.355-1.195 4.3zM366.261 235.711v-.992c1.093.041 2.14.062 3.14.062 1.01 0 1.979-.021 2.905-.062.917 2.066 1.755 3.879 2.516 5.438l5.923 12.099 5.33-11.103c1.46-3.011 2.436-5.156 2.926-6.435 1.104.041 2.036.062 2.796.062.698 0 1.827-.021 3.389-.062v.992c-1.239.021-1.991.075-2.257.163s-.45.209-.554.363c-.136.207-.214.708-.234 1.504-.011.206-.037 1.673-.078 4.399v7.175c0 1.404.026 2.773.078 4.105.031.981.106 1.565.225 1.751s.311.323.575.41c.264.088 1.012.143 2.245.163v.992c-2.104-.093-3.587-.14-4.451-.14-.698 0-2.239.047-4.623.14v-.992c1.239-.021 1.994-.075 2.265-.163.271-.087.453-.209.547-.364.135-.206.213-.707.234-1.503.01-.217.036-1.684.078-4.4v-11.373l-5.388 11.188c-.843 1.746-1.504 3.151-1.983 4.215-.343.775-.864 2.004-1.562 3.688h-.609c-.135-.393-.26-.708-.375-.945l-1.062-2.247-7.466-15.387v10.861c0 1.405.021 2.773.062 4.106.031.981.107 1.565.227 1.751s.312.323.578.41c.265.088 1.018.143 2.256.163v.992l-3.764-.108-3.889.108v-.992c1.222-.021 1.968-.075 2.237-.163.27-.087.456-.209.56-.364.125-.206.202-.707.233-1.503.013-.217.039-1.684.078-4.399v-7.175c0-1.404-.016-2.778-.047-4.121-.031-.981-.107-1.562-.227-1.743-.12-.181-.312-.314-.578-.402-.264-.087-1.017-.142-2.256-.162zM413.756 255.854v.884c-1.364-.072-2.395-.108-3.092-.108-.771 0-1.552.036-2.343.108.062-.837.109-1.778.141-2.822-.625.496-1.369 1.174-2.233 2.031-.198.196-.39.342-.577.435-.448.248-.895.426-1.342.535-.447.108-.983.162-1.607.162-.843 0-1.547-.113-2.114-.341-.567-.228-1.054-.573-1.459-1.039-.304-.341-.537-.783-.699-1.325-.163-.543-.244-1.197-.244-1.962 0-.361.013-.703.039-1.023s.039-.636.039-.946v-2.651c0-.269-.016-.945-.047-2.031-.021-.682-.068-1.126-.141-1.333-.042-.104-.109-.187-.203-.248-.156-.104-.432-.155-.828-.155-.573 0-1.025-.005-1.358-.016v-.884c2.238-.248 3.863-.646 4.873-1.194.167-.093.297-.14.391-.14.073 0 .133.026.18.078s.07.129.07.232l-.016.311c-.042.33-.078.966-.109 1.907-.062 1.726-.094 2.884-.094 3.473v3.024c0 1.261.085 2.147.257 2.659s.505.92.999 1.225c.495.305 1.106.457 1.834.457.5 0 .997-.085 1.491-.256.495-.171.939-.418 1.335-.739.292-.237.589-.558.892-.96.229-.3.38-.529.454-.689.073-.159.12-.395.141-.704.052-.91.078-1.814.078-2.714v-1.303c0-.269-.016-.945-.047-2.031-.021-.682-.068-1.126-.141-1.333-.042-.104-.109-.187-.203-.248-.156-.104-.432-.155-.828-.155-.573 0-1.025-.005-1.359-.016v-.884c2.232-.248 3.852-.646 4.859-1.194.167-.093.296-.14.39-.14.073 0 .132.026.179.078.046.052.07.129.07.232l-.014.311c-.029.33-.062.987-.1 1.969-.059 1.686-.089 2.822-.089 3.411v2.125l.031 2.155c.039 1.251.065 1.984.078 2.201.01.518.067.895.171 1.132.052.094.119.174.202.241s.207.121.373.162c.06.009.634.025 1.72.046zM414.367 256.737v-.884l1.493-.016c.22-.01.39-.049.511-.116s.212-.152.275-.256c.115-.207.188-.574.22-1.101 0-.135.026-1.618.078-4.45v-1.846c0-.827-.016-1.716-.047-2.667-.031-.609-.081-.972-.148-1.085-.068-.114-.185-.199-.351-.256-.167-.058-.843-.08-2.03-.07v-.884c2.103-.289 3.639-.667 4.607-1.132.208-.104.349-.155.422-.155s.13.026.172.078c.042.052.062.129.062.232l-.016.248c-.031.372-.062 1.157-.094 2.356l2.905-2.465c.854-.311 1.661-.466 2.421-.466.843 0 1.643.171 2.397.512.755.342 1.322.771 1.702 1.287.38.518.633 1.168.758 1.954.073.465.109 1.763.109 3.892v2.745c0 1.344.036 2.259.109 2.744.052.311.133.525.242.644.109.119.278.194.508.225l1.671.047v.884c-1.021-.072-1.869-.108-2.545-.108-.583 0-1.552.036-2.905.108.146-2.553.219-4.166.219-4.838v-2.605c0-1.622-.062-2.688-.188-3.193-.177-.693-.578-1.251-1.203-1.675-.625-.424-1.38-.636-2.265-.636-.781 0-1.494.183-2.14.55-.646.366-1.106.79-1.382 1.271-.276.48-.414 1.289-.414 2.427v1.876c.052 2.688.078 4.141.078 4.357.021.518.083.895.188 1.132.042.094.104.174.188.241s.215.121.393.162c.063.011.639.026 1.729.047v.884c-1.271-.072-2.421-.108-3.452-.108-.873.001-2.299.037-4.277.109zM432.608 243.976v-.884c2.02-.228 3.717-.661 5.092-1.303l.343.248c-.083 2.202-.125 3.888-.125 5.056v2.822c.052 2.688.083 4.14.093 4.356.01.518.068.895.172 1.132.052.094.12.174.203.241s.208.121.375.162c.062.011.64.026 1.733.047v.884c-1.583-.072-2.848-.108-3.795-.108-.833 0-2.197.036-4.092.108v-.884l1.493-.016c.22-.01.39-.049.511-.116s.212-.152.275-.256c.115-.207.189-.574.22-1.101 0-.135.026-1.618.078-4.45v-2.729c0-1.54-.052-2.455-.156-2.744-.062-.155-.174-.271-.336-.35-.16-.076-.855-.115-2.084-.115zm3.811-9.072c.489 0 .903.171 1.242.512.338.342.507.755.507 1.241 0 .476-.172.884-.515 1.225-.344.341-.755.512-1.234.512-.49 0-.906-.171-1.25-.512s-.516-.749-.516-1.225c0-.486.172-.899.516-1.241.345-.341.761-.512 1.25-.512zM454.131 254.97l-.625 1.039c-.718.382-1.429.661-2.132.837-.703.176-1.497.264-2.382.264-2.187 0-3.928-.654-5.224-1.964-1.296-1.309-1.944-3.106-1.944-5.394 0-1.21.174-2.264.523-3.158.349-.896.778-1.586 1.289-2.072.344-.342.997-.784 1.96-1.327.963-.543 1.637-.893 2.023-1.048.708-.3 1.556-.45 2.545-.45.937 0 1.781.099 2.53.295.479.124.958.331 1.437.62-.121.796-.207 1.398-.257 1.807s-.116 1.149-.196 2.225h-.89c-.063-1.002-.125-1.628-.188-1.876-.042-.155-.136-.295-.282-.419-.375-.289-.858-.54-1.447-.752s-1.233-.317-1.933-.317c-.876 0-1.635.179-2.277.535-.642.357-1.14.924-1.494 1.7-.355.776-.532 1.739-.532 2.888 0 1.408.25 2.681.75 3.819.5 1.139 1.179 1.97 2.038 2.492s1.819.784 2.881.784c.531 0 1.049-.064 1.554-.194.505-.129 1.153-.374 1.944-.736l.329.402zM454.834 243.976v-.884c2.02-.228 3.717-.661 5.092-1.303l.343.248c-.083 2.202-.125 3.888-.125 5.056v2.822c.052 2.688.083 4.14.093 4.356.01.518.068.895.172 1.132.052.094.12.174.203.241s.208.121.375.162c.062.011.64.026 1.733.047v.884c-1.583-.072-2.848-.108-3.795-.108-.833 0-2.197.036-4.092.108v-.884l1.493-.016c.22-.01.39-.049.511-.116s.212-.152.275-.256c.115-.207.189-.574.22-1.101 0-.135.026-1.618.078-4.45v-2.729c0-1.54-.052-2.455-.156-2.744-.062-.155-.174-.271-.336-.35-.16-.076-.855-.115-2.084-.115zm3.812-9.072c.489 0 .903.171 1.242.512.338.342.507.755.507 1.241 0 .476-.172.884-.515 1.225-.344.341-.755.512-1.234.512-.49 0-.906-.171-1.25-.512s-.516-.749-.516-1.225c0-.486.172-.899.516-1.241.344-.341.76-.512 1.25-.512zM463.362 243.96v-.884c.188 0 .583-.044 1.187-.132.604-.087 1.275-.237 2.015-.449.739-.212 1.296-.416 1.671-.612.114-.062.208-.094.281-.094.073 0 .133.026.18.078s.07.14.07.264l-.016.372c-.021.3-.031.573-.031.821v1.644c1.759-1.622 2.858-2.537 3.295-2.744.572-.279 1.426-.419 2.561-.419 1.322 0 2.462.298 3.42.892.958.595 1.653 1.365 2.085 2.311.432.946.648 1.957.648 3.031 0 .651-.076 1.267-.227 1.846-.151.579-.344 1.124-.578 1.636-.234.512-.495.982-.781 1.411-.287.429-.554.752-.804.969-.146.135-.523.445-1.132.931-.609.486-1.26.907-1.952 1.264-.693.356-1.174.576-1.445.659-.594.186-1.224.279-1.89.279-.521 0-1.028-.062-1.523-.187s-1.054-.336-1.679-.636v2.466c.043 2.615.069 4.057.078 4.326.01.506.073.878.188 1.116.042.113.107.204.196.271.089.067.217.116.385.147.094.021.717.041 1.87.062v.884c-1.302-.052-3.025-.077-5.169-.077-1.187 0-2.098.025-2.733.077v-.884l1.493-.016c.22-.01.39-.049.511-.116s.212-.152.275-.256c.115-.207.189-.574.22-1.102.009-.135.035-1.614.078-4.438v-5.509c0-1.789-.021-3.626-.062-5.509s-.086-2.909-.133-3.08-.123-.3-.227-.388-.239-.147-.406-.179l-1.919-.046zm5.358 9.583c.552.559 1.182.998 1.89 1.318s1.453.48 2.233.48c.947 0 1.809-.235 2.584-.705.776-.471 1.39-1.202 1.843-2.194.453-.992.679-2.072.679-3.241 0-1.126-.216-2.106-.648-2.938-.432-.832-1.044-1.457-1.835-1.876-.791-.419-1.588-.628-2.389-.628-.594 0-1.179.116-1.757.349-.578.232-1.101.571-1.569 1.016-.469.444-.781.868-.937 1.271-.062.196-.094.574-.094 1.132v6.016zM484.775 246.115l-.828-.217c.01-.237.016-.563.016-.977 0-.435-.005-.78-.016-1.039 1.324-.858 2.408-1.437 3.253-1.736.646-.218 1.371-.326 2.174-.326 1.188 0 2.189.223 3.003.667s1.418 1.08 1.814 1.907c.271.579.407 1.37.407 2.372l-.078 2.838v4.621c0 .496.042.853.125 1.069.062.155.161.27.297.342.104.062.322.104.656.124l1.015.093v.884c-.854-.072-1.604-.108-2.249-.108-.625 0-1.458.036-2.499.108l.078-2.729c-2.124 1.593-3.384 2.489-3.779 2.69-.396.202-.896.303-1.5.303-1.26 0-2.241-.333-2.944-1s-1.054-1.554-1.054-2.659c0-.714.122-1.365.367-1.954s.539-1.057.883-1.403c.343-.346.692-.602 1.046-.768.604-.279 1.585-.579 2.944-.899s2.705-.558 4.037-.713c.01-.982-.109-1.747-.359-2.295-.25-.548-.672-.998-1.265-1.35-.594-.351-1.317-.527-2.171-.527-.615 0-1.153.083-1.617.249-.463.165-.747.305-.851.418l-.281.559c-.28.619-.488 1.106-.624 1.456zm7.169 2.435c-1.354.228-2.509.481-3.467.76-.958.279-1.635.569-2.031.869-.239.176-.448.439-.625.79-.271.518-.406 1.091-.406 1.722 0 .765.213 1.362.641 1.791.427.429 1.02.644 1.78.644.697 0 1.387-.199 2.069-.598.682-.397 1.361-.994 2.038-1.791v-4.187zM497.536 256.737v-.884l1.468-.016c.229-.01.403-.049.523-.116.12-.066.211-.152.273-.256.115-.206.182-.573.203-1.1.01-.135.047-1.616.109-4.447v-6.43c0-1.725-.026-3.507-.078-5.346-.042-1.239-.1-1.932-.173-2.076-.052-.104-.136-.176-.251-.217-.157-.072-.88-.108-2.168-.108v-.915c2.353-.289 3.988-.651 4.904-1.085.135-.062.239-.094.312-.094.073 0 .13.023.171.07.042.046.062.111.062.193l-.031.31-.016.512c-.052 1.85-.083 3.425-.093 4.726l-.031 2.418v8.042c.043 2.686.069 4.137.078 4.354.01.517.073.894.189 1.131.042.093.104.173.188.24s.209.121.377.162c.073.011.655.026 1.745.047v.884c-1.416-.072-2.66-.108-3.732-.108-1.02.001-2.363.037-4.029.109zM506.111 243.976v-.884c2.02-.228 3.717-.661 5.092-1.303l.343.248c-.083 2.202-.125 3.888-.125 5.056v2.822c.052 2.688.083 4.14.093 4.356.01.518.068.895.172 1.132.052.094.12.174.203.241s.208.121.375.162c.062.011.64.026 1.733.047v.884c-1.583-.072-2.848-.108-3.795-.108-.833 0-2.197.036-4.092.108v-.884l1.493-.016c.22-.01.39-.049.511-.116s.212-.152.275-.256c.115-.207.189-.574.22-1.101 0-.135.026-1.618.078-4.45v-2.729c0-1.54-.052-2.455-.156-2.744-.062-.155-.174-.271-.336-.35-.16-.076-.856-.115-2.084-.115zm3.811-9.072c.489 0 .903.171 1.242.512.338.342.507.755.507 1.241 0 .476-.172.884-.515 1.225-.344.341-.755.512-1.234.512-.49 0-.906-.171-1.25-.512s-.516-.749-.516-1.225c0-.486.172-.899.516-1.241.344-.341.76-.512 1.25-.512zM514.795 244.58v-.65c1.002-.394 1.798-.745 2.39-1.055v-4.714c1.083-.372 1.962-.771 2.64-1.194l.375.311c-.114.858-.239 2.75-.375 5.675l1.499.016 1.609-.031c.541-.01.947-.03 1.218-.062l.109.108-.328 1.442c-.656-.011-1.26-.016-1.812-.016s-1.317.005-2.296.016l-.078 6.311c-.031 1.541-.021 2.461.031 2.76.052.301.15.562.296.783.145.223.334.401.568.535.233.135.63.238 1.19.311.426 0 .771-.019 1.035-.055s.599-.126 1.004-.271l.187.604c-.489.383-.962.781-1.419 1.194-.396.145-.765.24-1.108.287-.343.046-.738.069-1.185.069-.551 0-.991-.062-1.318-.186s-.626-.297-.897-.52c-.27-.223-.495-.504-.674-.846-.179-.341-.295-.878-.348-1.612.01-.703.031-1.473.062-2.311l.016-.542v-6.436h-.64c-.523.002-1.106.028-1.751.079zM524.573 265.033l.797-2.388h.375c.198.165.367.297.508.395.141.099.292.174.453.226.162.052.398.077.711.077.322 0 .638-.069.945-.209s.593-.359.859-.659.581-.816.945-1.551c.551-1.107 1.045-2.234 1.482-3.383-.333-.931-.735-1.974-1.204-3.131l-2.487-6.106c-.741-1.818-1.345-3.211-1.813-4.178-.188-.381-.388-.636-.602-.764-.213-.129-.689-.234-1.429-.316v-.885c1.292.073 2.569.109 3.831.109 1.23 0 2.413-.036 3.549-.109v.885c-1.072.071-1.687.138-1.843.199-.271.103-.406.287-.406.554 0 .164.088.502.266 1.015.406 1.273.792 2.36 1.157 3.261l.985 2.423c.594 1.449 1.095 2.624 1.502 3.524l.826-1.832c.322-.725.889-2.102 1.7-4.131.811-2.029 1.284-3.281 1.419-3.757.042-.166.062-.311.062-.435 0-.196-.081-.349-.242-.457-.162-.108-.789-.215-1.882-.318v-.931c1.208.073 2.275.109 3.202.109.937 0 1.864-.036 2.78-.109l-.156.931c-.531.021-.942.135-1.233.341-.292.207-.732.902-1.32 2.086-.588 1.184-1.68 3.513-3.273 6.985l-3.609 8.372c-.582 1.354-1.086 2.321-1.513 2.9-.426.579-.937 1.019-1.53 1.318-.594.3-1.244.45-1.952.45-.344 0-.654-.039-.929-.116-.278-.077-.587-.209-.931-.395zM549.438 249.597c0-2.317.742-4.209 2.226-5.673s3.386-2.196 5.708-2.196c2.187 0 3.967.683 5.341 2.049s2.062 3.13 2.062 5.293c0 1.511-.354 2.893-1.062 4.145s-1.708 2.232-2.999 2.941c-1.292.708-2.712 1.062-4.264 1.062-1.208 0-2.231-.201-3.069-.605-.838-.403-1.518-.91-2.038-1.521-.521-.611-.916-1.237-1.187-1.879-.479-1.127-.718-2.333-.718-3.616zm2.952-1.149c0 1.272.213 2.566.641 3.881.427 1.314 1.043 2.274 1.851 2.88.807.605 1.684.908 2.632.908 1.208 0 2.218-.477 3.03-1.429s1.218-2.416 1.218-4.393c0-1.646-.242-3.066-.727-4.262-.484-1.195-1.101-2.039-1.851-2.53s-1.577-.737-2.483-.737c-1.28 0-2.319.46-3.116 1.382-.797.921-1.195 2.355-1.195 4.3zM566.384 244.611v-.63c.812-.338 1.531-.696 2.155-1.075v-.931c0-1.344.086-2.292.258-2.846.172-.553.414-1.047.726-1.48.469-.641 1.208-1.458 2.218-2.45.677-.651 1.176-1.06 1.5-1.225.427-.218.926-.326 1.499-.326.406 0 .823.067 1.25.202l.062 2.574-.359.139c-.323-.269-.643-.465-.96-.589-.317-.124-.69-.186-1.117-.186-.562 0-1.021.113-1.374.341-.354.228-.612.553-.773.977s-.242 1.287-.242 2.59v3.21h1.656c.833 0 1.65-.036 2.452-.109l.156.095-.312 1.611c-.906-.041-1.572-.062-1.999-.062-.438 0-1.088.021-1.953.062v5.544c0 .681.026 1.925.078 3.731.01.641.037 1.048.078 1.224s.096.302.164.379c.068.078.18.143.336.194.312.093 1.156.186 2.53.278v.884c-2.426-.072-3.905-.108-4.436-.108-.479 0-1.817.036-4.014.108v-.884l1.493-.016c.22-.01.39-.049.511-.116.121-.066.212-.152.275-.256.115-.206.189-.572.22-1.099 0-.135.026-1.615.078-4.444v-5.42l-2.156.109zM584.361 239.852h-.968c-.01-2.471-.062-4.182-.156-5.133 1.135.041 2.916.093 5.342.155 1.968.041 3.28.062 3.936.062.708 0 2.348-.031 4.919-.093 1.864-.041 3.223-.083 4.077-.124-.125 1.158-.208 2.868-.25 5.133h-1l-.125-1.489c-.083-.899-.141-1.411-.172-1.535s-.076-.211-.133-.264c-.057-.051-.143-.093-.258-.124-.146-.03-.666-.072-1.562-.124-.896-.051-1.604-.077-2.124-.077h-1.905c-.104.991-.156 2.329-.156 4.013v9.064c0 1.404.016 2.773.047 4.105.031.981.106 1.565.226 1.751s.312.323.578.41c.266.088 1.018.143 2.257.163v.992c-1.864-.083-3.264-.124-4.201-.124-.406 0-2.03.041-4.873.124v-.992c1.233-.021 1.983-.075 2.253-.163.27-.087.451-.209.544-.364.135-.206.217-.707.249-1.503 0-.217.026-1.684.078-4.399v-9.033c0-.434-.01-.909-.031-1.426l-.094-2.618h-2.327c-1.343 0-2.411.052-3.202.155-.25.031-.411.098-.484.201-.115.176-.219.739-.312 1.69l-.173 1.567zM602.229 243.976v-.884c2.02-.228 3.717-.661 5.092-1.303l.343.248c-.083 2.202-.125 3.888-.125 5.056v2.822c.052 2.688.083 4.14.093 4.356.01.518.068.895.172 1.132.052.094.12.174.203.241s.208.121.375.162c.062.011.64.026 1.733.047v.884c-1.583-.072-2.848-.108-3.795-.108-.833 0-2.197.036-4.092.108v-.884l1.493-.016c.22-.01.39-.049.511-.116s.212-.152.275-.256c.115-.207.189-.574.22-1.101 0-.135.026-1.618.078-4.45v-2.729c0-1.54-.052-2.455-.156-2.744-.062-.155-.174-.271-.336-.35-.16-.076-.855-.115-2.084-.115zm3.811-9.072c.489 0 .903.171 1.242.512.338.342.507.755.507 1.241 0 .476-.172.884-.515 1.225-.344.341-.755.512-1.234.512-.49 0-.906-.171-1.25-.512s-.516-.749-.516-1.225c0-.486.172-.899.516-1.241.344-.341.76-.512 1.25-.512zM613.584 246.115l-.828-.217c.01-.237.016-.563.016-.977 0-.435-.005-.78-.016-1.039 1.324-.858 2.408-1.437 3.253-1.736.646-.218 1.371-.326 2.174-.326 1.188 0 2.189.223 3.003.667s1.418 1.08 1.814 1.907c.271.579.407 1.37.407 2.372l-.078 2.838v4.621c0 .496.042.853.125 1.069.062.155.161.27.297.342.104.062.322.104.656.124l1.015.093v.884c-.854-.072-1.604-.108-2.249-.108-.625 0-1.458.036-2.499.108l.078-2.729c-2.124 1.593-3.384 2.489-3.779 2.69-.396.202-.896.303-1.5.303-1.26 0-2.241-.333-2.944-1s-1.054-1.554-1.054-2.659c0-.714.122-1.365.367-1.954s.539-1.057.883-1.403c.343-.346.692-.602 1.046-.768.604-.279 1.585-.579 2.944-.899s2.705-.558 4.037-.713c.01-.982-.109-1.747-.359-2.295-.25-.548-.672-.998-1.265-1.35-.594-.351-1.317-.527-2.171-.527-.615 0-1.153.083-1.617.249-.463.165-.747.305-.851.418l-.281.559c-.28.619-.488 1.106-.624 1.456zm7.169 2.435c-1.354.228-2.509.481-3.467.76-.958.279-1.635.569-2.031.869-.239.176-.448.439-.625.79-.271.518-.406 1.091-.406 1.722 0 .765.213 1.362.641 1.791.427.429 1.02.644 1.78.644.697 0 1.387-.199 2.069-.598.682-.397 1.361-.994 2.038-1.791v-4.187zM625.986 256.737v-.884l1.493-.016c.22-.01.39-.049.511-.116s.212-.152.275-.256c.115-.207.188-.574.22-1.101 0-.135.026-1.618.078-4.45v-1.846c0-.827-.016-1.716-.047-2.667-.031-.609-.081-.972-.148-1.085-.068-.114-.185-.199-.351-.256-.167-.058-.843-.08-2.03-.07v-.884c2.103-.289 3.639-.667 4.607-1.132.208-.104.349-.155.422-.155s.13.026.172.078c.042.052.062.129.062.232l-.016.248c-.031.372-.062 1.157-.094 2.356l2.905-2.465c.854-.311 1.661-.466 2.421-.466.843 0 1.643.171 2.397.512.755.342 1.323.771 1.702 1.287.381.518.633 1.168.758 1.954.072.465.109 1.763.109 3.892v2.745c0 1.344.037 2.259.109 2.744.053.311.133.525.242.644.109.119.279.194.508.225l1.672.047v.884c-1.021-.072-1.869-.108-2.547-.108-.582 0-1.551.036-2.905.108.146-2.553.219-4.166.219-4.838v-2.605c0-1.622-.062-2.688-.188-3.193-.177-.693-.578-1.251-1.203-1.675-.625-.424-1.38-.636-2.265-.636-.781 0-1.494.183-2.14.55-.646.366-1.106.79-1.382 1.271-.276.48-.414 1.289-.414 2.427v1.876c.052 2.688.078 4.141.078 4.357.021.518.083.895.188 1.132.042.094.104.174.188.241s.215.121.393.162c.063.011.639.026 1.729.047v.884c-1.271-.072-2.421-.108-3.452-.108-.872.001-2.298.037-4.276.109zM642.682 265.498l-.188-1.101c.354.031.594.046.719.046.322 0 .609-.066.859-.201.354-.176.674-.453.959-.83.287-.378.506-.859.656-1.443s.25-1.552.297-2.901c.047-1.351.07-2.228.07-2.631v-8.705c0-.27-.016-.947-.047-2.033-.021-.683-.068-1.128-.141-1.335-.041-.103-.109-.186-.203-.248-.156-.104-.432-.155-.828-.155-.572 0-1.025-.005-1.357-.016v-.884c2.238-.248 3.863-.646 4.873-1.193.166-.093.297-.14.391-.14.072 0 .133.025.18.077s.07.13.07.233l-.016.311c-.031.279-.059.703-.078 1.271-.053 1.076-.09 2.302-.109 3.678-.043 2.018-.062 3.155-.062 3.413l.047 4.268c0 2.741-.209 4.753-.625 6.035-.303.911-.73 1.715-1.281 2.413-.553.698-1.139 1.221-1.758 1.567-.619.346-1.314.52-2.084.52l-.344-.016zm4.63-30.594c.486 0 .902.171 1.244.512.342.342.512.755.512 1.241 0 .476-.17.884-.512 1.225s-.758.512-1.244.512c-.477 0-.889-.171-1.236-.512s-.521-.749-.521-1.225c0-.486.172-.899.514-1.241.341-.341.755-.512 1.243-.512zM651.07 243.976v-.884c2.02-.228 3.717-.661 5.09-1.303l.344.248c-.082 2.202-.125 3.888-.125 5.056v2.822c.053 2.688.084 4.14.094 4.356.012.518.068.895.172 1.132.053.094.121.174.203.241.084.067.209.121.375.162.062.011.641.026 1.734.047v.884c-1.584-.072-2.848-.108-3.795-.108-.834 0-2.197.036-4.092.108v-.884l1.492-.016c.221-.01.391-.049.512-.116.119-.067.211-.152.273-.256.115-.207.189-.574.221-1.101 0-.135.025-1.618.078-4.45v-2.729c0-1.54-.053-2.455-.156-2.744-.062-.155-.174-.271-.336-.35-.162-.076-.855-.115-2.084-.115zm3.811-9.072c.488 0 .902.171 1.24.512.34.342.508.755.508 1.241 0 .476-.172.884-.516 1.225-.342.341-.754.512-1.232.512-.49 0-.906-.171-1.25-.512s-.516-.749-.516-1.225c0-.486.172-.899.516-1.241.344-.341.76-.512 1.25-.512zM659.473 256.737v-.884l1.494-.016c.219-.01.389-.049.51-.116s.213-.152.275-.256c.115-.207.188-.574.221-1.101 0-.135.025-1.618.078-4.45v-1.846c0-.827-.016-1.716-.047-2.667-.031-.609-.082-.972-.148-1.085-.068-.114-.186-.199-.352-.256-.168-.058-.844-.08-2.031-.07v-.884c2.104-.289 3.639-.667 4.607-1.132.209-.104.35-.155.422-.155s.131.026.172.078.062.129.062.232l-.016.248c-.031.372-.062 1.157-.094 2.356l2.904-2.465c.854-.311 1.662-.466 2.422-.466.844 0 1.643.171 2.396.512.756.342 1.322.771 1.703 1.287.379.518.633 1.168.758 1.954.072.465.109 1.763.109 3.892v2.745c0 1.344.035 2.259.109 2.744.051.311.133.525.242.644.109.119.277.194.506.225l1.672.047v.884c-1.02-.072-1.869-.108-2.545-.108-.584 0-1.553.036-2.906.108.146-2.553.219-4.166.219-4.838v-2.605c0-1.622-.062-2.688-.188-3.193-.176-.693-.578-1.251-1.201-1.675-.625-.424-1.381-.636-2.266-.636-.781 0-1.494.183-2.139.55-.646.366-1.107.79-1.383 1.271-.275.48-.414 1.289-.414 2.427v1.876c.053 2.688.078 4.141.078 4.357.021.518.084.895.189 1.132.041.094.104.174.188.241s.215.121.393.162c.062.011.639.026 1.729.047v.884c-1.27-.072-2.42-.108-3.451-.108-.873.001-2.299.037-4.277.109z"/></g><path d="M1037.388 63.984c-5.668 0-10.32-2.44-13.294-6.229-.572.752-1.149 1.501-1.702 2.268-.847 1.172-1.667 2.356-2.465 3.553 4.412 4.375 10.603 7.021 17.461 7.021 13.382 0 24.244-10.061 24.244-23.399 0-6.774-3.05-12.901-7.871-17.188-1.903 1.254-3.765 2.56-5.591 3.913 3.965 3.145 6.077 8.049 6.077 13.274 0 9.196-6.853 16.787-16.859 16.787zm-36.863 59.76c-.039 1.288-.072 2.574-.072 3.869 0 1.04.015 2.076.043 3.111 10.315-2.603 17.919-11.459 17.919-22.616 0-8.185-4.456-15.428-11.111-19.612-.781 2.148-1.487 4.319-2.135 6.509 3.826 3.152 5.858 7.972 5.858 13.104 0 7.077-4.068 13.189-10.502 15.635zm15.537 61.78c1.156 1.984 2.383 3.937 3.665 5.86 9.371-3.137 16.091-11.594 16.091-22.079 0-12.864-10.988-23.401-24.244-23.401-3.308 0-6.474.654-9.363 1.841.385 2.195.839 4.377 1.352 6.536 2.271-1.112 4.939-1.763 8.012-1.763 10.865 0 16.855 7.947 16.855 16.787-.001 7.736-4.868 14.321-12.368 16.219zm85.442-38.593v28.381c0 9.882 6.321 17.444 17.614 17.444 11.289 0 17.608-7.562 17.608-17.444v-28.381h-7.438v27.081c0 6.27-2.07 12.08-10.17 12.08s-10.17-5.811-10.17-12.08v-27.081h-7.444zm54.035-83.599h-20.321v-38.593h-7.386v44.895h27.707v-6.302zm-270.538 67.32h26.474v-6.493h-19.085v-14.812h18.537v-6.493h-18.537v-10.602h19.085v-6.494h-26.474v44.894zm156.198-29.599l31.098 31.386v-46.681h-7.385v29.243l-31.098-31.581v47.232h7.385v-29.599zm178.058 29.599h7.389v-44.894h-7.389v44.894zm-268.856 61.1h7.384v-21.244h16.081v-6.493h-16.081v-10.66h16.634v-6.493h-24.018v44.89zm23.439-154.026l15.896 33.798 12.688-46.799h-7.37l-7.222 28.083h-.119l-13.873-29.036-13.871 29.035h-.122l-7.224-28.083h-7.365l12.686 46.799 15.896-33.797zm179.378 92.926l7.223-28.082h.12l13.874 29.034 13.866-29.034h.125l7.22 28.082h7.368l-12.685-46.8-15.895 33.798-15.9-33.798-12.685 46.8h7.369zm25.261 48.15l-15.897-33.798-12.685 46.795h7.365l7.226-28.079h.116l13.875 29.032 13.869-29.035h.122l7.223 28.082h7.368l-12.691-46.799-15.891 33.802zm-119.312-6.032h5.023l13.623 18.993h8.415l-14.609-19.53c6.693-.775 11.112-6.135 11.112-12.562 0-4.287-2.212-8.517-6.077-10.72-3.685-2.025-8.506-2.083-12.62-2.083h-12.255v44.895h7.388v-18.993zm0-19.724h3.153c5.708 0 13.188-.164 13.188 6.86 0 7.148-6.99 7.043-12.881 7.043h-3.46v-13.903zm17.981-83.423h7.387v-18.993h5.021l13.626 18.993h8.415l-14.608-19.529c6.688-.773 11.105-6.132 11.105-12.564 0-4.287-2.205-8.512-6.073-10.714-3.682-2.025-8.506-2.084-12.62-2.084h-12.253v44.891zm7.387-38.714h3.152c5.708 0 13.19-.164 13.19 6.86 0 7.145-6.991 7.038-12.886 7.038h-3.457v-13.898zm96.587-6.17h-12.403v44.895h12.219c14.608 0 26.146-7.138 26.146-22.688 0-15.259-11.783-22.207-25.962-22.207zm-.687 38.557h-4.324v-32.387h4.324c9.901 0 19.258 3.185 19.258 16.009-.001 12.822-9.357 16.378-19.258 16.378zm95.665 59.648c-2.377 1.266-5.155 1.989-8.236 1.989-10.004 0-16.857-7.592-16.857-16.787 0-8.838 5.994-16.786 16.857-16.786 3.192 0 5.959.691 8.28 1.883l3.749-5.361c-3.557-1.989-7.67-3.135-12.029-3.135-13.258 0-24.246 10.536-24.246 23.399 0 13.337 10.865 23.4 24.246 23.4 4.42 0 8.561-1.105 12.134-3.058l-3.898-5.544zm-318.028 0c-2.373 1.266-5.155 1.989-8.238 1.989-10.002 0-16.855-7.592-16.855-16.787 0-8.838 5.992-16.786 16.855-16.786 3.192 0 5.961.691 8.282 1.883l3.748-5.361c-3.559-1.989-7.669-3.135-12.03-3.135-13.258 0-24.245 10.536-24.245 23.399 0 13.337 10.867 23.4 24.245 23.4 4.422 0 8.567-1.105 12.137-3.058l-3.899-5.544zm244.904 98.923l-1.628-1.838c-22.229 17.974-50.334 27.854-79.347 27.854-33.117 0-64.246-12.512-87.663-35.226-23.417-22.716-36.312-52.919-36.312-85.045 0-24.835 7.735-48.677 22.378-68.941 14.312-19.812 34.137-34.832 57.334-43.437l-.89-2.263c-9.729 3.608-18.865 8.34-27.279 14.045-3.594-2.041-7.757-3.217-12.181-3.217-13.258 0-24.241 10.536-24.241 23.397 0 4.632 1.316 8.865 3.586 12.426-5.766 8.383-10.42 17.323-13.865 26.673-2.707-1.017-5.642-1.589-8.697-1.589-13.257 0-24.244 10.539-24.244 23.4 0 13.339 10.863 23.399 24.244 23.399.478 0 .952-.02 1.424-.045.2 6.344.896 12.605 2.067 18.742-6.22 4.249-10.33 11.239-10.33 19.102 0 13.335 10.863 23.399 24.242 23.399 1.035 0 2.052-.071 3.052-.189 5.051 7.83 11.049 15.163 17.948 21.855 2.244 2.177 4.558 4.262 6.936 6.254l-3.157 3.557c23.793 19.873 54.211 30.819 85.649 30.819 30.761 0 60.562-10.482 84.118-29.56l-3.15-3.568.006-.004zm-165.588-191.456c2.254 0 4.282.362 6.107.985-8.162 6.276-15.531 13.539-21.948 21.676-.649-1.834-1.017-3.811-1.017-5.875 0-8.836 5.994-16.786 16.858-16.786zm-41.808 94.417c-.465.034-.928.067-1.41.067-10.005 0-16.854-7.592-16.854-16.786 0-8.837 5.992-16.787 16.854-16.787 2.471 0 4.678.429 6.628 1.171-3.202 10.418-4.964 21.268-5.218 32.335zm-.864 44.478c0-4.511 1.575-8.777 4.549-11.888 2.56 9.994 6.412 19.599 11.468 28.628-9.542-.418-16.017-7.81-16.017-16.74zm93.086-61.16c0 13.337 10.863 23.4 24.246 23.4 13.374 0 24.243-10.063 24.243-23.4 0-12.863-10.986-23.399-24.243-23.399-13.258 0-24.246 10.536-24.246 23.399zm24.246-16.786c10.86 0 16.854 7.948 16.854 16.786 0 9.195-6.854 16.787-16.854 16.787-10.006 0-16.86-7.592-16.86-16.787 0-8.837 5.994-16.786 16.86-16.786z"/><path d="M771.503 101.05l30.685 30.939 31.01-30.939 2.272 2.106-31.009 30.777 31.009 30.777-2.272 2.268-31.01-30.938-30.685 30.938-2.272-2.268 30.847-30.777-30.847-30.777 2.272-2.106z"/></svg>