<?xml version="1.0" encoding="utf-8"?>
<svg version="1.2" baseProfile="tiny" id="Layer_1" xmlns="http://www.w3.org/2000/svg" xmlns:xlink="http://www.w3.org/1999/xlink"
	 x="0px" y="0px" width="433.95px" height="138.98px" viewBox="-205 -57 433.95 138.98" xml:space="preserve">
<path fill="#FFFF00" d="M74.96-57c8.19,4.15,19.69,4.98,28,9c2.04-1.96,2.979-5.02,3-9h7c-1.59,2.74-1.41,7.25-3,10
	c11.78,4.892,25.75,7.58,38,12c4.431-6.568,6.87-15.12,10.99-22h11c-6.33,6.67-12.03,13.972-15.99,23c15.66,6,33.95,9.37,50.99,14
	c0.729-1.91-1.101-2.688-2-4c-6.431-9.43-15.021-21.88-21-33h5c0.729,2.88,3.35,5.34,5,8c1.75,2.82,4.489,6.71,7,10
	c2.409,3.15,5.68,7.892,9,12c3.79,4.69,5.54,8.69,11,11c4.301,1.812,9.721,1.432,10,7.99c-5.91,2.93-11.4-2.37-15-5
	c-21.341-4.33-42.021-9.3-60.99-15.99c-7.69,14.98-12.16,33.17-18,49.99c18.63,0.43,35.33-11.28,54.99-13c9.68-0.84,27.2-2.18,30,6
	c-3.45,4.01-11.521,0.979-15-1c-28.392-1.07-47.54,8.979-62.99,22c-3.681,3.1-7.14,8.77-13,8c-3.399-0.42-2.25-7.5-2-11
	c0.36-5.17,2.42-11.711,4-17c1.569-5.27,3.399-10.24,5-15c3.5-10.42,6.771-20.46,11-28.99c-2-2.89-6.12-3.1-9-4
	c-7.92-2.47-18.36-5.5-28-8c-5.44,14.16-2.479,32.9-4,50.99c-1.11,13.229-1.46,35.66-1,51c0.14,4.6,3.16,10.09-1,13.99
	c-4.729,0.119-5.06-7.381-6-10.99c-1.14-4.432-2.87-8.84-2-14c-0.26-3.271,3.88-2.12,4-5c-0.21-11.53,0.56-21.852-1-32
	c-1.271-8.26-4.95-15.02-7-22c-5.239,5.59-8.53,13-13,20c-0.67,1.05-2.45,2.039-3,3c-0.71,1.27-0.2,2.74-1,4
	c-1.33,2.109-3.59,3.72-4.989,6c-0.721,1.17-1.301,2.8-2,4c-0.591,1-1.5,2.17-2,3c-2.609,4.3-4.201,11.09-10,12
	c-2.4,0.67-2.801-5.221-3-7c-0.9-7.852,2-16.61,1-26c-6.16,3.06-13.479,11.289-23,17c-2.181,1.31-4.801,1.898-7,3
	c-1,0.5-1.771,1.47-3,2c-4.551,1.949-13.431,5.068-19,5c-6.98-0.09-13.16-2.49-14.99-10c-6.76,3.46-10.88,9.869-16,15
	c-2.51,2.5-5.38,4.6-8,7c-2.48,2.26-4.33,7.25-9,6c-0.65-4.32,1.73-5.61,3-8c-0.98-1.36-3.37-1.301-4-3
	c-1.18-11.82-1.37-24.631-6-33c-6.6,1.55-10.05,11.08-17,9c1.18-7.16,7.55-9.11,12-13c-1.1-4.9-3.76-8.24-5-13
	c-9.71,2.95-19.09,6.24-28.99,9c5.61,8.24,12.05,15.18,17.99,23c5.39,7.09,12.91,15.148,12,28c-14.88,12.14-44.5,0.25-59.99-4
	c-18.57-5.11-42.271-10.59-63.99-4c-0.23,2.75,0.17,6.689,1,10c0.68,2.729,2.01,6.199,3,8.99c2.03,5.77,7.75,11.299,2,17
	c-5.37-2.24-6.46-10.11-8-16c-1.65-6.28-2.29-13.271-4-18.99c-5.09-0.102-7.91,2.09-13,2v-9c3.04,0.039,3.89-2.11,6-3
	c1.43-1.57,5.21-0.79,5-4c-3.82-29.75-1.88-64.1,4-89.99h6c-7.02,23.62-7.17,58.392-5,87.99c7.27-2.24,14.04-5.961,21-9
	c19.62-8.561,42.27-15.13,65.99-21c-2.91-5.3-7.06-10.01-11-15c-10.58-13.38-21.53-28.07-32-42.99h7
	c13.19,19.142,26.57,38.09,42,54.99c11.06-1.93,20.32-5.67,29.99-9c0.2-4.35-5.92-6.64-1-9.99c-0.79-2.22-3.49-2.51-5-4
	c0.87-1.47,1.5-3.17,4-3c0.6-3.188-1.87-3.1,0-5c1.91-1.45,4.31,0.19,6-1c1.32-0.938,0.29-5.358,3-5c-1.19-5.81-1.69-12.31-3-18h6
	c-0.4,4.74,1.79,6.88,1,12c12.31,4.521,17.44-6.47,25-10c3.97,0.12,7.22,3.66,11,5c3.25,1.15,7.46,1.2,11,2
	c9.55,2.16,20.17,4.28,28.992,8c1.959,1.87,0.311,3.66,0,6c5.51-1.818,11.318-3.35,18-4c1.129,1.2,2.85,1.812,2,5
	c3.868-1.58,11.34-1.58,14,1c0.549-4.45,0.788-9.21,3-12c4.561-0.938,6.618,4.53,3,6c1.068,2.59,3.608,3.71,4,7
	c-0.74,5.59-2.521,10.142-4,15c-0.201,3.852,4.641,2.682,4,6.99c0.709,7.05-3.729,8.94-6,13c0,4,0,8,0,12
	c5.328-2.36,10.771-5.27,14.988-10c0.971-1.08,1.061-2.89,2-4c1.891-2.2,4.609-5.33,7-9c0.891-1.35,1.28-2.87,2-4
	c0.25-0.38,1.852-0.66,2-1c0.24-0.52-0.29-1.51,0-2c0.7-1.14,2.34-1.83,3-2.99c4.17-7.38,7.66-17.68,12-26
	c-15.979-6.35-36.45-8.21-52.988-14 M-95.01,8.99c-1.11-1.25-1.63-4.2-4-4c-27.94,9.39-60.62,14.05-78.99,33
	c-1.06,0.05-0.79,1.279,1,1c32.09-6.021,56.26,9.13,81.99,11c3.33,0.24,7.7,0.56,10.99,0c4.96-0.852,10.56-3.57,13-9
	C-77.18,28.76-87.13,17.95-95.01,8.99z M-9.02-8.01c-2.81-0.53-1.95-4.72-5-5c-12.38,4.29-21.97,11.37-32,18
	c0.66,14,4.87,24.46,5,39c6.21-2.74,12.3-10.84,17-15c1.25-1.11,2.62-1.76,4-3c5.29-4.771,7.25-8.891,10-15c1.34-2.99,2.84-6.44,4-9
	c0.14-0.31,1.75-0.64,2-1c2.37-3.43,5.78-6.85,4.99-10C-0.41-6.73-5.99-8.63-9.02-8.01z M31.971,17.99c3.149-1.811,6.299-4.04,9-6
	c7.699-5.58,13.909-10.68,13-16c-0.859-5-18.211-13.57-29-11.99C18.59-4.4,9.11,3.68,0.97,11.99c-2.55,2.609-5.58,5.38-6.99,9
	C5.43,30.04,23.96,22.59,31.971,17.99z M-48.02-12.01c0,3.34,0,6.67,0,10c2.35-0.3,5.2-3.14,6-4c0.72-0.77,0.31-2.14,1-3
	c1.4-1.74,7.93-6.73,4-6.99C-40.59-14.58-43.47-12.45-48.02-12.01z M54.971-30c-7.521-0.84-21.021,0.96-24,8
	c9.039-0.05,15.17,2.82,23,4C53.18-23.12,55.37-25.27,54.971-30z M-36.02-33c-8.03-1.04-8.97,5.03-15,6c2.34,1.99-1.19,9.86,3,10
	c4.25-1.278,1.68-1.6,1-5c2.74-2.6,4.98-5.688,9-7c1.42,1.91,3.8,2.86,4,6c7.97-1.479,15.9-7.938,24-6c2.36-3.63,6.08-5.92,6.99-11
	C-16-42.58-28.56-38.95-36.02-33z M-205,48.99c0-3,0-6,0-9 M181.95-57c1.67,0,3.329,0,5,0 M158.95-57c3.67,0,7.34,0,11,0 M105.96-57
	c2.33,0,4.67,0,7,0 M48.971-57c8.659,0,17.329,0,25.989,0 M-62.02-57c2,0,4,0,6,0 M-145.01-57c2.34,0,4.67,0,7,0 M-190-57
	c2,0,4,0,6,0"/>
</svg>
