<?xml version="1.0" encoding="utf-8"?>
<svg version="1.2" baseProfile="tiny" id="Layer_1" xmlns="http://www.w3.org/2000/svg" xmlns:xlink="http://www.w3.org/1999/xlink"
	 x="0px" y="0px" width="368.95px" height="139.98px" viewBox="0 0 368.95 139.98" xml:space="preserve">
<path fill="#FFFF00" d="M0,7c24.34,24.65,47.15,50.84,74.99,71.99c11.11-18.22,3.99-54.67,9-78.99h9c-3.79,20.14-2.63,43.91,1,63.99
	c6.02-24.64,28.16-33.16,43.99-47.99c-0.22-1.43-4.97,0.93-8,0c1.87-3.47,7.82-2.85,12-4c2.63-0.99-2.44-2.76-3-4
	c-0.21-0.47,0.32-1.61,0-2c-1.63-2.01-5.38-2.96-5-6h9c1.91,2.75,4.09,5.25,6,8c1.88-0.21,5.2-4.01,6-2c4.8,0.52-2.53,3.38-2,6
	c13.15,2.51,25.85,5.48,38,9c-2.33-7.01-5.141-13.53-7-21h14c1.689,5.39,6.43,9.16,9.989,13c10.11,10.87,22.351,21.31,40,26
	c3.48-5.16,2.12-13.21,3-20c0.891-6.91,2.62-13.51,4-19h9c-5.16,10.84-7.09,24.91-8,40c4.49,3.16,14.66,0.67,14,8.99
	c-3.85,2.33-9.29-1.01-14-1c-2.3,2.37-0.359,8.98-1,13c2.49,1.09,4.34-0.51,7-1c8.13-1.49,16.9-2.6,25.99-4
	c14.32-2.2,26.93-4.8,44-5c0.771-0.57-0.67-3.38-2-6c-1.1-2.16-1.92-4.05-3-5.99c-1.15-2.07-2.86-4.77-5-7c-0.13-0.14-0.96-0.94-1-1
	c-6.37-9.33-18.81-18.69-28-27c-0.83-0.75-0.96-1.32-2-2c-0.67-0.45-1.66-1.17-2-2h10c7.13,7.73,14.86,14.63,23,22
	c3.71,3.35,6.83,7.53,11,11c0.83,0.68,2.24,0.29,3,1c0.46,0.43,0.53,1.61,1,2c2.7,2.19,6.13,3.87,9,5.99c2.69,2,5.09,4.72,8,7
	c2.22,1.75,8.07,2.23,7,7c-40.09-1.09-71.99,6.01-105.99,11c-2.01,2.99-0.569,9.43-1,14c23.79,6.229,50.08-2.36,75.99-4
	c8.97-0.57,20.46-1.63,29,0c3.8,0.729,9.5,1.899,9.99,8c-3.73,4.13-11.931,0.62-14.99-2c-32.53-0.42-61.17,4.97-85.99,13
	c-6.52,2.1-12.859,5.46-20,6c-4.739-7.771,1.221-20.92,0-32c-6.319-1.13-13.67,4.859-23,4c-0.26-5.04,5.71-5.73,9-7
	c4-1.54,8.761-2.65,13-3c1.471-4.86,1.38-11.28,2-17c-5.13-2.26-12.43-4.96-19-6.99c-6.21-1.92-16.819-1.87-24-6
	c3.471,17.81,6.66,36.18,11,53.99c1.811,7.38,4.2,16.08,6,26c0.7,3.84,2.811,8.59,3,12.99c0.181,4.239,1.37,9.63-3,13h-3
	c-8.239-5.091-3.71-16.101-4-23.99c-0.27-7.471-3.27-15.4-5-23c-4.8-21.181-8.91-46.2-16.989-64.99c-10.431-4.91-23.3-7.37-35-11
	c-2.06,3.06,2.6,4.31,4,6c0.94,1.14,0.94,2.88,2,4c0.76,0.81,2.3,1.15,3,2c0.9,1.09,1,2.94,2,4c1.76,1.86,2.72,3.02,5,6
	c0.25,0.32,1.87,0.7,2,1c0.21,0.48-0.32,1.58,0,1.99c1.58,2.07,4.3,3.73,6,6c0.78,1.06,1.31,3,2,4c2.64,3.82,9.14,12.69,8,19
	c-0.28,1.54-3.03,2.5-2,4c-7.24,4.92-19.63,3.439-32,4c-17.58,0.8-37.62,1.54-50.99,0c-5.24-0.601-9.57-4.021-13-7
	c3.13,10.08,3.7,20.47,10,27c1.9,1.97,6.36,4.27,5,10c-2.89,2.779-5.52-0.01-8-1c-2.38-0.96-5.2-1.94-7-3
	c-4.33-2.561-8.31-6.32-12-9c-7.98-5.8-15.88-11.75-23-18C45.18,64.98,32.17,49.73,18,37c0.78,6.73,0.46,13.49,1,21.99
	c0.73,11.609,3.46,23.13,6,35c0.84,3.96,1.19,7.58,2,11c1.31,5.569,6.13,11.54,1,16.99c-6.96,1.159-7.01-6.521-9-10.99
	c-5.34-12.01-13.43-26.271-16-41c-1.23-7.01,0.52-13.95-3-20 M146.98,17c-1.69,0.02-2.19,2.3-3,3c-0.83,0.72-2.03,0.32-3,1
	c-0.83,0.58-1.18,2.34-2,3c-5.96,4.76-11.59,8.73-17,13c-7.03,5.55-16.76,11.35-16.99,21.99c17.19,9.36,42.47,15.21,68.99,12
	C174.02,43.96,159.98,30.99,146.98,17z M0,49.99C0,35.66,0,21.33,0,7 M222.97,139.98c-1,0-2,0-3,0 M288.96,0c3.34,0,6.67,0,10,0
	 M254.97,0c3,0,6,0,9,0 M183.98,0c4.66,0,9.33,0,14,0 M133.98,0c3,0,6,0,9,0 M83.99,0c3,0,6,0,9,0"/>
</svg>
