<?xml version="1.0" encoding="utf-8"?>
<svg version="1.2" baseProfile="tiny" id="Layer_1" xmlns="http://www.w3.org/2000/svg" xmlns:xlink="http://www.w3.org/1999/xlink"
	 x="0px" y="0px" width="417.676px" height="122.98px" viewBox="0 0 417.676 122.98" xml:space="preserve">
<path fill="#FFFF00" d="M84.677,0c5.57,2.87,15.89,6.17,27,10c9.61,3.31,21.7,5.91,22.99,13c0.3,1.6-0.42,6.52-1,8
	c-1.5,3.82-6.54,6.26-9,9c7.38,11.28,16.95,20.38,23,32.99c3.03-5.351,2.84-13.32,3-21c0.38-17.97-0.64-37.72-4-51.99h5
	c4.5,12.83,3.75,30.91,5,46.99c2.72,0.53,4.11-3.22,7-5c2.43-1.49,6-2.58,9-3.99c10.52-4.96,23.46-9.01,40.99-7
	c5.86,0.67,12.311,2.15,15,7c0.04,3.04,0.58,6.58-3,5.99c1.32,1.64,4.23,2.63,7,4c2.16,1.07,5.15,1.72,7,3c0.86,0.6,1.17,2.42,2,3
	c0.94,0.66,2.28,0.2,3,1c6.08,6.81,1.7,15.29-9,18c1.48,3.279,6.12-1.061,8-2c1.69-0.84,4.721,0.12,4-4c4.38,0.439,3.28-3.061,7-1
	c-1.819-7.62-3.069-15.47-5-23c-1.79-6.95-3.7-18.48-9-21.99c-0.939-0.63-2.34-1.9-4-3c-2.13-1.42-7.779-4.04-8-9
	c1.66-1.68,5.87-0.8,9-1c2.36-2.42-3.13-5.48-4-8h5c1.87,2.8,4.45,4.88,5,9c27.54,6.45,44.79,23.2,64.99,36.99
	c2.09-0.57,2.86-2.47,6-2c1.15-2.35,1.25-5.09,2-7.99c0.6-2.33,1.74-4.72,2-7c0.72-6.29-2.28-13.38,1-17c7.56,1.77,2.45,19.65,7,26
	c5.521-2.09,10.35-4.68,16-9c4.23-3.25,7.51-8.92,12-11c5.22-2.42,13.64-1.75,20.99-3c7.33-1.25,14.5-5,24-5c2.06,0,6.04-1.13,7,2
	c-1.391,3.88-6.21,2.98-9,4c-20.09,7.33-43.391,17.77-63.99,25.99c-0.75,2.32,3.38,4.9,6,7c7.521,6.06,17.66,11.33,26.99,17
	c12.34,7.5,24.569,15.649,34,25c3.05-1.62-3.32-4.811,0-7c8.22,0.38,7.5,9.439,10,15c2.2,4.899,7.55,9.359,7,15
	c-2.271,1.5-2.99,2.54-6,2c-5.41-0.99-3.67-7.25-6-12c-1.561-3.181-3.98-6.221-7-9c-0.7-0.65-2.271-0.44-3-1
	c-1.28-0.98-1.95-2.641-4-4c-5.351-3.55-12.57-9.65-19-14c-13.66-9.24-26.98-16.39-39.99-20c0.23,3.65,2.63,7.08,3,12
	c0.41,5.54-1.33,16.859-1,25c0.23,5.87,3.44,11.34-1,15c-5.21-1.38-3.58-8.9-5-15c-2.13-9.15-6.75-18.79-8-28
	c-19.18,2.819-41.8,2.189-59.99,6c0.24,2.83,3.25,4.5,5,6c5.391,4.62,12.511,9.04,18.99,14c4.12,3.149,7.87,6.819,12,10
	c4.16,3.189,8.94,5.71,12,10c5.68,0.87,12.85,4.85,9,11.99h-2c-16.94-14.381-34.68-27.971-52.99-40.99c1.34,5.08,4.221,15.56,1,19
	c-4.96-1.29-3.899-9.061-5-14c-1.29-5.76-1.43-11.11-6-13c-9.46,1.2-12.45,8.88-23,9c-3.2-0.13-4.399-2.271-4-6
	c-19.88,5.609-51.6,4.069-65.99-5c-0.51,5.689,1.36,12.91,3,20c1.62,6.99,5.51,14.79,2,20c-4.41-0.11-4.61-5.32-6-8
	c-1.57-3.03-3.63-6.16-5-9c-9.55-19.851-20.99-36.68-34-52c-6.38,3.81-13.07,6.82-18.99,10c-8.37,4.5-18.82,10.31-27,14
	c-0.32,0.149-0.63,1.75-1,2c-0.46,0.31-1.49-0.23-2,0c-0.34,0.16-0.6,1.76-1,2c-1.8,1.09-4.16,1.92-6,3c-6.76,4-12.03,7.75-18,12
	c-10.64,7.58-21.25,17.069-36.99,18c-5.48-2.38-7.28-12.601-8-24c-0.91-14.37-0.92-33.27,0-46.99c0.76-11.28,3.38-28.4,11-29
	c8.95-0.7,9.44,11.98,11,21c-4.81-3.53-4.81-11.86-9-16c-9.07,19.87-10.03,55.28-6,81.99c19.46,1.54,31.57-7.87,42.99-15
	c3.98-2.48,7.37-4.84,11-7c18.12-10.74,36.34-20.5,54-29.99c-12.18-13.82-26.04-25.96-41-37c0-0.67,0-1.33,0-2 M231.656,57.99
	c-3.51-4.14-7.239-6.91-12-9c-10.28-4.52-22.84-5.17-35.99-5c-0.64-2.02-4.68-0.65-5-2.99c-0.06-0.62-0.15-1.19-1-1
	c-5.1,4.44-18.28,7.52-18,14.99c0.08,2.11,2.99,4.87,7,8c6.03,4.71,12.57,7.2,21,9c16.48,3.52,38.99,1.55,47.99-6
	C236.127,62.91,233.446,60.1,231.656,57.99z M216.656,36c-9.96-2.49-22.56-2.13-30.99,2c5.28,2.1,11.43,0.57,16.99,1
	c8.36,0.64,15.76,4.6,22,2.99C226.017,35.97,219.286,38.04,216.656,36z M259.656,65.99c14.86-3.46,32.67-3.99,42.99-12
	c-2.479,0.15-4.85,0.19-5-2c0.19-2.81,3.271-2.73,4-5c-6.86-3.32-12.22-8.92-19-12.99c-3.13-1.89-7.15-3.31-10.99-5
	c-3.71-1.64-7.26-4.15-11-5c-3.05-0.7-6.689,0.3-10-1c-0.779,0.22-1.97,0.02-2,1C253.486,36.83,256.057,51.92,259.656,65.99z
	 M115.677,27c0.89,3.77,2.76,6.56,5.99,8c0.83-2.51,2.74-3.93,3-7c-4.09-2.92-8.89-10.42-13.99-9
	C112.876,21.13,112.486,25.85,115.677,27z M317.646,122.98c-0.67,0-1.33,0-2,0 M233.656,0c1.67,0,3.33,0,5,0 M146.667,0
	c1.67,0,3.33,0,5,0 M74.677,0c3.33,0,6.67,0,10,0"/>
</svg>
